# Blender 4.0.2
# www.blender.org
mtllib spaceship.mtl
o Spaceship_Cube
v 0.328541 0.886930 0.375395
v 0.328541 0.886930 -1.294837
v 0.192835 1.046667 -1.294837
v 0.192835 0.200294 0.375395
v 0.192835 0.200294 -1.294837
v 0.192835 1.044578 0.459950
v 0.359906 0.686217 -1.294837
v 0.359906 0.686217 0.375395
v 0.192835 0.684897 -1.294837
v 0.328541 0.685176 0.965095
v 0.186271 0.200294 1.290520
v 0.328541 0.887214 0.692762
v 0.328541 0.424395 -1.294837
v 0.328541 0.424395 0.375395
v 0.192835 0.354503 -1.294837
v 0.282815 0.422072 1.141347
v 0.192835 0.475805 1.290520
v 0.151441 0.274709 -3.224740
v 0.170786 0.958051 0.677088
v 0.293590 0.835139 0.677088
v 0.293590 0.652310 0.923529
v 0.170786 0.712163 1.058520
v 0.170786 0.977543 0.466410
v 0.170786 0.462845 1.218015
v 0.631604 1.058289 -1.288305
v 0.631604 1.058289 0.373027
v 0.425075 0.820445 -0.395395
v 0.631604 0.205406 -1.288305
v 0.631604 0.205406 0.373027
v 0.919355 1.064508 -1.288305
v 0.919355 1.064508 0.373027
v 1.056377 0.695870 0.373027
v 1.011179 0.216733 -1.288305
v 0.919355 0.216733 0.373027
v 0.425075 0.820445 0.375395
v 0.447008 0.680091 0.375395
v 0.425075 0.497006 0.375395
v 0.637236 0.935694 0.373026
v 0.838453 0.916834 0.373026
v 0.637236 0.339295 0.373026
v 0.934268 0.682265 0.373026
v 0.838453 0.378013 0.373026
v 0.447008 0.680091 -0.395395
v 0.425075 0.497006 -0.395395
v 0.637236 0.935694 -0.514938
v 0.637236 0.676892 -0.514938
v 0.838453 0.916834 -0.514938
v 0.637236 0.339295 -0.514938
v 0.934268 0.682265 -0.514938
v 0.838453 0.378013 -0.514938
v 0.639600 0.837618 -1.976220
v 0.958778 0.841265 -1.972124
v 0.841331 1.063305 -1.972124
v 0.640015 1.059560 -1.972124
v 0.449931 0.835450 -1.978655
v 0.427987 0.956346 -1.978655
v 1.087228 0.695870 -1.288305
v 1.056377 0.695870 -0.078046
v 1.329065 0.216733 0.373027
v 1.329065 0.216733 -1.288305
v 0.361683 0.274093 -1.294837
v 0.602361 0.022091 -1.288305
v 0.361683 0.274093 0.375395
v 0.602361 0.022091 0.373027
v 0.965460 0.020782 0.373027
v 0.982156 0.020782 -1.288305
v 1.299648 0.002806 0.373027
v 1.299648 0.002806 -1.288305
v 1.606266 0.147785 0.353681
v 1.683649 0.147785 -1.288305
v 1.577040 -0.002518 0.353681
v 1.654423 -0.002518 -1.288305
v 0.715436 0.205406 1.095459
v 0.946046 0.216733 2.258331
v 1.221926 0.158516 2.484415
v 0.686112 0.018412 1.095459
v 0.953320 0.016538 2.258331
v 1.192700 0.008214 2.484415
v 1.499335 -0.002518 1.222092
v 1.528561 0.147785 1.222092
v 0.604760 0.175178 2.104465
v 0.626148 0.158516 3.533537
v 0.948027 0.162994 3.043458
v 0.575855 0.024875 2.098977
v 0.597242 0.008214 3.528049
v 0.918802 0.012692 3.043458
v 0.191192 0.140574 2.677095
v 0.184900 0.150973 4.056996
v 0.186460 -0.000207 2.671607
v 0.180168 0.010192 4.051507
v 0.192835 0.200294 -3.224740
v 0.151441 0.956914 -2.660632
v 0.192835 1.046667 -3.224740
v 0.192835 0.354503 -3.224740
v 0.192835 0.684897 -3.224740
v 1.258539 0.004884 1.184602
v 0.972935 0.018498 1.135392
v 0.933644 0.216733 1.131573
v 1.287764 0.194291 1.186950
v 0.291906 0.871084 0.689086
v 0.174003 0.498479 1.252937
v 0.174003 1.007805 0.486815
v 0.291906 0.695551 0.925694
v 0.151441 0.956914 -3.224740
v 0.151441 0.399007 -3.224740
v 0.151441 0.665315 -3.224740
v 0.151441 0.665315 -2.660632
v 0.151441 0.399007 -2.660632
v 0.151441 0.274709 -2.660632
v 1.325373 0.573505 -1.288305
v 1.320704 0.579115 0.024812
v 1.343389 0.412830 -1.288305
v 1.340590 0.414700 0.170684
v 0.631009 0.689815 -1.292402
v 1.023006 0.579180 0.031809
v 0.979329 0.426452 0.175591
v 0.529271 0.835450 -2.539322
v 0.647170 0.837618 -2.536888
v 0.845573 0.841265 -2.532791
v 0.772568 1.063305 -2.532791
v 0.647429 1.059560 -2.532791
v 0.515631 0.956346 -2.539322
v 1.070357 0.524903 0.081556
v 1.090028 0.593688 0.016800
v 1.009258 0.311253 0.282692
v 1.250769 0.311253 0.282692
v 1.245840 0.524865 0.077432
v 1.257562 0.427948 0.163419
v 1.044611 0.434875 0.166311
v 1.070357 0.524903 -1.018275
v 1.090028 0.593688 -1.083031
v 1.009258 0.311253 -0.817139
v 1.250769 0.311253 -0.817139
v 1.245840 0.524865 -1.022399
v 1.257562 0.427948 -0.936413
v 1.044611 0.434875 -0.933520
v -0.328541 0.886930 0.375395
v -0.328541 0.886930 -1.294837
v -0.192835 1.046667 -1.294837
v -0.192835 0.200294 0.375395
v -0.192835 0.200294 -1.294837
v -0.192835 1.044578 0.459950
v -0.359906 0.686217 -1.294837
v -0.359906 0.686217 0.375395
v -0.192835 0.684897 -1.294837
v -0.328541 0.685176 0.965095
v -0.186271 0.200294 1.290520
v -0.328541 0.887214 0.692762
v -0.328541 0.424395 -1.294837
v -0.328541 0.424395 0.375395
v -0.192835 0.354503 -1.294837
v -0.282815 0.422072 1.141347
v -0.192835 0.475805 1.290520
v -0.151441 0.274709 -3.224740
v -0.170786 0.958051 0.677088
v -0.293590 0.835139 0.677088
v -0.293590 0.652310 0.923529
v -0.170786 0.712163 1.058520
v -0.170786 0.977543 0.466410
v -0.170786 0.462845 1.218015
v -0.631604 1.058289 -1.288305
v -0.631604 1.058289 0.373027
v -0.425075 0.820445 -0.395395
v -0.631604 0.205406 -1.288305
v -0.631604 0.205406 0.373027
v -0.919355 1.064508 -1.288305
v -0.919355 1.064508 0.373027
v -1.056377 0.695870 0.373027
v -1.011179 0.216733 -1.288305
v -0.919355 0.216733 0.373027
v -0.425075 0.820445 0.375395
v -0.447008 0.680091 0.375395
v -0.425075 0.497006 0.375395
v -0.637236 0.935694 0.373026
v -0.838453 0.916834 0.373026
v -0.637236 0.339295 0.373026
v -0.934268 0.682265 0.373026
v -0.838453 0.378013 0.373026
v -0.447008 0.680091 -0.395395
v -0.425075 0.497006 -0.395395
v -0.637236 0.935694 -0.514938
v -0.637236 0.676892 -0.514938
v -0.838453 0.916834 -0.514938
v -0.637236 0.339295 -0.514938
v -0.934268 0.682265 -0.514938
v -0.838453 0.378013 -0.514938
v -0.639600 0.837618 -1.976220
v -0.958778 0.841265 -1.972124
v -0.841331 1.063305 -1.972124
v -0.640015 1.059560 -1.972124
v -0.449931 0.835450 -1.978655
v -0.427987 0.956346 -1.978655
v -1.087228 0.695870 -1.288305
v -1.056377 0.695870 -0.078046
v -1.329065 0.216733 0.373027
v -1.329065 0.216733 -1.288305
v -0.361683 0.274093 -1.294837
v -0.602361 0.022091 -1.288305
v -0.361683 0.274093 0.375395
v -0.602361 0.022091 0.373027
v -0.965460 0.020782 0.373027
v -0.982156 0.020782 -1.288305
v -1.299648 0.002806 0.373027
v -1.299648 0.002806 -1.288305
v -1.606266 0.147785 0.353681
v -1.683649 0.147785 -1.288305
v -1.577040 -0.002518 0.353681
v -1.654423 -0.002518 -1.288305
v -0.715436 0.205406 1.095459
v -0.946046 0.216733 2.258331
v -1.221926 0.158516 2.484415
v -0.686112 0.018412 1.095459
v -0.953320 0.016538 2.258331
v -1.192700 0.008214 2.484415
v -1.499335 -0.002518 1.222092
v -1.528561 0.147785 1.222092
v -0.604760 0.175178 2.104465
v -0.626148 0.158516 3.533537
v -0.948027 0.162994 3.043458
v -0.575855 0.024875 2.098977
v -0.597242 0.008214 3.528049
v -0.918802 0.012692 3.043458
v -0.191192 0.140574 2.677095
v -0.184900 0.150973 4.056996
v -0.186460 -0.000207 2.671607
v -0.180168 0.010192 4.051507
v -0.192835 0.200294 -3.224740
v -0.151441 0.956914 -2.660632
v -0.192835 1.046667 -3.224740
v -0.192835 0.354503 -3.224740
v -0.192835 0.684897 -3.224740
v -1.258539 0.004884 1.184602
v -0.972935 0.018498 1.135392
v -0.933644 0.216733 1.131573
v -1.287764 0.194291 1.186950
v -0.291906 0.871084 0.689086
v -0.174003 0.498479 1.252937
v -0.174003 1.007805 0.486815
v -0.291906 0.695551 0.925694
v -0.151441 0.956914 -3.224740
v -0.151441 0.399007 -3.224740
v -0.151441 0.665315 -3.224740
v -0.151441 0.665315 -2.660632
v -0.151441 0.399007 -2.660632
v -0.151441 0.274709 -2.660632
v -1.325373 0.573505 -1.288305
v -1.320704 0.579115 0.024812
v -1.343389 0.412830 -1.288305
v -1.340590 0.414700 0.170684
v -0.631009 0.689815 -1.292402
v -1.023006 0.579180 0.031809
v -0.979329 0.426452 0.175591
v -0.529271 0.835450 -2.539322
v -0.647170 0.837618 -2.536888
v -0.845573 0.841265 -2.532791
v -0.772568 1.063305 -2.532791
v -0.647429 1.059560 -2.532791
v -0.515631 0.956346 -2.539322
v -1.070357 0.524903 0.081556
v -1.090028 0.593688 0.016800
v -1.009258 0.311253 0.282692
v -1.250769 0.311253 0.282692
v -1.245840 0.524865 0.077432
v -1.257562 0.427948 0.163419
v -1.044611 0.434875 0.166311
v -1.070357 0.524903 -1.018275
v -1.090028 0.593688 -1.083031
v -1.009258 0.311253 -0.817139
v -1.250769 0.311253 -0.817139
v -1.245840 0.524865 -1.022399
v -1.257562 0.427948 -0.936413
v -1.044611 0.434875 -0.933520
vn 0.7229 0.5549 0.4117
vn -0.0000 0.5389 0.8424
vn -0.0000 0.9957 0.0921
vn 0.7652 0.3469 0.5423
vn 0.7059 0.7053 0.0653
vn -0.0000 0.8405 0.5418
vn -0.6437 0.6432 0.4146
vn -0.7652 0.3469 0.5423
vn -0.7059 0.7053 0.0653
vn -0.0000 -0.0000 -1.0000
vn 0.8543 -0.5174 0.0494
vn -0.0000 -1.0000 -0.0000
vn 0.7581 0.6522 0.0008
vn 1.0000 -0.0000 -0.0000
vn 0.9960 0.0716 0.0531
vn 0.9894 -0.1327 0.0587
vn -0.0000 -0.5591 0.8291
vn -0.9357 0.2863 -0.2060
vn -0.0000 1.0000 -0.0000
vn -0.0000 0.6999 -0.7142
vn 0.8529 -0.0203 0.5218
vn 0.8697 0.1613 0.4665
vn -0.0000 0.8562 0.5166
vn -0.0000 -0.0000 1.0000
vn -0.0000 0.5899 0.8075
vn -0.9989 -0.0375 -0.0278
vn -0.8976 -0.1768 0.4037
vn 0.8554 -0.5180 -0.0000
vn -0.0216 0.9998 -0.0000
vn -0.4922 0.8705 -0.0000
vn 0.9880 0.1544 -0.0000
vn -0.9257 -0.3781 -0.0000
vn -0.1890 0.9820 -0.0000
vn 0.9929 -0.1189 -0.0000
vn 0.0109 0.0005 0.9999
vn 0.0056 -0.0075 1.0000
vn 0.5302 -0.0635 0.8455
vn 0.4909 -0.0000 0.8712
vn -0.9538 0.3004 -0.0000
vn 0.4773 -0.8787 -0.0000
vn 0.5966 0.8026 -0.0000
vn -0.0933 -0.9956 -0.0000
vn 0.0139 -0.9774 -0.2111
vn -0.4924 0.8702 0.0167
vn 0.0149 -0.9775 -0.2106
vn 0.9615 -0.2750 -0.0000
vn 0.0256 0.0057 -0.9997
vn -0.7232 -0.6907 -0.0000
vn -0.0036 -1.0000 -0.0000
vn -0.0537 -0.9986 -0.0005
vn 0.0585 0.9978 0.0305
vn -0.9765 -0.2153 -0.0000
vn -0.0192 -0.9998 -0.0000
vn 0.0084 -0.0013 1.0000
vn 0.9806 -0.1907 0.0462
vn 0.1909 0.9816 0.0090
vn -0.0036 -0.9999 -0.0116
vn 0.9545 -0.1856 0.2334
vn -0.9815 0.1539 0.1139
vn -0.0309 -0.9995 0.0010
vn 0.9779 -0.1901 0.0875
vn 0.1779 0.9834 0.0361
vn -0.0472 -0.9989 -0.0026
vn -0.8031 0.1752 -0.5695
vn 0.8257 -0.1605 0.5408
vn 0.1531 0.9859 0.0671
vn 0.8841 -0.1719 0.4345
vn -0.9827 0.1541 -0.1032
vn -0.0289 -0.9996 -0.0062
vn 0.2427 0.9698 0.0217
vn -0.0520 0.9986 0.0010
vn -0.9994 0.0338 -0.0048
vn 0.0462 -0.9989 -0.0123
vn -0.0262 0.9996 -0.0077
vn 0.7810 -0.0505 0.6225
vn 0.0038 0.9999 0.0116
vn 0.9464 0.3222 0.0241
vn -0.0537 -0.9986 -0.0025
vn 0.1844 0.9822 0.0364
vn -0.0036 -1.0000 -0.0047
vn -0.0212 -0.9998 -0.0021
vn -0.0558 0.9982 0.0238
vn -1.0000 -0.0000 -0.0000
vn -0.3820 0.7422 0.5506
vn -0.0370 0.8474 0.5297
vn 0.7577 0.6526 -0.0006
vn -0.3580 0.6634 0.6571
vn 0.8794 0.4652 -0.1012
vn 0.4570 0.8894 0.0116
vn 0.9938 0.1114 0.0031
vn 0.9973 -0.0729 0.0020
vn -0.0299 0.9996 -0.0004
vn -0.9750 -0.1524 -0.1616
vn 0.0178 0.6834 0.7299
vn 0.0157 0.6830 0.7303
vn 0.0090 -0.0014 -1.0000
vn 0.0155 -0.0084 -0.9998
vn -0.0186 0.9998 0.0016
vn 0.0232 0.0052 -0.9997
vn -0.9840 -0.1110 -0.1392
vn -0.4350 0.8979 -0.0680
vn 0.0115 -0.9999 -0.0023
vn 0.9436 0.3102 -0.1157
vn 0.0184 -0.9998 0.0002
vn -0.4040 -0.9147 -0.0000
vn -0.9983 0.0581 -0.0000
vn 0.0524 0.7123 0.6999
vn -0.0000 0.6909 0.7229
vn 0.0411 0.6659 0.7449
vn 0.0321 0.6802 0.7323
vn 0.0173 0.6827 0.7305
vn -0.0000 0.6855 0.7281
vn -0.9928 -0.1201 -0.0000
vn -0.8543 -0.5174 0.0494
vn -0.7621 0.6475 -0.0000
vn -0.9880 0.1544 -0.0001
vn -0.9915 -0.1188 0.0525
vn 0.9369 -0.0190 -0.3490
vn -0.8529 -0.0203 0.5218
vn -0.8697 0.1613 0.4665
vn 0.9989 -0.0375 -0.0278
vn 0.8976 -0.1768 0.4037
vn -0.8554 -0.5180 -0.0000
vn 0.0216 0.9998 -0.0000
vn 0.4922 0.8705 -0.0000
vn -0.9880 0.1544 -0.0000
vn 0.9257 -0.3781 -0.0000
vn 0.1890 0.9820 -0.0000
vn -0.9929 -0.1189 -0.0000
vn -0.0043 0.0062 1.0000
vn -0.0076 -0.0003 1.0000
vn -0.5302 -0.0635 0.8455
vn -0.5312 0.0830 0.8431
vn 0.9538 0.3004 -0.0000
vn -0.4773 -0.8787 -0.0000
vn -0.5966 0.8026 -0.0000
vn 0.0933 -0.9956 -0.0000
vn -0.0149 -0.9773 -0.2113
vn 0.4924 0.8702 0.0167
vn -0.0149 -0.9775 -0.2106
vn -0.9615 -0.2750 -0.0000
vn -0.0256 0.0057 -0.9997
vn 0.7232 -0.6907 -0.0000
vn 0.0036 -1.0000 -0.0000
vn 0.0537 -0.9986 -0.0005
vn 0.9765 -0.2153 -0.0000
vn 0.0192 -0.9998 -0.0000
vn -0.0093 0.0020 1.0000
vn -0.9806 -0.1907 0.0462
vn -0.2414 0.9704 -0.0000
vn 0.0036 -0.9999 -0.0116
vn -0.9545 -0.1856 0.2334
vn 0.9810 0.1565 0.1145
vn 0.0309 -0.9995 0.0010
vn -0.9778 -0.1901 0.0875
vn -0.0634 0.9980 -0.0007
vn 0.0472 -0.9989 -0.0026
vn 0.8031 0.1752 -0.5695
vn -0.8257 -0.1605 0.5408
vn -0.1531 0.9859 0.0671
vn -0.8841 -0.1719 0.4345
vn 0.9827 0.1541 -0.1032
vn 0.0289 -0.9996 -0.0062
vn -0.1844 0.9822 0.0364
vn 0.0393 0.9992 0.0046
vn 0.9994 0.0338 -0.0048
vn -0.0462 -0.9989 -0.0123
vn 0.0660 0.9977 0.0126
vn -0.7549 -0.1683 0.6339
vn -0.0038 0.9999 0.0116
vn -0.9464 0.3222 0.0241
vn 0.0537 -0.9986 -0.0025
vn 0.0036 -1.0000 -0.0047
vn 0.0193 -0.9998 -0.0017
vn 0.0212 -0.9998 -0.0021
vn 0.0558 0.9982 0.0238
vn 0.3820 0.7422 0.5506
vn 0.0370 0.8474 0.5297
vn -0.7577 0.6526 -0.0006
vn 0.3580 0.6634 0.6571
vn -0.9070 0.4130 -0.0825
vn -0.4048 0.9144 -0.0025
vn -0.9926 0.1216 0.0017
vn -0.9983 -0.0581 -0.0000
vn 0.0186 0.9998 0.0023
vn 0.9750 -0.1524 -0.1616
vn -0.0178 0.6833 0.7299
vn -0.0157 0.6830 0.7303
vn -0.0003 -0.0085 -1.0000
vn -0.0155 -0.0084 -0.9998
vn 0.0216 0.9998 0.0007
vn -0.0232 0.0052 -0.9997
vn 0.9725 -0.1765 -0.1520
vn 0.4350 0.8979 -0.0680
vn -0.0115 -0.9999 -0.0023
vn -0.8702 0.4603 -0.1757
vn -0.0114 -0.9999 0.0016
vn 0.4040 -0.9147 -0.0000
vn 0.9983 0.0581 -0.0000
vn -0.0524 0.7123 0.6999
vn -0.0411 0.6659 0.7449
vn -0.0177 0.6648 0.7469
vn -0.0173 0.6827 0.7305
vn 0.9928 -0.1201 -0.0000
vn -0.0000 1.0000 0.0012
vn 0.6437 0.6432 0.4146
vn -0.7229 0.5549 0.4117
vn 0.9185 -0.3954 0.0066
vn 0.7621 0.6475 -0.0000
vn 0.9880 0.1544 -0.0001
vn 0.9915 -0.1188 0.0525
vn -0.9369 -0.0190 -0.3490
vn 0.0043 0.0062 1.0000
vn 0.0076 -0.0003 1.0000
vn 0.5312 0.0830 0.8431
vn 0.0149 -0.9773 -0.2113
vn -0.4376 0.8992 -0.0037
vn 0.0233 -0.0037 -0.9997
vn -0.0034 -1.0000 -0.0000
vn -0.0565 -0.9984 -0.0000
vn -0.0150 -0.9999 -0.0007
vn 0.0093 0.0020 1.0000
vn 0.2414 0.9704 -0.0000
vn -0.0196 -0.9998 -0.0058
vn -0.9810 0.1565 0.1145
vn 0.9778 -0.1901 0.0875
vn 0.0634 0.9980 -0.0007
vn -0.0355 -0.9994 0.0008
vn -0.8269 0.0496 -0.5601
vn 0.8207 -0.1777 0.5430
vn -0.9755 0.1916 -0.1084
vn -0.0393 0.9992 0.0046
vn 0.0047 -1.0000 0.0076
vn -0.0660 0.9977 0.0126
vn 0.7549 -0.1683 0.6339
vn -0.1507 0.9862 0.0679
vn 0.9101 0.4144 -0.0000
vn 0.9373 0.3484 -0.0000
vn -0.0476 -0.9989 0.0001
vn 0.0007 -1.0000 -0.0030
vn -0.0193 -0.9998 -0.0017
vn -0.0006 -1.0000 0.0064
vn -0.1215 0.9926 0.0013
vn -0.2281 0.8682 0.4407
vn 0.9070 0.4130 -0.0825
vn 0.4048 0.9144 -0.0025
vn 0.9926 0.1216 0.0017
vn 0.9983 -0.0581 -0.0000
vn -0.0186 0.9998 0.0023
vn -0.9714 -0.1763 -0.1592
vn 0.0178 0.6833 0.7299
vn 0.0003 -0.0085 -1.0000
vn 0.0090 -0.0011 -1.0000
vn -0.0216 0.9998 0.0007
vn 0.0206 0.0023 -0.9998
vn -0.0020 0.0656 -0.9978
vn 0.0205 0.0067 -0.9998
vn -0.9725 -0.1765 -0.1520
vn -0.6163 0.7875 -0.0081
vn 0.8702 0.4603 -0.1757
vn 0.0114 -0.9999 0.0016
vn 0.0177 0.6648 0.7469
vn 0.0327 0.7135 0.6999
vn -0.9185 -0.3954 0.0066
vn -0.7581 0.6522 0.0008
vn -0.9960 0.0716 0.0531
vn -0.9894 -0.1327 0.0587
vn 0.9357 0.2863 -0.2060
vn -0.0109 0.0005 0.9999
vn -0.0056 -0.0075 1.0000
vn -0.4909 -0.0000 0.8712
vn -0.0139 -0.9774 -0.2111
vn 0.4376 0.8992 -0.0037
vn -0.6155 -0.4924 -0.6155
vn -0.0232 -0.0037 -0.9997
vn 0.0034 -1.0000 -0.0000
vn 0.0565 -0.9984 -0.0000
vn -0.0585 0.9978 0.0305
vn 0.0150 -0.9999 -0.0007
vn -0.0084 -0.0013 1.0000
vn -0.1909 0.9816 0.0090
vn 0.0196 -0.9998 -0.0058
vn 0.9815 0.1539 0.1139
vn -0.9779 -0.1901 0.0875
vn -0.1779 0.9834 0.0361
vn 0.0355 -0.9994 0.0008
vn 0.8269 0.0496 -0.5601
vn -0.8207 -0.1777 0.5430
vn 0.9755 0.1916 -0.1084
vn -0.2427 0.9698 0.0217
vn 0.0520 0.9986 0.0010
vn -0.0047 -1.0000 0.0076
vn 0.0262 0.9996 -0.0077
vn -0.7810 -0.0505 0.6225
vn 0.1507 0.9862 0.0679
vn -0.9101 0.4144 -0.0000
vn -0.9373 0.3484 -0.0000
vn 0.0476 -0.9989 0.0001
vn -0.0007 -1.0000 -0.0030
vn 0.0006 -1.0000 0.0064
vn 0.1215 0.9926 0.0013
vn 0.2281 0.8682 0.4407
vn -0.8794 0.4652 -0.1012
vn -0.4570 0.8894 0.0116
vn -0.9938 0.1114 0.0031
vn -0.9973 -0.0729 0.0020
vn 0.0299 0.9996 -0.0004
vn 0.9714 -0.1763 -0.1592
vn -0.0178 0.6834 0.7299
vn -0.0090 -0.0014 -1.0000
vn -0.0090 -0.0011 -1.0000
vn 0.0186 0.9998 0.0016
vn -0.0206 0.0023 -0.9998
vn -0.0205 0.0067 -0.9998
vn 0.0020 0.0656 -0.9978
vn 0.9840 -0.1110 -0.1392
vn 0.6163 0.7875 -0.0081
vn -0.0184 -0.9998 0.0002
vn -0.9436 0.3102 -0.1157
vn -0.0321 0.6802 0.7323
vn -0.0327 0.7135 0.6999
s 0
usemtl Black.003
f 20//1 22//1 21//1
f 160//2 22//2 158//2
f 155//3 23//3 159//3
f 21//4 22//4 24//4
f 20//5 23//5 19//5
f 158//6 19//6 155//6
f 156//7 158//7 155//7
f 157//8 160//8 158//8
f 156//9 155//9 159//9
f 20//206 19//206 22//206
f 160//2 24//2 22//2
f 155//3 19//3 23//3
f 158//6 22//6 19//6
f 156//207 157//207 158//207
usemtl White.004
f 15//10 13//10 5//10
f 16//11 4//11 14//11
f 140//12 5//12 4//12
f 240//10 93//10 104//10
f 1//13 3//13 6//13
f 227//12 5//12 141//12
f 9//14 93//14 3//14
f 5//14 94//14 15//14
f 8//15 12//15 10//15
f 14//16 10//16 16//16
f 2//10 9//10 3//10
f 159//17 102//17 238//17
f 101//18 21//18 24//18
f 229//19 3//19 93//19
f 160//20 101//20 24//20
f 16//21 17//21 11//21
f 16//22 10//22 17//22
f 237//23 17//23 101//23
f 147//24 17//24 153//24
f 28//10 66//10 62//10
f 9//10 13//10 15//10
f 238//25 6//25 142//25
f 103//26 20//26 21//26
f 100//27 23//27 20//27
f 5//28 14//28 4//28
f 154//10 91//10 227//10
f 32//24 42//24 34//24
f 26//29 30//29 25//29
f 8//24 37//24 36//24
f 1//30 25//30 2//30
f 26//24 39//24 31//24
f 33//10 68//10 66//10
f 32//24 39//24 41//24
f 36//31 27//31 35//31
f 39//32 49//32 41//32
f 42//33 48//33 40//33
f 37//34 43//34 36//34
f 8//24 35//24 1//24
f 26//35 35//35 38//35
f 29//24 42//24 40//24
f 14//36 40//36 37//36
f 46//24 50//24 49//24
f 44//37 46//37 43//37
f 27//38 46//38 45//38
f 46//24 47//24 45//24
f 41//39 50//39 42//39
f 38//40 27//40 45//40
f 40//41 44//41 37//41
f 38//42 47//42 39//42
f 114//43 55//43 51//43
f 25//44 56//44 2//44
f 114//45 52//45 57//45
f 32//46 116//46 115//46
f 28//47 61//47 13//47
f 63//48 62//48 64//48
f 62//49 65//49 64//49
f 66//50 67//50 65//50
f 59//51 98//51 99//51
f 13//52 63//52 14//52
f 68//53 71//53 67//53
f 29//54 63//54 64//54
f 69//55 72//55 70//55
f 60//10 72//10 68//10
f 60//56 69//56 70//56
f 84//57 86//57 85//57
f 75//58 79//58 80//58
f 29//59 76//59 73//59
f 78//60 96//60 79//60
f 71//61 80//61 79//61
f 99//62 74//62 75//62
f 96//63 77//63 97//63
f 84//64 87//64 81//64
f 82//65 86//65 83//65
f 75//66 74//66 83//66
f 78//67 83//67 86//67
f 76//68 81//68 73//68
f 77//69 78//69 86//69
f 59//70 80//70 69//70
f 34//71 73//71 98//71
f 87//72 90//72 88//72
f 85//73 89//73 84//73
f 82//74 87//74 88//74
f 85//75 88//75 90//75
f 95//10 105//10 106//10
f 94//10 18//10 105//10
f 95//10 104//10 93//10
f 15//14 95//14 9//14
f 11//12 140//12 4//12
f 83//76 81//76 82//76
f 31//77 58//77 57//77
f 67//78 97//78 65//78
f 99//79 75//79 80//79
f 65//80 76//80 64//80
f 67//60 79//60 96//60
f 84//81 97//81 77//81
f 81//82 98//82 73//82
f 18//83 108//83 105//83
f 12//84 103//84 10//84
f 228//12 104//12 92//12
f 10//85 101//85 17//85
f 1//86 6//86 12//86
f 105//83 107//83 106//83
f 12//87 102//87 100//87
f 243//10 92//10 107//10
f 245//19 18//19 154//19
f 245//10 108//10 109//10
f 244//10 107//10 108//10
f 106//83 92//83 104//83
f 30//88 52//88 53//88
f 58//89 110//89 57//89
f 111//90 112//90 110//90
f 113//91 60//91 112//91
f 54//92 120//92 121//92
f 2//93 55//93 7//93
f 111//94 124//94 127//94
f 115//95 124//95 58//95
f 116//95 123//95 115//95
f 33//96 114//96 57//96
f 13//97 114//97 28//97
f 33//10 110//10 112//10
f 25//98 53//98 54//98
f 122//99 120//99 118//99
f 55//100 122//100 117//100
f 54//101 122//101 56//101
f 51//102 119//102 52//102
f 53//103 119//103 120//103
f 51//104 117//104 118//104
f 124//46 130//46 131//46
f 124//105 134//105 127//105
f 128//106 133//106 126//106
f 113//107 126//107 59//107
f 59//108 125//108 34//108
f 113//109 127//109 128//109
f 116//95 125//95 129//95
f 135//110 130//110 136//110
f 134//111 131//111 130//111
f 133//112 136//112 132//112
f 129//46 132//46 136//46
f 127//113 135//113 128//113
f 126//19 132//19 125//19
f 123//46 136//46 130//46
f 151//10 141//10 149//10
f 140//114 152//114 150//114
f 137//115 139//115 138//115
f 229//83 145//83 139//83
f 230//83 141//83 151//83
f 144//116 148//116 137//116
f 150//117 146//117 144//117
f 145//10 138//10 139//10
f 237//118 157//118 239//118
f 152//119 147//119 153//119
f 152//120 153//120 146//120
f 164//10 202//10 169//10
f 145//10 149//10 143//10
f 239//121 156//121 236//121
f 236//122 159//122 238//122
f 150//123 141//123 140//123
f 178//24 168//24 170//24
f 166//124 162//124 161//124
f 144//24 173//24 150//24
f 161//125 137//125 138//125
f 175//24 162//24 167//24
f 169//10 204//10 196//10
f 168//24 175//24 167//24
f 163//126 172//126 171//126
f 185//127 175//127 177//127
f 184//128 178//128 176//128
f 179//129 173//129 172//129
f 171//24 144//24 137//24
f 162//130 171//130 137//130
f 165//24 178//24 170//24
f 150//131 176//131 165//131
f 182//24 186//24 184//24
f 182//132 180//132 179//132
f 163//133 182//133 179//133
f 183//24 182//24 181//24
f 186//134 177//134 178//134
f 174//135 163//135 171//135
f 180//136 176//136 173//136
f 183//137 174//137 175//137
f 250//138 191//138 143//138
f 192//139 161//139 138//139
f 188//140 250//140 193//140
f 251//141 170//141 168//141
f 197//142 164//142 149//142
f 199//143 198//143 197//143
f 201//144 198//144 200//144
f 203//145 202//145 201//145
f 195//19 234//19 170//19
f 199//146 149//146 150//146
f 207//147 204//147 203//147
f 165//148 199//148 150//148
f 208//149 205//149 206//149
f 208//10 196//10 204//10
f 196//150 205//150 195//150
f 222//151 220//151 221//151
f 211//152 215//152 214//152
f 165//153 212//153 200//153
f 214//154 215//154 232//154
f 207//155 216//155 205//155
f 235//156 210//156 234//156
f 213//157 232//157 233//157
f 223//158 220//158 217//158
f 222//159 218//159 219//159
f 211//160 219//160 210//160
f 214//161 219//161 211//161
f 217//162 212//162 209//162
f 213//163 222//163 214//163
f 195//164 216//164 235//164
f 170//165 209//165 165//165
f 226//166 223//166 224//166
f 225//167 221//167 220//167
f 218//168 223//168 217//168
f 221//169 224//169 218//169
f 231//10 241//10 230//10
f 230//10 154//10 227//10
f 240//10 231//10 229//10
f 231//83 151//83 145//83
f 217//170 219//170 218//170
f 193//171 194//171 167//171
f 233//172 203//172 201//172
f 235//164 216//164 211//164
f 212//173 201//173 200//173
f 203//174 215//174 207//174
f 233//175 220//175 213//175
f 234//176 217//176 209//176
f 244//14 154//14 241//14
f 239//177 148//177 146//177
f 237//178 146//178 153//178
f 137//179 148//179 142//179
f 243//14 241//14 242//14
f 148//180 238//180 142//180
f 228//14 242//14 240//14
f 166//181 188//181 193//181
f 194//182 246//182 247//182
f 247//183 248//183 249//183
f 249//184 196//184 195//184
f 190//185 256//185 189//185
f 191//186 138//186 143//186
f 247//187 260//187 194//187
f 260//188 251//188 194//188
f 259//188 252//188 251//188
f 169//189 250//189 164//189
f 250//190 149//190 164//190
f 248//10 193//10 169//10
f 161//191 189//191 166//191
f 254//192 256//192 258//192
f 191//193 258//193 192//193
f 258//194 190//194 192//194
f 255//195 187//195 188//195
f 189//196 255//196 188//196
f 187//197 253//197 191//197
f 260//141 266//141 259//141
f 270//198 260//198 263//198
f 269//199 264//199 262//199
f 262//200 249//200 195//200
f 261//108 195//108 170//108
f 249//201 263//201 247//201
f 252//188 261//188 170//188
f 271//202 266//202 270//202
f 270//203 266//203 267//203
f 272//112 269//112 268//112
f 265//141 268//141 261//141
f 271//204 263//204 264//204
f 268//19 262//19 261//19
f 259//141 272//141 265//141
f 6//205 139//205 142//205
f 16//208 11//208 4//208
f 140//12 141//12 5//12
f 240//10 229//10 93//10
f 1//209 2//209 3//209
f 227//12 91//12 5//12
f 9//14 95//14 93//14
f 5//14 91//14 94//14
f 8//210 1//210 12//210
f 14//211 8//211 10//211
f 2//10 7//10 9//10
f 159//17 23//17 102//17
f 101//212 103//212 21//212
f 229//19 139//19 3//19
f 160//20 237//20 101//20
f 237//23 153//23 17//23
f 147//24 11//24 17//24
f 28//10 33//10 66//10
f 9//10 7//10 13//10
f 238//25 102//25 6//25
f 103//26 100//26 20//26
f 100//27 102//27 23//27
f 5//28 13//28 14//28
f 154//10 18//10 91//10
f 32//24 41//24 42//24
f 26//29 31//29 30//29
f 8//24 14//24 37//24
f 1//30 26//30 25//30
f 26//24 38//24 39//24
f 33//10 60//10 68//10
f 32//24 31//24 39//24
f 36//31 43//31 27//31
f 39//32 47//32 49//32
f 42//33 50//33 48//33
f 37//34 44//34 43//34
f 8//24 36//24 35//24
f 26//213 1//213 35//213
f 29//24 34//24 42//24
f 14//214 29//214 40//214
f 46//24 48//24 50//24
f 44//38 48//38 46//38
f 27//215 43//215 46//215
f 46//24 49//24 47//24
f 41//39 49//39 50//39
f 38//40 35//40 27//40
f 40//41 48//41 44//41
f 38//42 45//42 47//42
f 114//216 7//216 55//216
f 25//217 54//217 56//217
f 114//43 51//43 52//43
f 115//46 58//46 32//46
f 32//46 34//46 116//46
f 28//218 62//218 61//218
f 63//48 61//48 62//48
f 62//219 66//219 65//219
f 66//220 68//220 67//220
f 59//19 34//19 98//19
f 13//52 61//52 63//52
f 68//221 72//221 71//221
f 29//222 14//222 63//222
f 69//55 71//55 72//55
f 60//10 70//10 72//10
f 60//223 59//223 69//223
f 84//224 77//224 86//224
f 75//58 78//58 79//58
f 29//225 64//225 76//225
f 71//226 69//226 80//226
f 99//227 98//227 74//227
f 96//228 78//228 77//228
f 84//229 89//229 87//229
f 82//230 85//230 86//230
f 78//67 75//67 83//67
f 76//231 84//231 81//231
f 59//79 99//79 80//79
f 34//232 29//232 73//232
f 87//72 89//72 90//72
f 85//233 90//233 89//233
f 82//234 81//234 87//234
f 85//235 82//235 88//235
f 95//10 94//10 105//10
f 94//10 91//10 18//10
f 95//10 106//10 104//10
f 15//14 94//14 95//14
f 11//12 147//12 140//12
f 83//236 74//236 81//236
f 57//237 30//237 31//237
f 31//238 32//238 58//238
f 67//239 96//239 97//239
f 65//240 97//240 76//240
f 67//241 71//241 79//241
f 84//242 76//242 97//242
f 81//243 74//243 98//243
f 18//83 109//83 108//83
f 12//84 100//84 103//84
f 228//12 240//12 104//12
f 10//244 103//244 101//244
f 105//83 108//83 107//83
f 12//87 6//87 102//87
f 243//10 228//10 92//10
f 245//19 109//19 18//19
f 245//10 244//10 108//10
f 244//10 243//10 107//10
f 106//83 107//83 92//83
f 30//245 57//245 52//245
f 58//246 111//246 110//246
f 111//247 113//247 112//247
f 113//248 59//248 60//248
f 54//249 53//249 120//249
f 2//250 56//250 55//250
f 111//251 58//251 124//251
f 115//95 123//95 124//95
f 116//95 129//95 123//95
f 33//252 28//252 114//252
f 13//253 7//253 114//253
f 112//10 60//10 33//10
f 33//10 57//10 110//10
f 25//254 30//254 53//254
f 118//255 117//255 122//255
f 122//256 121//256 120//256
f 120//257 119//257 118//257
f 55//258 56//258 122//258
f 54//259 121//259 122//259
f 51//104 118//104 119//104
f 53//260 52//260 119//260
f 51//261 55//261 117//261
f 124//46 123//46 130//46
f 124//105 131//105 134//105
f 128//106 135//106 133//106
f 113//107 128//107 126//107
f 59//108 126//108 125//108
f 113//109 111//109 127//109
f 116//95 34//95 125//95
f 135//262 134//262 130//262
f 133//263 135//263 136//263
f 129//46 125//46 132//46
f 127//113 134//113 135//113
f 126//19 133//19 132//19
f 123//46 129//46 136//46
f 140//264 147//264 152//264
f 137//265 142//265 139//265
f 229//83 231//83 145//83
f 230//83 227//83 141//83
f 144//266 146//266 148//266
f 150//267 152//267 146//267
f 145//10 143//10 138//10
f 237//268 160//268 157//268
f 164//10 198//10 202//10
f 145//10 151//10 149//10
f 239//121 157//121 156//121
f 236//122 156//122 159//122
f 150//123 149//123 141//123
f 178//24 177//24 168//24
f 166//124 167//124 162//124
f 144//24 172//24 173//24
f 161//125 162//125 137//125
f 175//24 174//24 162//24
f 169//10 202//10 204//10
f 168//24 177//24 175//24
f 163//126 179//126 172//126
f 185//127 183//127 175//127
f 184//128 186//128 178//128
f 179//129 180//129 173//129
f 171//24 172//24 144//24
f 162//269 174//269 171//269
f 165//24 176//24 178//24
f 150//270 173//270 176//270
f 182//24 185//24 186//24
f 182//271 184//271 180//271
f 163//271 181//271 182//271
f 183//24 185//24 182//24
f 186//134 185//134 177//134
f 174//135 181//135 163//135
f 180//136 184//136 176//136
f 183//137 181//137 174//137
f 250//272 187//272 191//272
f 192//273 190//273 161//273
f 188//272 187//272 250//272
f 168//141 194//141 251//141
f 251//274 252//274 170//274
f 197//275 198//275 164//275
f 199//143 200//143 198//143
f 201//276 202//276 198//276
f 203//277 204//277 202//277
f 195//278 235//278 234//278
f 199//146 197//146 149//146
f 207//279 208//279 204//279
f 165//280 200//280 199//280
f 208//149 207//149 205//149
f 208//10 206//10 196//10
f 196//281 206//281 205//281
f 222//282 213//282 220//282
f 211//152 216//152 215//152
f 165//283 209//283 212//283
f 207//284 215//284 216//284
f 235//285 211//285 210//285
f 213//286 214//286 232//286
f 223//287 225//287 220//287
f 222//288 221//288 218//288
f 214//161 222//161 219//161
f 217//289 220//289 212//289
f 195//290 205//290 216//290
f 170//291 234//291 209//291
f 226//166 225//166 223//166
f 225//292 226//292 221//292
f 218//293 224//293 223//293
f 221//294 226//294 224//294
f 231//10 242//10 241//10
f 230//10 241//10 154//10
f 240//10 242//10 231//10
f 231//83 230//83 151//83
f 217//295 210//295 219//295
f 167//296 166//296 193//296
f 194//297 168//297 167//297
f 233//298 232//298 203//298
f 212//299 233//299 201//299
f 203//154 232//154 215//154
f 233//300 212//300 220//300
f 234//301 210//301 217//301
f 244//14 245//14 154//14
f 239//177 236//177 148//177
f 237//302 239//302 146//302
f 243//14 244//14 241//14
f 148//180 236//180 238//180
f 228//14 243//14 242//14
f 166//303 189//303 188//303
f 194//304 193//304 246//304
f 247//305 246//305 248//305
f 249//306 248//306 196//306
f 190//307 257//307 256//307
f 191//308 192//308 138//308
f 247//309 263//309 260//309
f 260//188 259//188 251//188
f 259//188 265//188 252//188
f 169//310 193//310 250//310
f 250//311 143//311 149//311
f 169//10 196//10 248//10
f 248//10 246//10 193//10
f 161//312 190//312 189//312
f 258//313 253//313 254//313
f 254//314 255//314 256//314
f 256//315 257//315 258//315
f 191//316 253//316 258//316
f 258//317 257//317 190//317
f 255//318 254//318 187//318
f 189//319 256//319 255//319
f 187//318 254//318 253//318
f 260//141 267//141 266//141
f 270//198 267//198 260//198
f 269//199 271//199 264//199
f 262//200 264//200 249//200
f 261//108 262//108 195//108
f 249//201 264//201 263//201
f 252//188 265//188 261//188
f 271//320 272//320 266//320
f 272//321 271//321 269//321
f 265//141 272//141 268//141
f 271//204 270//204 263//204
f 268//19 269//19 262//19
f 259//141 266//141 272//141
f 6//205 3//205 139//205
