# Blender 4.0.2
# www.blender.org
mtllib spaceship3.mtl
o Cube
v 1.000000 1.000000 -1.000000
v 1.000000 -1.000000 -1.000000
v 1.000000 1.000000 1.000000
v 1.000000 -1.000000 1.000000
v -1.000000 1.000000 -1.000000
v -1.000000 -1.000000 -1.000000
v -1.000000 1.000000 1.000000
v -1.000000 -1.000000 1.000000
vn -0.0000 1.0000 -0.0000
vn -0.0000 -0.0000 1.0000
vn -1.0000 -0.0000 -0.0000
vn -0.0000 -1.0000 -0.0000
vn 1.0000 -0.0000 -0.0000
vn -0.0000 -0.0000 -1.0000
s 0
usemtl Material
f 5//1 3//1 1//1
f 3//2 8//2 4//2
f 7//3 6//3 8//3
f 2//4 8//4 6//4
f 1//5 4//5 2//5
f 5//6 2//6 6//6
f 5//1 7//1 3//1
f 3//2 7//2 8//2
f 7//3 5//3 6//3
f 2//4 4//4 8//4
f 1//5 3//5 4//5
f 5//6 1//6 2//6
o Spaceship3_Cube
v 0.770141 0.274935 1.357825
v 0.829216 0.474131 1.255501
v 0.767597 0.467590 1.787231
v 0.658484 0.010186 1.787231
v 1.024539 0.274935 1.329553
v 0.707943 0.847033 1.089716
v 0.773955 0.008040 0.414691
v 0.578596 -0.011735 2.408566
v 1.011783 0.847033 1.055949
v 0.986236 0.548308 0.370117
v 0.903683 0.482036 0.612912
v 0.906308 0.538183 0.414691
v 0.899041 0.548308 0.379807
v 0.567800 1.265309 1.787231
v 0.386977 -0.086537 0.414691
v 0.668213 0.414972 2.408566
v 0.344463 -0.096165 2.408566
v 1.131723 0.304666 1.309500
v 1.121011 0.785053 1.079757
v 0.774917 0.833784 0.217343
v 0.971664 0.833784 0.195478
v 1.026498 0.075794 1.371557
v 0.926653 0.484475 0.414691
v 0.630867 1.265309 0.414691
v 0.793175 0.836838 0.414691
v 0.764026 0.487610 -1.226344
v 0.499061 1.187078 -1.226344
v 0.381964 -0.084391 1.787231
v 0.280586 -0.043667 -1.226344
v 0.627239 0.041055 -1.226344
v 0.505352 -0.008407 3.029902
v 0.318587 -0.082690 3.029902
v 1.011550 1.171589 1.050962
v 1.120816 1.057580 1.075570
v 1.133367 0.137448 1.344771
v 1.056862 0.737303 0.340640
v 1.063985 0.556556 0.343248
v 0.986362 0.371615 0.372831
v 0.426948 1.504897 -1.249106
v 0.558753 1.583128 0.391928
v 0.836661 0.296774 0.115489
v 0.887416 0.455136 0.115489
v 0.754079 0.455136 -1.226344
v 0.418336 0.989103 -3.051088
v 0.331157 1.324431 1.753209
v 0.575917 0.961426 2.408566
v 0.705570 0.296774 -1.226344
v 0.215426 -0.041916 -3.051088
v 0.537381 0.036770 -3.051088
v 0.563035 0.362353 3.029902
v 1.598503 0.986488 1.054393
v 0.971431 1.158340 0.190491
v 1.022610 -0.098383 1.288170
v 1.130103 -0.008807 1.274751
v 1.068288 0.575193 0.447812
v 1.052558 0.718665 0.236076
v 1.064084 0.418005 0.345377
v 0.524554 1.372625 0.410882
v 0.394681 1.279212 -1.230826
v 0.350969 1.471860 -1.244624
v 0.308794 1.681698 0.391928
v 0.203035 1.593196 -1.249106
v 0.664423 0.489530 -3.051088
v 0.210375 1.071111 -3.051088
v 0.380907 1.363879 0.414691
v 0.331157 1.377792 1.753209
v 0.567800 1.318670 1.787231
v 0.575917 1.014787 2.408566
v 0.644079 0.296774 -2.356592
v 0.692020 0.455136 -2.356592
v 0.232393 0.096705 -3.051088
v 0.437593 0.157232 -3.051088
v 0.452116 -0.022366 3.541622
v 0.244612 -0.071431 3.541622
v 1.639177 0.737303 0.316609
v 1.665746 1.086924 1.025742
v 1.625627 1.073676 0.165271
v 0.931499 1.145153 -0.665980
v 0.931732 0.820597 -0.660994
v 1.715444 -0.012394 1.258520
v 1.068387 0.436642 0.449941
v 1.714285 0.833784 0.164831
v 1.634873 0.718665 0.212045
v 0.986445 0.256380 0.374602
v 1.064149 0.327645 0.346765
v 0.476576 1.550461 0.395738
v 0.358253 1.427780 0.410882
v 0.215243 1.525383 -1.244624
v 0.275148 1.251984 -1.226344
v 0.518564 0.505504 -3.051088
v 0.361719 0.855154 -3.051088
v 0.229174 0.918236 -3.051088
v 0.411932 1.382334 1.894459
v 0.499805 0.800727 3.029902
v 0.360505 0.923412 2.988126
v 0.360505 0.976773 2.988126
v 0.495513 1.153417 2.433106
v 0.232393 0.096705 -2.178818
v 0.437593 0.157232 -2.178818
v 0.510154 0.326440 3.541622
v 1.672948 0.785053 1.054023
v 1.754404 0.847033 1.025302
v 1.585695 1.060489 -0.691200
v 1.674353 0.820597 -0.691640
v 0.858225 1.120956 -2.237574
v 0.858457 0.796400 -2.232587
v 1.640234 0.063397 1.249855
v 1.679279 0.342369 0.344953
v 1.068452 0.346282 0.451329
v 1.728857 0.548308 0.339470
v 1.607424 0.395072 0.323516
v 0.258955 1.328056 -1.230826
v 0.310275 1.605616 0.395738
v 0.361719 1.005216 -2.178818
v 0.229174 1.068298 -2.178818
v 0.371120 1.313502 2.441453
v 0.210967 1.399001 1.867213
v 0.322735 1.123436 2.882315
v 0.518564 0.505504 -2.178818
v 0.274701 0.505504 -2.178818
v 0.267590 0.042123 5.974846
v 0.171750 0.021287 5.974846
v 1.650603 0.575193 0.423781
v 1.767160 0.274935 1.298906
v 1.683660 0.304666 1.283767
v 1.010827 1.191377 -0.670709
v 1.601079 0.796400 -2.263234
v 0.987616 1.289352 -2.244219
v 1.512421 1.036291 -2.262793
v 1.646299 0.556556 0.319217
v 1.769076 0.136517 1.339978
v 1.685268 0.188437 1.318254
v 1.728940 0.432338 0.341252
v 1.646364 0.465620 0.320614
v 1.611727 0.413709 0.428080
v 0.453539 0.660622 3.541622
v 0.281129 0.706372 3.516698
v 0.253571 1.228393 2.731887
v 0.267995 0.190247 5.974846
v 1.496538 1.129688 -0.688444
v 1.104825 1.364867 -0.675382
v 1.060890 1.443301 -0.672626
v 0.969969 1.135027 -2.242929
v 1.404289 1.078818 -2.259672
v 1.650668 0.484257 0.425179
v 0.196171 1.354242 2.480540
v 0.219793 0.099567 6.075058
v 0.165485 0.069968 6.074585
v 1.477801 1.358636 -0.697846
v 1.055872 1.211992 -2.247341
v 1.404527 1.204688 -2.269439
v 1.332659 1.155784 -2.264084
v 0.266723 0.359845 5.974846
v 0.171316 0.388636 5.974846
v 0.245162 0.192919 6.074664
v 1.420667 1.309810 -0.693117
v 0.183113 0.147292 6.123217
v 0.159125 0.131651 6.122967
v 0.228771 0.303487 6.074585
v 0.165169 0.337284 6.074585
v 0.191987 0.196621 6.123009
v 0.157010 0.196621 6.155749
v 0.187079 0.255046 6.122967
v 0.158986 0.272905 6.122967
v 1.614174 0.296774 0.115489
v 1.614174 0.455136 0.115489
v 1.614174 0.296774 -2.356592
v 2.245071 0.296774 0.115489
v 2.245071 0.455136 0.115489
v 1.614174 0.455136 -2.356592
v 2.245071 0.296774 -2.356592
v 2.160623 0.499434 0.115489
v 1.698622 0.499434 0.115489
v 2.785228 0.296774 -0.287798
v 2.785228 0.455136 -0.287798
v 1.699107 0.717928 0.115489
v 1.699107 0.717928 -2.356592
v 2.245071 0.455136 -2.356592
v 2.776357 0.296774 -2.356592
v 1.760818 0.691874 0.115489
v 2.160139 0.717928 0.115489
v 2.098428 0.691874 0.115489
v 2.141331 0.522013 -2.357759
v 1.717915 0.522013 -2.357759
v 2.776357 0.455136 -2.356592
v 3.453973 0.296774 -0.660088
v 3.453973 0.455136 -0.660088
v 1.774916 0.698381 -2.357759
v 1.790667 0.802408 0.115489
v 1.790667 0.802408 -2.356592
v 3.447088 0.296774 -2.356592
v 1.827866 0.753739 0.115489
v 2.160139 0.717928 -2.356592
v 2.068579 0.802408 0.115489
v 2.031379 0.753739 0.115489
v 2.084330 0.698381 -2.357759
v 3.447088 0.455136 -2.356592
v 4.764072 0.296774 -0.756608
v 1.836364 0.755079 -2.357759
v 2.068579 0.802408 -2.356592
v 4.764072 0.296774 -1.451182
v 2.022881 0.755079 -2.357759
v 4.775200 0.455136 -0.756608
v 4.775200 0.455136 -1.451182
v 4.750233 0.159378 -1.451182
v 4.750233 0.159378 -0.756608
v 4.838851 0.611012 -0.756608
v 4.838851 0.611012 -1.451182
v 4.764072 0.296774 -0.138161
v 4.775200 0.455136 -0.211231
v 4.775200 0.455136 -2.464832
v 4.764072 0.296774 -2.464832
v 4.750233 0.159378 -0.061245
v 4.750233 0.159378 -2.318691
v 4.783614 0.061975 -1.451182
v 4.783614 0.061975 -0.756608
v 4.838851 0.611012 -2.464832
v 4.838851 0.611012 -0.211231
v 5.102570 0.611012 -0.756608
v 5.102570 0.611012 -1.451182
v 4.822264 0.302428 -0.137728
v 4.830258 0.416203 -0.190225
v 4.775200 0.455136 -3.021496
v 4.764072 0.296774 -3.021496
v 4.783614 0.061975 -0.061245
v 4.812321 0.203717 -0.082468
v 4.783614 0.061975 -2.318691
v 5.177759 0.296774 -2.464832
v 5.191189 0.159378 -2.318691
v 5.157807 0.061975 -1.451182
v 5.157807 0.061975 -0.756608
v 5.102570 0.611012 -2.464832
v 4.838851 0.611012 -3.021496
v 5.102570 0.611012 -0.211231
v 4.875989 0.528191 -0.190225
v 5.166222 0.455136 -0.756608
v 5.166222 0.455136 -1.451182
v 4.832373 0.348827 -2.413387
v 4.839823 0.454863 -2.413387
v 5.177759 0.296774 -3.021496
v 4.839823 0.454863 -3.021496
v 4.832373 0.348827 -3.021496
v 5.157807 0.061975 -0.061245
v 4.836304 0.133738 -0.082468
v 4.812321 0.203717 -0.840548
v 5.157807 0.061975 -2.318691
v 5.177759 0.296774 -1.451182
v 5.191189 0.159378 -1.451182
v 5.191189 0.159378 -0.756608
v 5.166222 0.455136 -2.464832
v 5.102570 0.611012 -3.021496
v 4.882444 0.559233 -3.021496
v 5.166222 0.455136 -0.211231
v 5.065455 0.528191 -0.190225
v 4.882444 0.559233 -2.413387
v 5.177759 0.296774 -0.756608
v 5.166222 0.455136 -3.021496
v 5.109367 0.348827 -3.021496
v 5.191189 0.159378 -0.061245
v 5.105141 0.133738 -0.082468
v 5.059022 0.559233 -3.021496
v 5.177759 0.296774 -0.138161
v 5.111186 0.416203 -0.190225
v 5.059022 0.559233 -2.413387
v 5.109367 0.348827 -2.413387
v 5.101643 0.454863 -3.021496
v 5.129123 0.203717 -0.082468
v 5.119475 0.302428 -0.137728
v 5.101643 0.454863 -2.413387
v 5.129123 0.203717 -0.840548
v 5.109367 0.348827 -2.413387
v 4.832373 0.348827 -2.413387
v 4.812321 0.203717 -0.840548
v 5.129123 0.203717 -0.840548
v -0.770141 0.274935 1.357825
v -0.829216 0.474131 1.255501
v -0.767597 0.467590 1.787231
v -0.658484 0.010186 1.787231
v -1.024539 0.274935 1.329553
v -0.707943 0.847033 1.089716
v -0.773955 0.008040 0.414691
v -0.578596 -0.011735 2.408566
v -1.011783 0.847033 1.055949
v -0.986236 0.548308 0.370117
v -0.903683 0.482036 0.612912
v -0.906308 0.538183 0.414691
v -0.899041 0.548308 0.379807
v -0.567800 1.265309 1.787231
v -0.386977 -0.086537 0.414691
v -0.668213 0.414972 2.408566
v -0.344463 -0.096165 2.408566
v -1.131723 0.304666 1.309500
v -1.121011 0.785053 1.079757
v -0.774917 0.833784 0.217343
v -0.971664 0.833784 0.195478
v -1.026498 0.075794 1.371557
v -0.926653 0.484475 0.414691
v -0.630867 1.265309 0.414691
v -0.793175 0.836838 0.414691
v -0.764026 0.487610 -1.226344
v -0.499061 1.187078 -1.226344
v -0.381964 -0.084391 1.787231
v -0.280586 -0.043667 -1.226344
v -0.627239 0.041055 -1.226344
v -0.505352 -0.008407 3.029902
v -0.318587 -0.082690 3.029902
v -1.011550 1.171589 1.050962
v -1.120816 1.057580 1.075570
v -1.133367 0.137448 1.344771
v -1.056862 0.737303 0.340640
v -1.063985 0.556556 0.343248
v -0.986362 0.371615 0.372831
v -0.426948 1.504897 -1.249106
v -0.558753 1.583128 0.391928
v -0.836661 0.296774 0.115489
v -0.887416 0.455136 0.115489
v -0.754079 0.455136 -1.226344
v -0.418336 0.989103 -3.051088
v -0.331157 1.324431 1.753209
v -0.575917 0.961426 2.408566
v 0.000000 -0.145413 0.414691
v -0.705570 0.296774 -1.226344
v -0.215426 -0.041916 -3.051088
v -0.537381 0.036770 -3.051088
v -0.563035 0.362353 3.029902
v 0.000000 -0.144894 2.408566
v 0.000000 -0.121272 3.029902
v -1.598503 0.986488 1.054393
v -0.971431 1.158340 0.190491
v -1.022610 -0.098383 1.288170
v -1.130103 -0.008807 1.274751
v -1.068288 0.575193 0.447812
v -1.052558 0.718665 0.236076
v -1.064084 0.418005 0.345377
v -0.524554 1.372625 0.410882
v -0.394681 1.279212 -1.230826
v -0.350969 1.471860 -1.244624
v -0.308794 1.681698 0.391928
v -0.203035 1.593196 -1.249106
v -0.664423 0.489530 -3.051088
v -0.210375 1.071111 -3.051088
v -0.380907 1.363879 0.414691
v -0.331157 1.377792 1.753209
v -0.567800 1.318670 1.787231
v -0.575917 1.014787 2.408566
v 0.000000 -0.143266 1.787231
v -0.644079 0.296774 -2.356592
v 0.000000 -0.092688 -1.226344
v -0.692020 0.455136 -2.356592
v -0.232393 0.096705 -3.051088
v -0.437593 0.157232 -3.051088
v -0.452116 -0.022366 3.541622
v -0.244612 -0.071431 3.541622
v 0.000000 -0.084795 3.541622
v -1.639177 0.737303 0.316609
v -1.665746 1.086924 1.025742
v -1.625627 1.073676 0.165271
v -0.931499 1.145153 -0.665980
v -0.931732 0.820597 -0.660994
v -1.715444 -0.012394 1.258520
v -1.068387 0.436642 0.449941
v -1.714285 0.833784 0.164831
v -1.634873 0.718665 0.212045
v -0.986445 0.256380 0.374602
v -1.064149 0.327645 0.346765
v -0.476576 1.550461 0.395738
v -0.358253 1.427780 0.410882
v -0.215243 1.525383 -1.244624
v -0.275148 1.251984 -1.226344
v 0.000000 1.616201 -1.249106
v -0.518564 0.505504 -3.051088
v -0.361719 0.855154 -3.051088
v -0.229174 0.918236 -3.051088
v 0.000000 1.339757 1.730276
v 0.000000 1.393117 1.730276
v -0.411932 1.382334 1.894459
v -0.499805 0.800727 3.029902
v -0.360505 0.923412 2.988126
v -0.360505 0.976773 2.988126
v -0.495513 1.153417 2.433106
v 0.000000 -0.084900 -3.051088
v 0.000000 0.063641 -3.051088
v -0.232393 0.096705 -2.178818
v -0.437593 0.157232 -2.178818
v -0.510154 0.326440 3.541622
v -1.672948 0.785053 1.054023
v -1.754404 0.847033 1.025302
v -1.585695 1.060489 -0.691200
v -1.674353 0.820597 -0.691640
v -0.858225 1.120956 -2.237574
v -0.858457 0.796400 -2.232587
v -1.640234 0.063397 1.249855
v -1.679279 0.342369 0.344953
v -1.068452 0.346282 0.451329
v -1.728857 0.548308 0.339470
v -1.607424 0.395072 0.323516
v -0.258955 1.328056 -1.230826
v 0.000000 1.539328 -1.244624
v -0.310275 1.605616 0.395738
v 0.000000 1.713306 0.391928
v -0.361719 1.005216 -2.178818
v 0.000000 1.139795 -3.051088
v 0.000000 0.971070 -3.051088
v -0.229174 1.068298 -2.178818
v 0.000000 1.473974 0.410882
v 0.000000 1.446435 0.414691
v 0.000000 1.403708 1.847376
v -0.371120 1.313502 2.441453
v -0.210967 1.399001 1.867213
v 0.000000 0.928305 3.176245
v 0.000000 0.981666 3.176245
v -0.322735 1.123436 2.882315
v -0.518564 0.505504 -2.178818
v 0.000000 0.063641 -2.178818
v -0.274701 0.505504 -2.178818
v -0.267590 0.042123 5.974846
v -0.171750 0.021287 5.974846
v 0.000000 0.000451 5.974846
v -1.650603 0.575193 0.423781
v -1.767160 0.274935 1.298906
v -1.683660 0.304666 1.283767
v -1.010827 1.191377 -0.670709
v -1.601079 0.796400 -2.263234
v -0.987616 1.289352 -2.244219
v -1.512421 1.036291 -2.262793
v -1.646299 0.556556 0.319217
v -1.769076 0.136517 1.339978
v -1.685268 0.188437 1.318254
v -1.728940 0.432338 0.341252
v -1.646364 0.465620 0.320614
v -1.611727 0.413709 0.428080
v 0.000000 1.349490 -1.230826
v 0.000000 1.623302 0.395738
v 0.000000 1.279150 -1.226344
v 0.000000 1.121131 -2.178818
v -0.453539 0.660622 3.541622
v -0.281129 0.706372 3.516698
v 0.000000 1.115614 3.042806
v -0.253571 1.228393 2.731887
v 0.000000 0.505504 -2.178818
v -0.267995 0.190247 5.974846
v -1.496538 1.129688 -0.688444
v -1.104825 1.364867 -0.675382
v -1.060890 1.443301 -0.672626
v -0.969969 1.135027 -2.242929
v -1.404289 1.078818 -2.259672
v -1.650668 0.484257 0.425179
v -0.196171 1.354242 2.480540
v 0.000000 0.715850 3.628931
v 0.000000 1.258622 2.850616
v -0.219793 0.099567 6.075058
v -0.165485 0.069968 6.074585
v 0.000000 0.054805 6.074585
v -1.477801 1.358636 -0.697846
v -1.055872 1.211992 -2.247341
v -1.404527 1.204688 -2.269439
v -1.332659 1.155784 -2.264084
v 0.000000 1.351334 2.499911
v -0.266723 0.359845 5.974846
v -0.171316 0.388636 5.974846
v -0.245162 0.192919 6.074664
v -1.420667 1.309810 -0.693117
v 0.000000 0.417426 5.974846
v -0.183113 0.147292 6.123217
v -0.159125 0.131651 6.122967
v 0.000000 0.123639 6.122967
v -0.228771 0.303487 6.074585
v -0.165169 0.337284 6.074585
v -0.191987 0.196621 6.123009
v 0.000000 0.363052 6.074585
v -0.157010 0.196621 6.155749
v 0.000000 0.196621 6.158316
v -0.187079 0.255046 6.122967
v -0.158986 0.272905 6.122967
v 0.000000 0.286522 6.122967
v -1.614174 0.296774 0.115489
v -1.614174 0.455136 0.115489
v -1.614174 0.296774 -2.356592
v -2.245071 0.296774 0.115489
v -2.245071 0.455136 0.115489
v -1.614174 0.455136 -2.356592
v -2.245071 0.296774 -2.356592
v -2.160623 0.499434 0.115489
v -1.698622 0.499434 0.115489
v -2.785228 0.296774 -0.287798
v -2.785228 0.455136 -0.287798
v -1.699107 0.717928 0.115489
v -1.699107 0.717928 -2.356592
v -2.245071 0.455136 -2.356592
v -2.776357 0.296774 -2.356592
v -1.760818 0.691874 0.115489
v -2.160139 0.717928 0.115489
v -2.098428 0.691874 0.115489
v -2.141331 0.522013 -2.357759
v -1.717915 0.522013 -2.357759
v -2.776357 0.455136 -2.356592
v -3.453973 0.296774 -0.660088
v -3.453973 0.455136 -0.660088
v -1.774916 0.698381 -2.357759
v -1.790667 0.802408 0.115489
v -1.790667 0.802408 -2.356592
v -3.447088 0.296774 -2.356592
v -1.827866 0.753739 0.115489
v -2.160139 0.717928 -2.356592
v -2.068579 0.802408 0.115489
v -2.031379 0.753739 0.115489
v -2.084330 0.698381 -2.357759
v -3.447088 0.455136 -2.356592
v -4.764072 0.296774 -0.756608
v -1.836364 0.755079 -2.357759
v -2.068579 0.802408 -2.356592
v -4.764072 0.296774 -1.451182
v -2.022881 0.755079 -2.357759
v -4.775200 0.455136 -0.756608
v -4.775200 0.455136 -1.451182
v -4.750233 0.159378 -1.451182
v -4.750233 0.159378 -0.756608
v -4.838851 0.611012 -0.756608
v -4.838851 0.611012 -1.451182
v -4.764072 0.296774 -0.138161
v -4.775200 0.455136 -0.211231
v -4.775200 0.455136 -2.464832
v -4.764072 0.296774 -2.464832
v -4.750233 0.159378 -0.061245
v -4.750233 0.159378 -2.318691
v -4.783614 0.061975 -1.451182
v -4.783614 0.061975 -0.756608
v -4.838851 0.611012 -2.464832
v -4.838851 0.611012 -0.211231
v -5.102570 0.611012 -0.756608
v -5.102570 0.611012 -1.451182
v -4.822264 0.302428 -0.137728
v -4.830258 0.416203 -0.190225
v -4.775200 0.455136 -3.021496
v -4.764072 0.296774 -3.021496
v -4.783614 0.061975 -0.061245
v -4.812321 0.203717 -0.082468
v -4.783614 0.061975 -2.318691
v -5.177759 0.296774 -2.464832
v -5.191189 0.159378 -2.318691
v -5.157807 0.061975 -1.451182
v -5.157807 0.061975 -0.756608
v -5.102570 0.611012 -2.464832
v -4.838851 0.611012 -3.021496
v -5.102570 0.611012 -0.211231
v -4.875989 0.528191 -0.190225
v -5.166222 0.455136 -0.756608
v -5.166222 0.455136 -1.451182
v -4.832373 0.348827 -2.413387
v -4.839823 0.454863 -2.413387
v -5.177759 0.296774 -3.021496
v -4.839823 0.454863 -3.021496
v -4.832373 0.348827 -3.021496
v -5.157807 0.061975 -0.061245
v -4.836304 0.133738 -0.082468
v -4.812321 0.203717 -0.840548
v -5.157807 0.061975 -2.318691
v -5.177759 0.296774 -1.451182
v -5.191189 0.159378 -1.451182
v -5.191189 0.159378 -0.756608
v -5.166222 0.455136 -2.464832
v -5.102570 0.611012 -3.021496
v -4.882444 0.559233 -3.021496
v -5.166222 0.455136 -0.211231
v -5.065455 0.528191 -0.190225
v -4.882444 0.559233 -2.413387
v -5.177759 0.296774 -0.756608
v -5.166222 0.455136 -3.021496
v -5.109367 0.348827 -3.021496
v -5.191189 0.159378 -0.061245
v -5.105141 0.133738 -0.082468
v -5.059022 0.559233 -3.021496
v -5.177759 0.296774 -0.138161
v -5.111186 0.416203 -0.190225
v -5.059022 0.559233 -2.413387
v -5.109367 0.348827 -2.413387
v -5.101643 0.454863 -3.021496
v -5.129123 0.203717 -0.082468
v -5.119475 0.302428 -0.137728
v -5.101643 0.454863 -2.413387
v -5.129123 0.203717 -0.840548
v -5.109367 0.348827 -2.413387
v -4.832373 0.348827 -2.413387
v -4.812321 0.203717 -0.840548
v -5.129123 0.203717 -0.840548
vn 0.9669 -0.2307 0.1092
vn 0.0997 0.4311 0.8968
vn 0.9293 0.3520 0.1120
vn 0.9718 -0.2041 0.1178
vn -0.0303 -0.9616 -0.2728
vn 0.2374 -0.9712 0.0215
vn 0.3236 -0.9462 0.0082
vn 0.0487 0.4318 0.9006
vn -0.0941 -0.5230 -0.8471
vn -0.9992 -0.0014 0.0397
vn 0.9312 0.3527 -0.0916
vn -0.0017 0.9999 -0.0153
vn 0.9718 0.1641 0.1693
vn 0.2372 -0.9706 -0.0407
vn 0.9814 -0.1527 0.1165
vn 0.3693 -0.9286 0.0355
vn -0.2049 0.0149 0.9787
vn 0.1245 0.2060 0.9706
vn 0.9961 0.0125 -0.0873
vn -0.2205 -0.5487 -0.8064
vn 0.9727 0.2144 -0.0884
vn 0.9322 0.3531 -0.0796
vn 0.2409 0.9705 0.0111
vn 0.1504 -0.9886 0.0021
vn 0.9495 -0.3004 -0.0909
vn 0.1503 -0.9880 -0.0356
vn 0.2374 -0.9714 -0.0094
vn 0.1523 -0.9883 -0.0095
vn 0.1400 -0.9898 0.0273
vn 0.0727 0.2765 0.9582
vn -0.9989 -0.0000 0.0466
vn 0.9963 -0.0006 -0.0864
vn 0.4321 -0.3973 0.8096
vn -0.3252 -0.0148 -0.9455
vn -0.0253 -0.0771 -0.9967
vn 0.3659 0.9278 -0.0736
vn 0.9549 -0.2925 -0.0519
vn -0.0000 -0.0000 -1.0000
vn 0.1275 0.9916 -0.0212
vn -0.1170 -0.9067 0.4053
vn 0.0282 0.1149 0.9930
vn 0.9974 -0.0004 -0.0726
vn 0.9972 -0.0059 -0.0744
vn 0.9981 0.0386 -0.0480
vn -0.0385 -0.3563 -0.9336
vn 0.9992 0.0001 -0.0411
vn -0.9992 -0.0001 0.0401
vn 0.0113 0.0879 0.9961
vn 0.0229 0.0581 0.9980
vn -0.0280 -0.0709 -0.9971
vn -0.0209 -0.0722 -0.9972
vn -0.9730 -0.2147 0.0848
vn 0.1016 0.9930 -0.0601
vn 0.0230 0.0584 0.9980
vn -0.0000 -1.0000 -0.0000
vn 0.3648 0.9252 -0.1047
vn 0.0441 0.9985 0.0311
vn 0.9731 0.1643 0.1617
vn 0.1957 -0.9807 -0.0042
vn -0.2829 0.9591 -0.0000
vn 0.9840 -0.1531 0.0909
vn 0.3695 -0.9291 0.0131
vn 0.1201 -0.9920 0.0392
vn -0.9360 -0.3460 0.0653
vn 0.2651 0.0962 0.9594
vn 0.9368 0.3463 -0.0490
vn 0.0006 -0.9999 0.0154
vn 0.0072 -0.9845 0.1752
vn 0.0994 -0.9262 -0.3636
vn 0.2275 -0.4997 -0.8358
vn 0.0061 -0.3696 -0.9292
vn 0.3376 0.9381 -0.0774
vn -0.0043 -0.0667 -0.9978
vn -0.3660 -0.9282 0.0666
vn -0.9528 -0.2991 0.0515
vn 0.3087 0.9454 -0.1047
vn -0.4246 -0.8923 0.1535
vn 0.0140 0.0644 0.9978
vn 0.5898 0.7614 0.2692
vn 0.9796 0.1660 0.1129
vn -0.9740 0.2265 -0.0000
vn -0.1409 0.9900 -0.0000
vn 0.9971 -0.0027 0.0757
vn 0.2122 -0.9762 0.0436
vn 0.1204 -0.9921 0.0348
vn -0.9981 -0.0385 0.0482
vn -0.0100 0.4312 0.9022
vn 0.9987 0.0223 -0.0469
vn 0.0406 0.0325 0.9986
vn -0.7921 0.6097 0.0275
vn -0.0405 -0.0154 -0.9991
vn -0.9981 -0.0386 0.0480
vn -0.1092 0.9098 0.4005
vn -0.4168 -0.3161 0.8523
vn 0.9535 -0.2662 -0.1411
vn 0.1856 -0.1424 -0.9723
vn -0.1285 0.9772 -0.1689
vn 0.1276 0.9895 -0.0678
vn -0.0646 -0.9966 0.0510
vn -0.0059 -0.0601 -0.9982
vn 0.0029 0.0501 0.9987
vn -0.2216 -0.9610 0.1653
vn 0.2091 0.9382 0.2758
vn 0.2201 0.8903 0.3986
vn -0.0727 0.2828 0.9564
vn 0.0623 -0.0048 0.9980
vn -0.0475 -0.0029 -0.9989
vn -0.0432 -0.0366 -0.9984
vn -0.9992 -0.0001 0.0411
vn -0.9535 0.2638 0.1455
vn 0.2368 -0.0148 -0.9714
vn -0.8753 0.4811 -0.0497
vn 0.9950 0.0075 0.0994
vn 0.9020 -0.0025 0.4316
vn 0.4321 -0.7995 0.4173
vn 0.1059 -0.8731 0.4758
vn -0.9993 -0.0001 0.0384
vn 0.9992 0.0021 -0.0395
vn 0.9381 0.3378 -0.0768
vn 0.0668 0.0464 0.9967
vn 0.1268 0.9912 -0.0388
vn 0.8793 -0.4759 0.0189
vn 0.1918 0.9758 -0.1045
vn -0.0591 -0.0771 -0.9953
vn 0.2861 0.9480 0.1392
vn 0.0858 0.9876 0.1315
vn 0.0601 -0.0014 0.9982
vn -0.1654 -0.9811 0.1006
vn -0.0636 -0.0158 -0.9979
vn -0.7309 -0.6741 0.1070
vn 0.9656 0.1433 0.2170
vn 0.6859 -0.1834 0.7042
vn 0.3032 -0.5686 0.7647
vn 0.0526 -0.5742 0.8170
vn 0.3885 0.7311 0.5609
vn 0.1369 0.8773 0.4601
vn 0.6738 0.0571 0.7367
vn 0.6785 -0.1190 0.7249
vn 0.0219 -0.4358 0.8998
vn 0.3260 0.5127 0.7943
vn 0.0511 0.5968 0.8007
vn 0.2403 0.3780 0.8941
vn 0.0150 0.3945 0.9188
vn -0.0000 1.0000 -0.0000
vn -0.0000 -0.0000 1.0000
vn 0.5983 -0.0000 0.8013
vn -0.9515 0.3075 -0.0000
vn -0.0000 1.0000 0.0091
vn 0.4864 -0.0000 0.8737
vn -0.0142 0.0046 -0.9999
vn -0.6781 0.7350 -0.0000
vn -0.0000 -0.0174 -0.9998
vn 0.9515 -0.3075 0.0046
vn 0.9515 0.3075 -0.0000
vn -0.9515 -0.3075 0.0046
vn 0.0735 -0.0000 0.9973
vn -0.0120 0.0130 -0.9998
vn 0.0142 0.0046 -0.9999
vn 0.6781 -0.7349 0.0019
vn 0.6781 0.7350 -0.0000
vn -0.6781 -0.7349 0.0019
vn -0.0000 0.0247 -0.9997
vn 0.0120 0.0130 -0.9998
vn 0.5665 -0.0000 -0.8240
vn -0.9950 0.1002 -0.0000
vn -0.0000 -1.0000 -0.0005
vn -0.9258 0.3780 -0.0000
vn -0.9975 0.0701 -0.0000
vn -0.9460 -0.3242 -0.0000
vn -0.0477 0.4212 0.9057
vn -0.0543 0.4919 0.8689
vn -0.0000 -0.7286 -0.6850
vn -0.2820 0.1151 0.9525
vn 0.9258 0.3780 -0.0000
vn 0.9975 -0.0701 0.0031
vn 0.2637 0.0904 0.9604
vn 0.9950 -0.1002 -0.0000
vn 0.9953 0.0973 -0.0000
vn 0.9460 -0.3242 -0.0000
vn 0.9258 0.3781 -0.0000
vn -0.0000 0.2458 0.9693
vn 0.9258 -0.3781 -0.0026
vn 0.9974 0.0727 -0.0000
vn 0.9975 -0.0701 -0.0000
vn -0.0000 0.2836 0.9589
vn 0.0011 0.9958 0.0919
vn 0.9258 -0.3781 -0.0000
vn 0.2821 0.1152 0.9525
vn -0.0000 -0.9999 -0.0140
vn -0.2638 0.0904 0.9603
vn -0.0000 0.9958 0.0919
vn 0.0476 0.4213 0.9057
vn -0.9258 -0.3781 -0.0026
vn -0.9974 -0.0726 -0.0000
vn 0.0542 0.4918 0.8690
vn -0.9460 0.3242 -0.0000
vn -0.9258 -0.3781 -0.0000
vn -0.9975 -0.0713 0.0030
vn -0.9937 -0.1122 0.0021
vn 0.9564 -0.2895 -0.0385
vn 0.9548 -0.2925 -0.0524
vn 0.9480 -0.3038 -0.0945
vn -0.9669 -0.2307 0.1092
vn -0.0997 0.4311 0.8968
vn -0.9293 0.3520 0.1120
vn -0.9638 -0.2299 0.1347
vn 0.0303 -0.9616 -0.2728
vn -0.2374 -0.9712 0.0215
vn -0.3392 -0.9407 0.0026
vn -0.0487 0.4318 0.9006
vn 0.0941 -0.5230 -0.8471
vn 0.9992 -0.0001 0.0399
vn -0.9312 0.3528 -0.0916
vn 0.0017 0.9999 -0.0153
vn -0.9646 0.2416 0.1056
vn -0.2372 -0.9706 -0.0407
vn -0.9681 -0.2033 0.1467
vn -0.3389 -0.9398 0.0450
vn 0.2049 0.0149 0.9787
vn -0.1245 0.2060 0.9706
vn -0.9968 -0.0151 -0.0781
vn 0.3186 -0.5064 -0.8013
vn -0.9727 0.2144 -0.0884
vn -0.9322 0.3531 -0.0796
vn -0.2409 0.9705 0.0111
vn -0.1504 -0.9886 0.0021
vn -0.9495 -0.3004 -0.0909
vn -0.1503 -0.9880 -0.0356
vn -0.2374 -0.9714 -0.0094
vn -0.1401 -0.9901 -0.0026
vn -0.1201 -0.9920 0.0377
vn -0.0766 0.2257 0.9712
vn 0.9989 -0.0000 0.0466
vn -0.9963 -0.0006 -0.0864
vn -0.4321 -0.3972 0.8096
vn 0.3252 -0.0148 -0.9455
vn 0.0253 -0.0771 -0.9967
vn -0.3659 0.9278 -0.0736
vn -0.9549 -0.2925 -0.0519
vn -0.1275 0.9916 -0.0212
vn -0.0132 -0.9471 0.3206
vn -0.0282 0.1149 0.9930
vn -0.9975 0.0112 -0.0699
vn -0.9973 -0.0004 -0.0735
vn -0.9981 0.0386 -0.0480
vn 0.0385 -0.3563 -0.9336
vn -0.9992 0.0001 -0.0411
vn 0.9992 0.0028 0.0407
vn -0.0113 0.0879 0.9961
vn -0.0223 0.0674 0.9975
vn 0.0280 -0.0709 -0.9971
vn 0.0209 -0.0722 -0.9972
vn 0.9730 -0.2147 0.0848
vn -0.1124 0.9919 -0.0587
vn -0.0230 0.0584 0.9980
vn -0.2765 0.9540 -0.1157
vn -0.0441 0.9985 0.0311
vn -0.9742 0.1405 0.1768
vn -0.1957 -0.9807 -0.0042
vn 0.2829 0.9591 -0.0000
vn -0.9817 -0.1633 0.0977
vn -0.2298 -0.9717 0.0546
vn -0.0544 -0.9960 0.0710
vn 0.9360 -0.3460 0.0653
vn -0.2651 0.0962 0.9594
vn -0.9368 0.3463 -0.0490
vn -0.0006 -0.9999 0.0154
vn -0.0072 -0.9845 0.1752
vn -0.0994 -0.9262 -0.3636
vn -0.2275 -0.4997 -0.8358
vn -0.0061 -0.3696 -0.9292
vn -0.3138 0.9462 -0.0787
vn 0.0043 -0.0667 -0.9978
vn 0.3660 -0.9282 0.0666
vn 0.9124 -0.4093 -0.0000
vn -0.3087 0.9454 -0.1047
vn 0.4246 -0.8923 0.1535
vn -0.0177 0.1370 0.9904
vn -0.5898 0.7614 0.2692
vn -0.9817 0.1416 0.1275
vn 0.9740 0.2265 -0.0000
vn 0.1409 0.9900 -0.0000
vn -0.9826 -0.1635 0.0886
vn -0.2299 -0.9723 0.0432
vn -0.0545 -0.9977 0.0397
vn 0.9981 -0.0385 0.0482
vn 0.0100 0.4312 0.9022
vn -0.9987 0.0223 -0.0469
vn -0.0400 0.0118 0.9991
vn 0.7921 0.6097 0.0275
vn 0.0405 -0.0154 -0.9991
vn 0.9981 -0.0386 0.0480
vn 0.1092 0.9098 0.4005
vn 0.4168 -0.3161 0.8523
vn -0.9535 -0.2662 -0.1411
vn -0.1856 -0.1424 -0.9722
vn 0.1285 0.9772 -0.1689
vn -0.0823 0.9938 -0.0754
vn 0.0646 -0.9966 0.0510
vn 0.0059 -0.0601 -0.9982
vn -0.0043 0.0423 0.9991
vn 0.2216 -0.9610 0.1653
vn -0.5410 0.7463 0.3877
vn -0.2201 0.8903 0.3986
vn 0.0727 0.2828 0.9564
vn -0.0562 -0.0036 0.9984
vn 0.0475 -0.0029 -0.9989
vn 0.0432 -0.0366 -0.9984
vn 0.9992 -0.0001 0.0411
vn 0.9535 0.2638 0.1455
vn -0.2368 -0.0148 -0.9714
vn 0.8753 0.4811 -0.0497
vn -0.9814 0.1663 0.0959
vn -0.9020 -0.0025 0.4316
vn -0.1772 -0.8150 0.5517
vn -0.1059 -0.8731 0.4758
vn 0.9993 -0.0001 0.0384
vn -0.9992 0.0021 -0.0395
vn -0.8419 0.5375 -0.0475
vn -0.0668 0.0464 0.9967
vn -0.1245 0.9914 -0.0394
vn -0.8793 -0.4759 0.0189
vn -0.1918 0.9758 -0.1045
vn 0.0217 -0.0773 -0.9968
vn -0.2359 0.9624 0.1349
vn -0.0858 0.9876 0.1315
vn -0.0605 0.0258 0.9978
vn 0.1917 -0.9757 0.1064
vn 0.0636 -0.0158 -0.9979
vn 0.7309 -0.6741 0.1070
vn -0.9333 0.0070 0.3591
vn -0.6859 -0.1834 0.7042
vn -0.3032 -0.5686 0.7647
vn -0.0526 -0.5742 0.8170
vn -0.2573 0.8526 0.4548
vn -0.1460 0.8686 0.4735
vn -0.6994 0.1042 0.7071
vn -0.6785 -0.1190 0.7249
vn -0.0219 -0.4358 0.8998
vn -0.2953 0.5557 0.7772
vn -0.0831 0.5325 0.8423
vn -0.6822 0.0578 0.7288
vn -0.0313 0.3658 0.9302
vn -0.5983 -0.0000 0.8013
vn -0.4864 -0.0000 0.8737
vn -0.0735 -0.0000 0.9973
vn -0.5628 -0.0396 -0.8256
vn 0.9950 0.1002 -0.0000
vn 0.9975 0.0701 -0.0000
vn 0.0477 0.4212 0.9057
vn 0.0543 0.4919 0.8689
vn 0.2820 0.1151 0.9525
vn -0.9976 -0.0687 0.0030
vn -0.2637 0.0904 0.9604
vn -0.9950 -0.1002 -0.0000
vn -0.9953 0.0973 -0.0000
vn -0.9258 0.3781 -0.0000
vn -0.9974 0.0727 -0.0000
vn -0.9975 -0.0701 -0.0000
vn -0.2821 0.1152 0.9525
vn 0.2638 0.0904 0.9603
vn -0.0476 0.4213 0.9057
vn 0.9974 -0.0726 -0.0000
vn -0.0542 0.4918 0.8690
vn 0.9460 0.3242 -0.0000
vn 0.9975 -0.0713 0.0030
vn 0.9953 -0.0973 -0.0000
vn -0.9618 -0.2699 -0.0467
vn -0.9548 -0.2925 -0.0524
vn -0.9471 -0.3069 -0.0941
vn 0.2365 0.6809 -0.6931
vn 0.7075 0.5004 -0.4990
vn 0.9139 0.3637 -0.1803
vn 0.9577 0.1981 0.2088
vn 0.9739 0.1382 0.1801
vn -0.0000 0.7337 -0.6794
vn 0.1578 0.6661 -0.7290
vn 0.3032 0.9505 0.0672
vn 0.6976 0.2828 0.6582
vn 0.6450 0.5379 0.5428
vn 0.7960 0.5337 0.2855
vn -0.0000 0.6663 -0.7457
vn 0.0593 0.9982 -0.0088
vn -0.0000 0.6429 0.7659
vn -0.0000 0.3493 0.9370
vn 0.5606 0.6674 0.4902
vn 0.5436 0.7972 0.2628
vn -0.0000 0.7368 0.6761
vn 0.3911 0.8459 0.3627
vn -0.0000 0.9999 -0.0127
vn 0.1320 0.9584 0.2530
vn -0.0000 0.8957 0.4447
vn -0.0000 0.9733 0.2295
vn -0.7075 0.5004 -0.4990
vn -0.2365 0.6809 -0.6931
vn -0.9139 0.3637 -0.1803
vn -0.9577 0.1981 0.2088
vn -0.9739 0.1382 0.1801
vn -0.1578 0.6661 -0.7290
vn -0.3032 0.9505 0.0672
vn -0.6976 0.2828 0.6582
vn -0.6450 0.5379 0.5428
vn -0.7960 0.5337 0.2855
vn -0.0593 0.9982 -0.0088
vn -0.5436 0.7972 0.2628
vn -0.5606 0.6674 0.4902
vn -0.3911 0.8459 0.3627
vn -0.1320 0.9584 0.2530
vn 0.9669 -0.2306 0.1092
vn 0.9492 -0.3042 0.0803
vn 0.9691 0.2427 0.0445
vn 0.9638 -0.2299 0.1347
vn 0.3236 -0.9462 0.0027
vn 0.3392 -0.9407 0.0026
vn -0.9992 -0.0001 0.0399
vn 0.9312 0.3528 -0.0916
vn 0.9646 0.2416 0.1056
vn 0.9681 -0.2033 0.1467
vn 0.3389 -0.9398 0.0450
vn 0.9968 -0.0151 -0.0781
vn -0.3186 -0.5064 -0.8013
vn 0.9727 0.2144 -0.0883
vn 0.8960 0.4414 -0.0484
vn 0.3665 0.9295 0.0410
vn 0.1523 -0.9883 0.0015
vn 0.9520 -0.2916 -0.0930
vn 0.1720 -0.9846 -0.0316
vn 0.1401 -0.9901 -0.0026
vn 0.1201 -0.9920 0.0377
vn 0.0766 0.2257 0.9712
vn 0.4321 -0.3972 0.8096
vn 0.0132 -0.9471 0.3206
vn 0.0283 0.1412 0.9896
vn 0.9975 0.0112 -0.0699
vn 0.9973 -0.0004 -0.0735
vn -0.9992 0.0028 0.0407
vn 0.0471 0.0820 0.9955
vn 0.0223 0.0674 0.9975
vn -0.0229 -0.0637 -0.9977
vn -0.9634 -0.2522 0.0906
vn 0.1124 0.9919 -0.0587
vn 0.0167 0.0503 0.9986
vn 0.2765 0.9540 -0.1157
vn 0.2112 0.9743 0.0790
vn 0.9742 0.1405 0.1768
vn 0.1721 -0.9851 -0.0071
vn 0.9817 -0.1633 0.0977
vn 0.2298 -0.9717 0.0546
vn 0.0544 -0.9960 0.0710
vn 0.1498 -0.5379 -0.8296
vn 0.3138 0.9462 -0.0787
vn -0.0066 -0.0582 -0.9983
vn -0.3140 -0.9469 0.0694
vn -0.9124 -0.4093 -0.0000
vn 0.0980 0.9923 -0.0758
vn 0.0177 0.1370 0.9904
vn 0.9817 0.1416 0.1275
vn 0.9826 -0.1635 0.0886
vn 0.2299 -0.9723 0.0432
vn 0.0545 -0.9977 0.0397
vn -0.9993 -0.0046 0.0370
vn 0.9992 0.0037 -0.0388
vn 0.0400 0.0118 0.9991
vn -0.9173 0.3982 0.0038
vn -0.0412 -0.0134 -0.9991
vn -0.0967 0.9144 0.3931
vn 0.8586 -0.4812 -0.1770
vn 0.1856 -0.1424 -0.9722
vn 0.0823 0.9938 -0.0754
vn -0.0568 -0.9970 0.0521
vn -0.0053 -0.0636 -0.9980
vn 0.0043 0.0423 0.9991
vn 0.5410 0.7463 0.3877
vn 0.1962 0.8877 0.4166
vn 0.0562 -0.0036 0.9984
vn -0.0488 -0.0028 -0.9988
vn -0.8558 0.4803 0.1922
vn 0.9814 0.1663 0.0959
vn 0.9411 -0.2548 0.2221
vn 0.1772 -0.8150 0.5517
vn 0.0819 -0.8936 0.4413
vn -0.9993 -0.0026 0.0379
vn 0.9992 0.0001 -0.0399
vn 0.8419 0.5375 -0.0475
vn 0.0445 0.0446 0.9980
vn 0.1245 0.9914 -0.0394
vn 0.6675 -0.7445 0.0093
vn -0.0217 -0.0773 -0.9968
vn 0.2359 0.9624 0.1349
vn 0.1644 0.9785 0.1245
vn 0.0605 0.0258 0.9978
vn -0.1917 -0.9757 0.1064
vn -0.9202 -0.3859 0.0665
vn 0.9333 0.0070 0.3591
vn 0.6637 -0.1163 0.7389
vn 0.3363 -0.5283 0.7796
vn 0.0310 -0.6149 0.7880
vn 0.2573 0.8526 0.4548
vn 0.1460 0.8686 0.4735
vn 0.6994 0.1042 0.7071
vn 0.2693 -0.4268 0.8633
vn 0.0146 -0.4500 0.8929
vn 0.2953 0.5557 0.7772
vn 0.0831 0.5325 0.8423
vn 0.6822 0.0578 0.7288
vn 0.0313 0.3658 0.9302
vn 0.0729 -0.0051 0.9973
vn 0.5628 -0.0396 -0.8256
vn -0.0477 0.4213 0.9057
vn 0.9976 -0.0687 0.0030
vn 0.9934 -0.1148 0.0021
vn -0.9258 -0.3780 -0.0026
vn -0.9974 -0.0727 -0.0000
vn -0.0011 0.9958 0.0919
vn -0.9974 -0.0726 0.0030
vn -0.9953 -0.0973 -0.0000
vn 0.9618 -0.2699 -0.0467
vn 0.9615 -0.2698 -0.0516
vn 0.9519 -0.2916 -0.0946
vn -0.9669 -0.2306 0.1092
vn -0.9492 -0.3042 0.0803
vn -0.9691 0.2427 0.0445
vn -0.9718 -0.2041 0.1178
vn -0.3236 -0.9462 0.0027
vn -0.3236 -0.9462 0.0082
vn 0.9992 -0.0014 0.0397
vn -0.9312 0.3527 -0.0916
vn -0.9312 0.3526 -0.0918
vn -0.9718 0.1641 0.1693
vn -0.9814 -0.1527 0.1165
vn -0.3693 -0.9286 0.0355
vn -0.9961 0.0125 -0.0873
vn 0.2205 -0.5487 -0.8064
vn -0.9727 0.2144 -0.0883
vn -0.8960 0.4414 -0.0484
vn -0.3665 0.9295 0.0410
vn -0.1523 -0.9883 0.0015
vn -0.9520 -0.2916 -0.0930
vn -0.1720 -0.9846 -0.0316
vn -0.1523 -0.9883 -0.0095
vn -0.1400 -0.9898 0.0273
vn -0.0727 0.2765 0.9582
vn -0.4321 -0.3973 0.8096
vn 0.1170 -0.9067 0.4053
vn -0.0283 0.1412 0.9896
vn -0.9974 -0.0004 -0.0726
vn -0.9972 -0.0059 -0.0744
vn 0.9992 -0.0001 0.0401
vn -0.0471 0.0820 0.9955
vn -0.0229 0.0581 0.9980
vn 0.0229 -0.0637 -0.9977
vn 0.9634 -0.2522 0.0906
vn -0.1016 0.9930 -0.0601
vn -0.0167 0.0503 0.9986
vn -0.3648 0.9252 -0.1047
vn -0.2112 0.9743 0.0790
vn -0.9731 0.1643 0.1617
vn -0.1721 -0.9851 -0.0071
vn -0.9840 -0.1531 0.0909
vn -0.3695 -0.9291 0.0131
vn -0.1201 -0.9920 0.0392
vn -0.1498 -0.5379 -0.8296
vn -0.3376 0.9381 -0.0774
vn 0.0066 -0.0582 -0.9983
vn 0.3140 -0.9469 0.0694
vn 0.9528 -0.2991 0.0515
vn -0.0980 0.9923 -0.0758
vn -0.0140 0.0644 0.9978
vn -0.9796 0.1660 0.1129
vn -0.9971 -0.0027 0.0757
vn -0.2122 -0.9762 0.0436
vn -0.1204 -0.9921 0.0348
vn 0.9993 -0.0046 0.0370
vn -0.9992 0.0037 -0.0388
vn -0.0406 0.0325 0.9986
vn 0.9173 0.3982 0.0038
vn 0.0412 -0.0134 -0.9991
vn 0.0967 0.9144 0.3931
vn -0.8586 -0.4812 -0.1770
vn -0.1856 -0.1424 -0.9723
vn -0.1276 0.9895 -0.0678
vn 0.0568 -0.9970 0.0521
vn 0.0053 -0.0636 -0.9980
vn -0.0029 0.0501 0.9987
vn -0.2091 0.9382 0.2758
vn -0.1962 0.8877 0.4166
vn -0.0623 -0.0048 0.9980
vn 0.0488 -0.0028 -0.9988
vn 0.8558 0.4803 0.1922
vn -0.9950 0.0075 0.0994
vn -0.9411 -0.2548 0.2221
vn -0.4321 -0.7995 0.4173
vn -0.0819 -0.8936 0.4413
vn 0.9993 -0.0026 0.0379
vn -0.9992 0.0001 -0.0399
vn -0.9381 0.3378 -0.0768
vn -0.0445 0.0446 0.9980
vn -0.1268 0.9912 -0.0388
vn -0.6675 -0.7445 0.0093
vn 0.0591 -0.0771 -0.9953
vn -0.2861 0.9480 0.1392
vn -0.1644 0.9785 0.1245
vn -0.0601 -0.0014 0.9982
vn 0.1654 -0.9811 0.1006
vn 0.9202 -0.3859 0.0665
vn -0.9656 0.1433 0.2170
vn -0.6637 -0.1163 0.7389
vn -0.3363 -0.5283 0.7796
vn -0.0310 -0.6149 0.7880
vn -0.3885 0.7311 0.5609
vn -0.1369 0.8773 0.4601
vn -0.6738 0.0571 0.7367
vn -0.2693 -0.4268 0.8633
vn -0.0146 -0.4500 0.8929
vn -0.3260 0.5127 0.7943
vn -0.0511 0.5968 0.8007
vn -0.2403 0.3780 0.8941
vn -0.0150 0.3945 0.9188
vn -0.0729 -0.0051 0.9973
vn -0.5665 -0.0000 -0.8240
vn -0.9975 -0.0701 0.0031
vn -0.9934 -0.1148 0.0021
vn 0.9258 -0.3780 -0.0026
vn 0.9974 -0.0727 -0.0000
vn 0.9974 -0.0726 0.0030
vn 0.9937 -0.1122 0.0021
vn -0.9558 -0.2893 -0.0523
vn -0.9480 -0.3038 -0.0945
vn -0.9518 -0.2916 -0.0949
s 0
usemtl White
f 12//7 31//7 9//7
f 17//8 10//8 9//8
f 14//9 32//9 11//9
f 12//10 24//10 16//10
f 18//11 19//11 20//11
f 12//12 23//12 15//12
f 16//13 36//13 12//13
f 13//14 27//14 17//14
f 29//15 21//15 28//15
f 13//16 46//16 30//16
f 19//9 31//9 20//9
f 21//17 31//17 35//17
f 17//18 28//18 33//18
f 11//19 54//19 24//19
f 23//20 38//20 15//20
f 16//21 58//21 39//21
f 25//22 39//22 40//22
f 17//23 42//23 41//23
f 13//24 43//24 26//24
f 27//25 63//25 44//25
f 18//26 64//26 45//26
f 35//27 48//27 32//27
f 34//28 52//28 35//28
f 32//29 53//29 22//29
f 36//30 329//30 23//30
f 38//31 49//31 15//31
f 329//32 37//32 23//32
f 37//33 57//33 38//33
f 25//34 354//34 36//34
f 40//35 334//35 25//35
f 42//36 84//36 41//36
f 41//37 29//37 17//37
f 42//38 27//38 44//38
f 30//39 62//39 43//39
f 18//40 65//40 46//40
f 47//41 67//41 68//41
f 69//42 47//42 70//42
f 38//43 77//43 55//43
f 56//44 80//44 57//44
f 85//45 41//45 84//45
f 60//37 87//37 29//37
f 44//46 59//46 42//46
f 88//47 62//47 61//47
f 43//48 117//48 89//48
f 89//49 26//49 43//49
f 45//50 44//50 63//50
f 29//51 91//51 64//51
f 46//40 93//40 92//40
f 45//52 89//52 65//52
f 92//53 30//53 46//53
f 66//54 48//54 94//54
f 66//55 73//55 32//55
f 70//56 68//56 96//56
f 97//57 67//57 35//57
f 67//58 94//58 68//58
f 70//59 408//59 69//59
f 69//60 94//60 48//60
f 175//61 49//61 55//61
f 71//44 99//44 52//44
f 97//62 52//62 72//62
f 52//44 100//44 72//44
f 73//63 382//63 53//63
f 102//64 24//64 54//64
f 71//44 80//44 98//44
f 56//65 356//65 389//65
f 56//44 390//44 79//44
f 79//66 107//66 80//66
f 108//67 39//67 58//67
f 81//68 40//68 39//68
f 82//69 335//69 40//69
f 109//70 59//70 83//70
f 110//71 59//71 109//71
f 84//72 90//72 85//72
f 111//45 60//45 85//45
f 29//73 112//73 90//73
f 86//37 114//37 87//37
f 64//74 83//74 44//74
f 92//75 88//75 61//75
f 118//76 91//76 90//76
f 116//77 93//77 119//77
f 65//52 117//52 93//52
f 95//78 67//78 120//78
f 406//79 70//79 96//79
f 68//80 121//80 96//80
f 99//81 127//81 122//81
f 410//82 97//82 72//82
f 72//44 411//44 410//44
f 100//83 122//83 123//83
f 95//84 414//84 73//84
f 102//85 54//85 103//85
f 58//86 144//86 108//86
f 80//87 127//87 98//87
f 390//88 106//88 79//88
f 128//44 107//44 106//44
f 81//89 147//89 129//89
f 82//90 129//90 130//90
f 362//91 130//91 426//91
f 131//92 109//92 83//92
f 132//93 109//93 133//93
f 85//72 112//72 111//72
f 110//94 118//94 90//94
f 86//95 148//95 134//95
f 87//73 135//73 112//73
f 86//96 136//96 113//96
f 137//97 114//97 113//97
f 138//98 83//98 91//98
f 115//99 117//99 62//99
f 139//100 115//100 88//100
f 116//101 139//101 88//101
f 141//102 119//102 142//102
f 119//103 117//103 143//103
f 120//104 413//104 95//104
f 96//105 441//105 406//105
f 442//106 120//106 97//106
f 69//107 441//107 121//107
f 411//108 123//108 443//108
f 122//44 128//44 123//44
f 102//109 145//109 144//109
f 418//110 145//110 103//110
f 448//44 106//44 422//44
f 132//111 140//111 139//111
f 112//72 137//72 111//72
f 134//112 150//112 86//112
f 136//113 151//113 113//113
f 113//114 152//114 137//114
f 138//115 153//115 131//115
f 140//116 143//116 115//116
f 118//117 142//117 138//117
f 142//118 143//118 153//118
f 123//44 448//44 443//44
f 108//119 161//119 147//119
f 147//120 155//120 129//120
f 130//121 155//121 156//121
f 130//122 461//122 426//122
f 153//123 133//123 131//123
f 141//124 132//124 139//124
f 111//125 159//125 157//125
f 157//126 148//126 111//126
f 134//127 152//127 151//127
f 134//128 158//128 149//128
f 157//129 136//129 150//129
f 152//130 159//130 137//130
f 144//131 162//131 161//131
f 457//132 162//132 145//132
f 149//133 157//133 150//133
f 158//134 164//134 149//134
f 159//135 158//135 136//135
f 152//136 164//136 160//136
f 147//137 167//137 163//137
f 163//138 165//138 155//138
f 155//139 166//139 156//139
f 156//140 474//140 461//140
f 161//141 168//141 167//141
f 162//142 478//142 168//142
f 163//143 171//143 169//143
f 170//144 165//144 169//144
f 166//145 480//145 474//145
f 167//146 172//146 171//146
f 168//147 483//147 172//147
f 170//148 171//148 172//148
f 172//149 480//149 170//149
f 178//150 51//150 50//150
f 173//151 177//151 174//151
f 173//151 50//151 49//151
f 175//61 176//61 173//61
f 177//151 181//151 174//151
f 176//152 183//152 177//152
f 174//153 185//153 178//153
f 178//44 179//44 175//44
f 179//61 182//61 176//61
f 184//151 181//151 188//151
f 189//151 180//151 177//151
f 192//154 180//154 191//154
f 186//150 183//150 193//150
f 182//155 195//155 183//155
f 185//156 192//156 178//156
f 184//157 198//157 185//157
f 186//158 192//158 191//158
f 186//44 187//44 179//44
f 187//61 194//61 182//61
f 197//151 188//151 200//151
f 192//159 188//159 181//159
f 186//160 189//160 177//160
f 202//151 190//151 189//151
f 190//161 191//161 180//161
f 193//150 195//150 205//150
f 206//162 195//162 194//162
f 198//163 196//163 185//163
f 197//150 208//150 198//150
f 201//164 191//164 204//164
f 193//44 199//44 187//44
f 194//61 209//61 206//61
f 197//151 203//151 202//151
f 196//165 200//165 188//165
f 201//166 202//166 189//166
f 203//167 204//167 190//167
f 195//150 212//150 205//150
f 198//168 210//168 207//168
f 208//169 204//169 210//169
f 205//170 209//170 199//170
f 209//171 214//171 206//171
f 210//172 200//172 207//172
f 211//173 216//173 212//173
f 206//174 218//174 211//174
f 212//174 220//174 209//174
f 214//171 217//171 206//171
f 209//171 222//171 213//171
f 213//175 224//175 214//175
f 216//173 219//173 212//173
f 211//173 226//173 215//173
f 215//150 228//150 216//150
f 217//176 230//176 218//176
f 219//174 232//174 220//174
f 224//175 221//175 214//175
f 217//177 234//177 229//177
f 213//175 235//175 223//175
f 220//178 237//178 222//178
f 223//61 239//61 224//61
f 228//150 225//150 216//150
f 225//173 231//173 219//173
f 215//150 242//150 227//150
f 218//179 243//179 226//179
f 245//180 227//180 244//180
f 230//181 246//181 247//181
f 220//61 248//61 236//61
f 231//44 250//44 232//44
f 239//61 233//61 224//61
f 221//182 252//182 234//182
f 253//183 229//183 234//183
f 223//61 254//61 238//61
f 222//44 254//44 235//44
f 255//184 237//184 236//184
f 257//185 238//185 256//185
f 245//186 240//186 228//186
f 240//150 241//150 225//150
f 231//44 260//44 249//44
f 227//180 261//180 244//180
f 242//187 243//187 262//187
f 243//188 247//188 263//188
f 264//189 245//189 244//189
f 249//190 246//190 250//190
f 236//189 265//189 258//189
f 232//44 266//44 248//44
f 257//185 251//185 239//185
f 251//191 252//191 233//191
f 253//192 252//192 246//192
f 238//185 237//185 256//185
f 255//189 258//189 245//189
f 264//184 256//184 255//184
f 258//180 259//180 240//180
f 259//44 260//44 241//44
f 260//193 247//193 249//193
f 264//189 261//189 270//189
f 261//194 262//194 271//194
f 262//195 263//195 272//195
f 250//150 273//150 266//150
f 265//44 266//44 274//44
f 257//184 270//184 267//184
f 267//196 268//196 251//196
f 268//197 246//197 252//197
f 265//44 269//44 259//44
f 269//61 263//61 260//61
f 270//198 271//198 276//198
f 262//199 277//199 271//199
f 266//200 277//200 274//200
f 270//201 275//201 267//201
f 278//202 268//202 275//202
f 274//203 272//203 269//203
f 271//204 273//204 276//204
f 278//205 276//205 273//205
f 280//197 282//197 279//197
f 57//206 78//206 77//206
f 78//207 34//207 51//207
f 50//208 34//208 31//208
f 78//44 175//44 77//44
f 283//209 305//209 286//209
f 283//210 284//210 291//210
f 285//211 306//211 288//211
f 286//212 298//212 285//212
f 292//213 293//213 287//213
f 297//214 286//214 289//214
f 290//215 310//215 299//215
f 301//216 287//216 291//216
f 295//217 303//217 302//217
f 287//218 320//218 292//218
f 293//211 294//211 305//211
f 309//219 305//219 302//219
f 307//220 303//220 291//220
f 285//221 328//221 296//221
f 312//222 297//222 289//222
f 290//223 333//223 298//223
f 299//224 313//224 290//224
f 316//225 291//225 315//225
f 287//226 317//226 304//226
f 301//227 340//227 300//227
f 292//228 341//228 303//228
f 322//229 309//229 306//229
f 326//230 308//230 309//230
f 327//231 306//231 296//231
f 329//232 310//232 297//232
f 323//233 312//233 289//233
f 311//234 329//234 297//234
f 332//235 311//235 312//235
f 299//236 354//236 334//236
f 314//237 334//237 335//237
f 316//238 364//238 336//238
f 303//239 315//239 291//239
f 316//240 318//240 301//240
f 304//241 339//241 338//241
f 342//242 292//242 320//242
f 321//243 344//243 309//243
f 346//244 321//244 322//244
f 312//245 330//245 355//245
f 359//44 331//44 332//44
f 315//246 365//246 364//246
f 367//239 337//239 303//239
f 318//247 336//247 363//247
f 339//248 368//248 338//248
f 317//249 402//249 339//249
f 369//250 300//250 340//250
f 319//251 318//251 341//251
f 303//252 371//252 370//252
f 373//242 320//242 372//242
f 369//253 319//253 342//253
f 372//254 304//254 338//254
f 322//255 343//255 374//255
f 343//256 350//256 375//256
f 347//257 345//257 321//257
f 344//258 377//258 309//258
f 374//259 344//259 345//259
f 347//260 408//260 378//260
f 374//261 346//261 322//261
f 330//61 484//61 486//61
f 380//44 348//44 326//44
f 377//262 326//262 309//262
f 381//44 326//44 349//44
f 382//263 350//263 327//263
f 385//264 298//264 333//264
f 348//44 359//44 332//44
f 356//265 331//265 389//265
f 331//44 390//44 389//44
f 392//266 358//266 359//266
f 393//267 313//267 360//267
f 360//268 314//268 361//268
f 361//269 335//269 362//269
f 394//270 363//270 336//270
f 395//271 336//271 364//271
f 370//272 364//272 365//272
f 337//246 396//246 365//246
f 303//273 397//273 367//273
f 399//239 366//239 367//239
f 341//274 363//274 371//274
f 368//275 372//275 338//275
f 371//276 403//276 370//276
f 401//277 373//277 372//277
f 402//253 342//253 373//253
f 375//278 344//278 343//278
f 347//279 406//279 376//279
f 407//280 345//280 376//280
f 380//281 421//281 379//281
f 377//282 410//282 349//282
f 411//44 349//44 410//44
f 381//283 409//283 380//283
f 375//284 414//284 413//284
f 385//285 386//285 328//285
f 333//286 444//286 385//286
f 421//287 359//287 379//287
f 391//288 390//288 358//288
f 423//44 392//44 421//44
f 360//289 449//289 393//289
f 361//290 424//290 360//290
f 362//291 425//291 361//291
f 394//292 427//292 363//292
f 428//293 394//293 395//293
f 397//272 365//272 396//272
f 403//294 395//294 370//294
f 366//295 450//295 396//295
f 431//273 367//273 397//273
f 432//296 366//296 398//296
f 399//297 433//297 398//297
f 363//298 434//298 371//298
f 402//299 400//299 339//299
f 400//300 435//300 368//300
f 435//301 401//301 368//301
f 437//302 404//302 401//302
f 404//303 402//303 373//303
f 405//304 413//304 440//304
f 441//305 376//305 406//305
f 405//306 442//306 377//306
f 346//307 441//307 408//307
f 411//308 412//308 381//308
f 423//44 409//44 412//44
f 385//309 445//309 386//309
f 445//310 418//310 386//310
f 448//44 391//44 423//44
f 436//311 428//311 435//311
f 433//272 397//272 396//272
f 430//312 452//312 451//312
f 453//313 432//313 398//313
f 454//314 398//314 433//314
f 434//315 455//315 438//315
f 439//316 436//316 400//316
f 403//317 438//317 437//317
f 438//318 439//318 404//318
f 448//44 412//44 443//44
f 393//319 467//319 444//319
f 459//320 449//320 424//320
f 425//321 459//321 424//321
f 461//322 425//322 426//322
f 429//323 455//323 427//323
f 428//324 437//324 435//324
f 396//325 464//325 433//325
f 450//326 462//326 396//326
f 430//327 454//327 450//327
f 463//328 430//328 451//328
f 432//329 462//329 452//329
f 454//330 464//330 465//330
f 444//331 468//331 445//331
f 468//332 457//332 445//332
f 451//333 462//333 470//333
f 463//334 470//334 465//334
f 463//335 464//335 432//335
f 470//336 454//336 465//336
f 449//337 475//337 467//337
f 472//338 469//338 459//338
f 473//339 459//339 460//339
f 474//340 460//340 461//340
f 467//341 476//341 468//341
f 468//342 478//342 471//342
f 469//343 481//343 475//343
f 472//344 479//344 477//344
f 480//345 473//345 474//345
f 475//346 482//346 476//346
f 476//347 483//347 478//347
f 479//348 481//348 477//348
f 482//349 480//349 483//349
f 324//150 357//150 489//150
f 488//151 484//151 485//151
f 324//151 484//151 323//151
f 487//61 486//61 484//61
f 492//151 488//151 485//151
f 494//350 487//350 488//350
f 496//160 485//160 489//160
f 490//44 489//44 486//44
f 493//61 490//61 487//61
f 495//151 492//151 485//151
f 491//151 500//151 488//151
f 491//154 503//154 502//154
f 497//150 494//150 488//150
f 506//351 493//351 494//351
f 503//164 496//164 489//164
f 509//166 495//166 496//166
f 497//158 503//158 489//158
f 498//44 497//44 490//44
f 505//61 498//61 493//61
f 508//151 499//151 495//151
f 503//161 499//161 507//161
f 500//153 497//153 488//153
f 501//151 513//151 500//151
f 502//159 501//159 491//159
f 504//150 506//150 494//150
f 506//352 517//352 505//352
f 507//169 509//169 496//169
f 519//150 508//150 509//150
f 512//156 502//156 497//156
f 510//44 504//44 498//44
f 505//61 520//61 510//61
f 514//151 508//151 513//151
f 507//167 511//167 518//167
f 513//157 512//157 500//157
f 515//165 514//165 501//165
f 523//150 506//150 516//150
f 509//168 521//168 519//168
f 519//163 515//163 512//163
f 516//353 520//353 523//353
f 525//354 520//354 517//354
f 511//172 521//172 518//172
f 527//180 522//180 523//180
f 529//355 517//355 522//355
f 531//355 523//355 520//355
f 528//354 525//354 517//354
f 533//354 520//354 524//354
f 535//185 524//185 525//185
f 530//180 527//180 523//180
f 537//180 522//180 526//180
f 539//150 526//150 527//150
f 541//356 528//356 529//356
f 543//355 530//355 531//355
f 532//185 535//185 525//185
f 528//357 545//357 532//357
f 546//185 524//185 534//185
f 531//178 548//178 547//178
f 550//61 534//61 535//61
f 536//150 539//150 527//150
f 542//180 536//180 530//180
f 553//150 526//150 538//150
f 554//358 529//358 537//358
f 538//173 556//173 555//173
f 541//359 557//359 540//359
f 559//61 531//61 547//61
f 561//44 542//44 543//44
f 544//61 550//61 535//61
f 532//360 563//360 544//360
f 540//361 564//361 545//361
f 565//61 534//61 549//61
f 533//44 565//44 548//44
f 566//362 548//362 567//362
f 549//175 568//175 567//175
f 551//363 556//363 539//363
f 552//150 551//150 536//150
f 542//44 571//44 552//44
f 572//173 538//173 555//173
f 553//187 554//187 537//187
f 554//199 558//199 541//199
f 556//364 575//364 555//364
f 557//365 560//365 561//365
f 576//364 547//364 569//364
f 577//44 543//44 559//44
f 562//175 568//175 550//175
f 563//191 562//191 544//191
f 564//202 563//202 545//202
f 548//175 549//175 567//175
f 569//364 566//364 556//364
f 567//362 575//362 566//362
f 570//173 569//173 551//173
f 571//44 570//44 552//44
f 558//203 571//203 560//203
f 575//364 572//364 555//364
f 572//366 573//366 553//366
f 573//195 574//195 554//195
f 584//150 561//150 577//150
f 576//44 577//44 559//44
f 568//362 581//362 575//362
f 579//367 578//367 562//367
f 557//197 579//197 563//197
f 580//44 576//44 570//44
f 574//61 580//61 571//61
f 581//368 582//368 572//368
f 588//188 573//188 582//188
f 588//369 577//369 585//369
f 586//370 581//370 578//370
f 579//371 589//371 586//371
f 583//193 585//193 580//193
f 584//372 582//372 587//372
f 589//373 587//373 586//373
f 593//197 591//197 590//197
f 355//374 348//374 332//374
f 357//375 308//375 348//375
f 305//376 325//376 324//376
f 357//44 486//44 489//44
f 9//415 10//415 11//415
f 12//416 15//416 31//416
f 31//7 19//7 9//7
f 9//415 11//415 12//415
f 9//8 13//8 17//8
f 17//8 14//8 10//8
f 11//9 10//9 14//9
f 14//9 33//9 32//9
f 32//417 22//417 11//417
f 12//418 11//418 24//418
f 18//11 13//11 9//11
f 18//11 9//11 19//11
f 20//11 21//11 18//11
f 12//419 36//419 23//419
f 16//420 25//420 36//420
f 13//14 26//14 27//14
f 29//15 18//15 21//15
f 13//421 18//421 46//421
f 35//422 32//422 33//422
f 35//17 33//17 28//17
f 31//422 34//422 35//422
f 21//422 20//422 31//422
f 35//422 28//422 21//422
f 33//18 14//18 17//18
f 17//18 29//18 28//18
f 11//423 22//423 54//423
f 23//20 37//20 38//20
f 16//424 24//424 58//424
f 25//425 16//425 39//425
f 17//23 27//23 42//23
f 13//24 30//24 43//24
f 27//426 26//426 63//426
f 18//427 29//427 64//427
f 35//428 47//428 48//428
f 34//429 71//429 52//429
f 32//430 73//430 53//430
f 36//431 354//431 329//431
f 38//432 55//432 49//432
f 329//433 356//433 37//433
f 37//33 56//33 57//33
f 25//434 334//434 354//434
f 40//435 335//435 334//435
f 42//436 59//436 84//436
f 41//37 60//37 29//37
f 30//437 61//437 62//437
f 18//40 45//40 65//40
f 47//41 35//41 67//41
f 69//42 48//42 47//42
f 56//44 79//44 80//44
f 85//45 60//45 41//45
f 60//37 86//37 87//37
f 44//438 83//438 59//438
f 88//439 115//439 62//439
f 43//440 62//440 117//440
f 89//441 63//441 26//441
f 45//50 64//50 44//50
f 29//51 90//51 91//51
f 46//40 65//40 93//40
f 45//52 63//52 89//52
f 92//442 61//442 30//442
f 66//443 32//443 48//443
f 66//444 95//444 73//444
f 70//56 47//56 68//56
f 97//445 120//445 67//445
f 67//446 66//446 94//446
f 70//447 378//447 408//447
f 69//448 121//448 94//448
f 55//61 77//61 175//61
f 175//61 173//61 49//61
f 71//44 98//44 99//44
f 97//449 35//449 52//449
f 52//44 99//44 100//44
f 73//450 414//450 382//450
f 102//451 58//451 24//451
f 71//44 57//44 80//44
f 56//452 37//452 356//452
f 56//44 389//44 390//44
f 79//66 106//66 107//66
f 108//453 81//453 39//453
f 81//454 82//454 40//454
f 82//455 362//455 335//455
f 110//71 84//71 59//71
f 84//72 110//72 90//72
f 111//45 86//45 60//45
f 29//73 87//73 112//73
f 86//37 113//37 114//37
f 64//74 91//74 83//74
f 92//75 116//75 88//75
f 118//456 138//456 91//456
f 116//77 92//77 93//77
f 65//52 89//52 117//52
f 95//457 66//457 67//457
f 406//458 378//458 70//458
f 68//459 94//459 121//459
f 99//460 98//460 127//460
f 410//461 442//461 97//461
f 72//44 100//44 411//44
f 100//83 99//83 122//83
f 95//462 413//462 414//462
f 58//463 102//463 144//463
f 80//87 107//87 127//87
f 390//88 422//88 106//88
f 128//44 127//44 107//44
f 81//464 108//464 147//464
f 82//465 81//465 129//465
f 362//466 82//466 130//466
f 131//467 133//467 109//467
f 132//93 110//93 109//93
f 85//72 90//72 112//72
f 110//468 132//468 118//468
f 86//469 111//469 148//469
f 87//73 114//73 135//73
f 86//470 150//470 136//470
f 137//471 135//471 114//471
f 138//98 131//98 83//98
f 115//472 143//472 117//472
f 139//100 140//100 115//100
f 116//473 141//473 139//473
f 141//474 116//474 119//474
f 119//103 93//103 117//103
f 120//475 440//475 413//475
f 96//476 121//476 441//476
f 442//477 440//477 120//477
f 69//478 408//478 441//478
f 411//108 100//108 123//108
f 122//44 127//44 128//44
f 102//479 103//479 145//479
f 418//480 457//480 145//480
f 448//44 128//44 106//44
f 132//111 133//111 140//111
f 112//72 135//72 137//72
f 134//481 149//481 150//481
f 136//482 158//482 151//482
f 113//114 151//114 152//114
f 138//115 142//115 153//115
f 140//483 153//483 143//483
f 118//117 141//117 142//117
f 142//118 119//118 143//118
f 123//44 128//44 448//44
f 108//484 144//484 161//484
f 147//485 163//485 155//485
f 130//486 129//486 155//486
f 130//487 156//487 461//487
f 153//488 140//488 133//488
f 141//489 118//489 132//489
f 111//490 137//490 159//490
f 157//491 164//491 148//491
f 134//492 148//492 152//492
f 134//493 151//493 158//493
f 157//129 159//129 136//129
f 152//494 160//494 159//494
f 144//495 145//495 162//495
f 457//496 471//496 162//496
f 149//497 164//497 157//497
f 158//498 160//498 164//498
f 159//135 160//135 158//135
f 152//499 148//499 164//499
f 147//500 161//500 167//500
f 163//501 169//501 165//501
f 155//502 165//502 166//502
f 156//503 166//503 474//503
f 161//504 162//504 168//504
f 162//505 471//505 478//505
f 163//506 167//506 171//506
f 170//507 166//507 165//507
f 166//508 170//508 480//508
f 167//509 168//509 172//509
f 168//510 478//510 483//510
f 170//511 169//511 171//511
f 172//512 483//512 480//512
f 50//150 174//150 178//150
f 178//150 78//150 51//150
f 173//151 176//151 177//151
f 173//151 174//151 50//151
f 175//61 179//61 176//61
f 177//151 180//151 181//151
f 176//152 182//152 183//152
f 174//153 184//153 185//153
f 178//44 186//44 179//44
f 179//61 187//61 182//61
f 184//151 174//151 181//151
f 189//151 190//151 180//151
f 192//154 181//154 180//154
f 186//150 177//150 183//150
f 182//155 194//155 195//155
f 185//156 196//156 192//156
f 184//157 197//157 198//157
f 186//158 178//158 192//158
f 186//44 193//44 187//44
f 187//61 199//61 194//61
f 197//151 184//151 188//151
f 192//159 196//159 188//159
f 186//160 201//160 189//160
f 202//151 203//151 190//151
f 190//161 204//161 191//161
f 193//150 183//150 195//150
f 206//513 211//513 195//513
f 198//163 207//163 196//163
f 197//150 202//150 208//150
f 201//164 186//164 191//164
f 193//44 205//44 199//44
f 194//61 199//61 209//61
f 197//151 200//151 203//151
f 196//165 207//165 200//165
f 201//166 208//166 202//166
f 203//167 210//167 204//167
f 195//150 211//150 212//150
f 198//168 208//168 210//168
f 208//169 201//169 204//169
f 205//514 212//514 209//514
f 209//171 213//171 214//171
f 210//172 203//172 200//172
f 211//173 215//173 216//173
f 206//174 217//174 218//174
f 212//174 219//174 220//174
f 214//171 221//171 217//171
f 209//171 220//171 222//171
f 213//175 223//175 224//175
f 216//173 225//173 219//173
f 211//173 218//173 226//173
f 215//150 227//150 228//150
f 217//515 229//515 230//515
f 219//174 231//174 232//174
f 224//175 233//175 221//175
f 217//177 221//177 234//177
f 213//175 222//175 235//175
f 220//178 236//178 237//178
f 223//61 238//61 239//61
f 228//150 240//150 225//150
f 225//173 241//173 231//173
f 215//150 226//150 242//150
f 218//179 230//179 243//179
f 245//180 228//180 227//180
f 230//516 229//516 246//516
f 220//61 232//61 248//61
f 231//44 249//44 250//44
f 239//61 251//61 233//61
f 221//182 233//182 252//182
f 253//517 246//517 229//517
f 223//61 235//61 254//61
f 222//44 237//44 254//44
f 255//184 256//184 237//184
f 257//185 239//185 238//185
f 245//180 258//180 240//180
f 240//150 259//150 241//150
f 231//44 241//44 260//44
f 227//180 242//180 261//180
f 242//187 226//187 243//187
f 243//188 230//188 247//188
f 264//189 255//189 245//189
f 249//190 247//190 246//190
f 236//189 248//189 265//189
f 232//44 250//44 266//44
f 257//185 267//185 251//185
f 251//191 268//191 252//191
f 253//371 234//371 252//371
f 238//185 254//185 237//185
f 255//189 236//189 258//189
f 264//184 257//184 256//184
f 258//180 265//180 259//180
f 259//44 269//44 260//44
f 260//193 263//193 247//193
f 264//189 244//189 261//189
f 261//194 242//194 262//194
f 262//195 243//195 263//195
f 250//150 246//150 273//150
f 265//44 248//44 266//44
f 257//184 264//184 270//184
f 267//196 275//196 268//196
f 268//197 273//197 246//197
f 265//44 274//44 269//44
f 269//61 272//61 263//61
f 270//198 261//198 271//198
f 262//518 272//518 277//518
f 266//519 273//519 277//519
f 270//201 276//201 275//201
f 278//520 273//520 268//520
f 274//203 277//203 272//203
f 271//521 277//521 273//521
f 278//522 275//522 276//522
f 280//197 281//197 282//197
f 77//523 38//523 57//523
f 57//524 71//524 78//524
f 78//207 71//207 34//207
f 31//208 15//208 49//208
f 50//525 51//525 34//525
f 31//208 49//208 50//208
f 78//44 178//44 175//44
f 285//526 284//526 283//526
f 283//209 293//209 305//209
f 305//527 289//527 286//527
f 286//526 285//526 283//526
f 291//210 287//210 283//210
f 284//210 288//210 291//210
f 288//211 284//211 285//211
f 285//528 296//528 306//528
f 306//211 307//211 288//211
f 286//529 290//529 298//529
f 292//213 295//213 294//213
f 293//213 283//213 287//213
f 292//213 294//213 293//213
f 297//530 310//530 286//530
f 290//531 286//531 310//531
f 301//216 300//216 287//216
f 295//217 292//217 303//217
f 287//532 304//532 320//532
f 307//219 306//219 309//219
f 309//219 308//219 305//219
f 305//219 294//219 295//219
f 302//533 307//533 309//533
f 305//534 295//534 302//534
f 291//220 288//220 307//220
f 307//220 302//220 303//220
f 285//535 298//535 328//535
f 312//222 311//222 297//222
f 290//536 313//536 333//536
f 299//537 314//537 313//537
f 316//225 301//225 291//225
f 287//226 300//226 317//226
f 301//538 318//538 340//538
f 292//539 319//539 341//539
f 322//540 321//540 309//540
f 326//541 348//541 308//541
f 327//542 350//542 306//542
f 329//543 354//543 310//543
f 323//544 330//544 312//544
f 311//545 356//545 329//545
f 332//235 331//235 311//235
f 299//546 310//546 354//546
f 314//547 299//547 334//547
f 316//548 315//548 364//548
f 303//239 337//239 315//239
f 304//549 317//549 339//549
f 342//242 319//242 292//242
f 321//243 345//243 344//243
f 346//244 347//244 321//244
f 359//44 358//44 331//44
f 315//246 337//246 365//246
f 367//239 366//239 337//239
f 318//550 316//550 336//550
f 339//551 400//551 368//551
f 317//552 369//552 402//552
f 369//553 317//553 300//553
f 319//251 340//251 318//251
f 303//252 341//252 371//252
f 373//242 342//242 320//242
f 369//253 340//253 319//253
f 372//554 320//554 304//554
f 322//555 306//555 343//555
f 343//556 306//556 350//556
f 347//257 376//257 345//257
f 344//557 405//557 377//557
f 374//558 343//558 344//558
f 347//559 346//559 408//559
f 374//560 407//560 346//560
f 486//61 355//61 330//61
f 330//61 323//61 484//61
f 380//44 379//44 348//44
f 377//561 349//561 326//561
f 381//44 380//44 326//44
f 382//562 414//562 350//562
f 385//563 328//563 298//563
f 348//44 379//44 359//44
f 356//564 311//564 331//564
f 331//44 358//44 390//44
f 392//266 391//266 358//266
f 393//565 333//565 313//565
f 360//566 313//566 314//566
f 361//567 314//567 335//567
f 395//271 394//271 336//271
f 370//272 395//272 364//272
f 337//246 366//246 396//246
f 303//273 370//273 397//273
f 399//239 398//239 366//239
f 341//274 318//274 363//274
f 368//275 401//275 372//275
f 371//568 434//568 403//568
f 401//277 404//277 373//277
f 402//253 369//253 342//253
f 375//569 405//569 344//569
f 347//570 378//570 406//570
f 407//571 374//571 345//571
f 380//572 409//572 421//572
f 377//573 442//573 410//573
f 411//44 381//44 349//44
f 381//283 412//283 409//283
f 375//574 350//574 414//574
f 333//575 393//575 444//575
f 421//287 392//287 359//287
f 391//288 422//288 390//288
f 423//44 391//44 392//44
f 360//576 424//576 449//576
f 361//577 425//577 424//577
f 362//578 426//578 425//578
f 394//579 429//579 427//579
f 428//293 429//293 394//293
f 397//272 370//272 365//272
f 403//580 428//580 395//580
f 366//581 430//581 450//581
f 431//273 399//273 367//273
f 432//582 452//582 366//582
f 399//583 431//583 433//583
f 363//298 427//298 434//298
f 402//584 439//584 400//584
f 400//300 436//300 435//300
f 435//585 437//585 401//585
f 437//586 438//586 404//586
f 404//303 439//303 402//303
f 405//587 375//587 413//587
f 441//588 407//588 376//588
f 405//589 440//589 442//589
f 346//590 407//590 441//590
f 411//308 443//308 412//308
f 423//44 421//44 409//44
f 385//591 444//591 445//591
f 445//592 457//592 418//592
f 448//44 422//44 391//44
f 436//311 429//311 428//311
f 433//272 431//272 397//272
f 430//593 366//593 452//593
f 453//594 463//594 432//594
f 454//314 453//314 398//314
f 434//315 427//315 455//315
f 439//595 455//595 436//595
f 403//317 434//317 438//317
f 438//318 455//318 439//318
f 448//44 423//44 412//44
f 393//596 449//596 467//596
f 459//597 469//597 449//597
f 425//598 460//598 459//598
f 461//599 460//599 425//599
f 429//600 436//600 455//600
f 428//601 403//601 437//601
f 396//602 462//602 464//602
f 450//603 470//603 462//603
f 430//604 453//604 454//604
f 463//605 453//605 430//605
f 432//329 464//329 462//329
f 454//606 433//606 464//606
f 444//607 467//607 468//607
f 468//608 471//608 457//608
f 451//609 452//609 462//609
f 463//610 451//610 470//610
f 463//335 465//335 464//335
f 470//611 450//611 454//611
f 449//612 469//612 475//612
f 472//613 477//613 469//613
f 473//614 472//614 459//614
f 474//615 473//615 460//615
f 467//616 475//616 476//616
f 468//617 476//617 478//617
f 469//618 477//618 481//618
f 472//619 473//619 479//619
f 480//620 479//620 473//620
f 475//621 481//621 482//621
f 476//622 482//622 483//622
f 479//623 482//623 481//623
f 482//624 479//624 480//624
f 489//150 485//150 324//150
f 324//150 325//150 357//150
f 488//151 487//151 484//151
f 324//151 485//151 484//151
f 487//61 490//61 486//61
f 492//151 491//151 488//151
f 494//350 493//350 487//350
f 496//160 495//160 485//160
f 490//44 497//44 489//44
f 493//61 498//61 490//61
f 495//151 499//151 492//151
f 491//151 501//151 500//151
f 491//154 492//154 503//154
f 497//150 504//150 494//150
f 506//351 505//351 493//351
f 503//164 507//164 496//164
f 509//166 508//166 495//166
f 497//158 502//158 503//158
f 498//44 504//44 497//44
f 505//61 510//61 498//61
f 508//151 511//151 499//151
f 503//161 492//161 499//161
f 500//153 512//153 497//153
f 501//151 514//151 513//151
f 502//159 515//159 501//159
f 504//150 516//150 506//150
f 506//625 522//625 517//625
f 507//169 518//169 509//169
f 519//150 513//150 508//150
f 512//156 515//156 502//156
f 510//44 516//44 504//44
f 505//61 517//61 520//61
f 514//151 511//151 508//151
f 507//167 499//167 511//167
f 513//157 519//157 512//157
f 515//165 521//165 514//165
f 523//150 522//150 506//150
f 509//168 518//168 521//168
f 519//163 521//163 515//163
f 516//626 510//626 520//626
f 525//354 524//354 520//354
f 511//172 514//172 521//172
f 527//180 526//180 522//180
f 529//355 528//355 517//355
f 531//355 530//355 523//355
f 528//354 532//354 525//354
f 533//354 531//354 520//354
f 535//185 534//185 524//185
f 530//180 536//180 527//180
f 537//180 529//180 522//180
f 539//150 538//150 526//150
f 541//356 540//356 528//356
f 543//355 542//355 530//355
f 532//185 544//185 535//185
f 528//357 540//357 545//357
f 546//185 533//185 524//185
f 531//178 533//178 548//178
f 550//61 549//61 534//61
f 536//150 551//150 539//150
f 542//180 552//180 536//180
f 553//150 537//150 526//150
f 554//358 541//358 529//358
f 538//173 539//173 556//173
f 541//627 558//627 557//627
f 559//61 543//61 531//61
f 561//44 560//44 542//44
f 544//61 562//61 550//61
f 532//360 545//360 563//360
f 540//628 557//628 564//628
f 565//61 546//61 534//61
f 533//44 546//44 565//44
f 566//362 547//362 548//362
f 549//175 550//175 568//175
f 551//173 569//173 556//173
f 552//150 570//150 551//150
f 542//44 560//44 571//44
f 572//173 553//173 538//173
f 553//187 573//187 554//187
f 554//199 574//199 558//199
f 556//364 566//364 575//364
f 557//365 558//365 560//365
f 576//364 559//364 547//364
f 577//44 561//44 543//44
f 562//175 578//175 568//175
f 563//191 579//191 562//191
f 564//520 557//520 563//520
f 548//175 565//175 549//175
f 569//364 547//364 566//364
f 567//362 568//362 575//362
f 570//173 576//173 569//173
f 571//44 580//44 570//44
f 558//203 574//203 571//203
f 575//364 581//364 572//364
f 572//366 582//366 573//366
f 573//195 583//195 574//195
f 584//150 557//150 561//150
f 576//44 585//44 577//44
f 568//362 578//362 581//362
f 579//367 586//367 578//367
f 557//197 584//197 579//197
f 580//44 585//44 576//44
f 574//61 583//61 580//61
f 581//368 587//368 582//368
f 588//629 583//629 573//629
f 588//630 584//630 577//630
f 586//370 587//370 581//370
f 579//192 584//192 589//192
f 583//193 588//193 585//193
f 584//631 588//631 582//631
f 589//632 584//632 587//632
f 593//197 592//197 591//197
f 332//374 312//374 355//374
f 355//633 357//633 348//633
f 357//375 325//375 308//375
f 323//634 289//634 305//634
f 305//635 308//635 325//635
f 324//634 323//634 305//634
f 357//44 355//44 486//44
s 1
usemtl Orange
f 53//377 75//378 22//379
f 22//379 76//380 54//381
f 382//382 74//383 53//377
f 75//378 74//383 101//384
f 54//381 104//385 103//386
f 76//380 75//378 105//387
f 383//388 125//389 74//383
f 101//384 105//387 75//378
f 74//383 125//389 101//384
f 418//390 104//385 419//391
f 76//380 126//392 104//385
f 125//389 124//393 101//384
f 104//385 446//394 419//391
f 105//387 146//395 126//392
f 415//396 154//397 125//389
f 126//392 458//398 446//394
f 124//393 154//397 146//395
f 146//395 466//399 458//398
f 352//400 327//401 296//402
f 353//403 296//402 328//404
f 351//405 382//382 327//401
f 352//400 384//406 351//405
f 387//407 328//404 386//408
f 353//403 388//409 352//400
f 383//388 417//410 415//396
f 384//406 388//409 416//411
f 351//405 384//406 417//410
f 418//390 387//407 386//408
f 420//412 353//403 387//407
f 416//411 417//410 384//406
f 446//394 387//407 419//391
f 447//413 388//409 420//412
f 456//414 415//396 417//410
f 458//398 420//412 446//394
f 416//411 447//413 456//414
f 466//399 447//413 458//398
f 53//377 74//383 75//378
f 22//379 75//378 76//380
f 382//382 383//388 74//383
f 54//381 76//380 104//385
f 383//388 415//396 125//389
f 101//384 124//393 105//387
f 418//390 103//386 104//385
f 76//380 105//387 126//392
f 125//389 154//397 124//393
f 104//385 126//392 446//394
f 105//387 124//393 146//395
f 415//396 466//399 154//397
f 126//392 146//395 458//398
f 146//395 154//397 466//399
f 352//400 351//405 327//401
f 353//403 352//400 296//402
f 351//405 383//388 382//382
f 387//407 353//403 328//404
f 383//388 351//405 417//410
f 384//406 352//400 388//409
f 418//390 419//391 387//407
f 420//412 388//409 353//403
f 416//411 456//414 417//410
f 446//394 420//412 387//407
f 447//413 416//411 388//409
f 456//414 466//399 415//396
f 458//398 447//413 420//412
f 466//399 456//414 447//413
