# Blender 4.0.2
# www.blender.org
mtllib spaceship2.mtl
o Spaceship2_Cylinder
v 0.194072 0.987464 -1.282233
v 0.475785 0.585451 -1.282233
v 0.386322 0.550764 -1.282233
v 0.182064 0.842247 -1.282233
v 0.194072 0.987464 -0.782214
v 0.475785 0.585451 -0.782214
v 0.475933 0.196265 -1.282233
v 0.386430 0.268582 -1.282233
v 0.386322 0.550764 -0.781898
v 0.182064 0.842247 -0.781898
v 0.195280 0.953857 0.577001
v 0.225316 0.915672 0.377570
v 0.232724 0.919198 -0.223437
v 0.207886 0.955389 -0.255224
v 0.211051 0.956879 -0.511323
v 0.278701 0.862976 -0.623697
v 0.318647 0.805973 -0.623697
v 0.294849 0.806967 0.377570
v 0.437025 0.580367 0.388792
v 0.475933 0.196265 -0.782214
v 0.225119 -0.000370 -1.282233
v 0.204575 0.126010 -1.282233
v 0.386430 0.268582 -0.781898
v 0.204575 0.126010 -0.781898
v 0.152205 1.120176 -0.769770
v 0.153413 1.086570 0.589445
v 0.430795 0.579550 0.577001
v 0.473867 0.359702 -0.688468
v 0.225119 -0.000370 -0.782214
v 0.151992 0.953836 0.577001
v 0.123841 1.167789 -0.767978
v 0.125049 1.134182 0.591237
v 0.195859 0.937757 0.854720
v 0.444834 0.439302 0.322401
v 0.433124 0.441168 0.643175
v 0.473929 0.195691 -0.688468
v 0.122653 1.078065 0.588383
v 0.102776 1.111431 0.589638
v 0.409243 0.576723 0.854720
v 0.784556 0.381424 0.377570
v 1.190601 0.312394 0.552261
v 0.911905 0.359774 0.377570
v 0.775297 0.344072 -0.623697
v 0.844643 0.336351 -0.623697
v 0.845400 0.336452 -0.623030
v 1.003831 0.300697 -0.688468
v 1.003831 0.189801 -0.688468
v 0.442265 0.172613 -0.366151
v 0.226309 0.000045 0.577001
v 0.122653 1.078065 0.294298
v 0.151992 0.953836 0.282916
v 0.102776 1.111431 0.295554
v 0.191714 0.904979 0.894137
v 0.372700 0.598761 0.894137
v 1.203081 0.312394 -0.366151
v 0.960902 0.332710 -0.511323
v 0.956283 0.353564 -0.255224
v 0.912356 0.360864 -0.223437
v 1.203081 0.178103 -0.366151
v 0.226879 0.004688 0.854720
v 0.427666 0.367932 0.780394
v 0.212774 0.565287 1.503754
v 0.206060 0.589061 1.444629
v 0.191714 0.851458 0.894137
v 0.372700 0.545240 0.894137
v 1.188710 0.300697 0.681725
v 1.917961 0.312394 0.281374
v 1.925798 0.312394 -0.365737
v 1.925798 0.178103 -0.365737
v 0.426899 0.172521 0.643922
v 0.222895 -0.006040 1.503754
v 0.432962 0.183960 0.854720
v 0.206060 0.535540 1.444629
v 0.436510 0.190770 0.779247
v 1.188710 0.189801 0.681725
v 1.914409 0.300697 0.410838
v 1.948873 0.353076 -0.525126
v 1.190601 0.178103 0.552261
v 1.917961 0.178103 0.281374
v 1.948873 0.137421 -0.525126
v 0.335214 0.179152 1.503754
v 0.175684 0.016163 2.551760
v 1.914409 0.189801 0.410838
v 1.942333 0.353076 0.357673
v 1.942333 0.137421 0.357673
v 1.999059 0.309248 -0.525078
v 1.999059 0.181249 -0.525078
v 0.201107 0.179152 2.707650
v 0.162830 0.391301 2.239662
v 0.252079 0.179152 2.239662
v 1.939368 0.156206 0.534290
v 1.939368 0.334291 0.534290
v 2.190861 0.353076 0.206375
v 2.195814 0.353076 -0.524894
v 2.195814 0.137421 -0.524894
v 2.190861 0.137421 0.206375
v 2.145627 0.181249 -0.524941
v 2.145627 0.309248 -0.524941
v 1.979778 0.303680 0.508283
v 1.979778 0.186818 0.508283
v 2.221687 0.312394 -0.365567
v 2.174457 0.156206 0.382991
v 2.215753 0.178103 0.170469
v 2.134048 0.186818 0.408998
v 0.127896 0.348177 2.788865
v 2.174457 0.334291 0.382991
v 2.134048 0.303680 0.408998
v 2.215753 0.312394 0.170469
v 2.221687 0.178103 -0.365567
v 2.196097 0.189801 0.299933
v 3.145370 0.312394 -0.175745
v 3.145370 0.312394 -0.365038
v 3.145370 0.178103 -0.365038
v 2.196097 0.300697 0.299933
v 3.145370 0.178103 -0.175745
v 3.075449 0.189801 -0.046281
v 3.162538 0.862630 -0.255560
v 3.162538 0.862630 -0.357389
v 3.240139 0.312394 -0.365038
v 3.240139 0.178103 -0.365038
v 3.075449 0.300697 -0.046281
v 3.240139 0.178103 -0.175745
v 3.222971 0.862630 -0.357389
v 3.240139 0.312394 -0.175745
v 3.222971 0.862630 -0.255560
v 3.214133 0.214954 -0.175745
v 3.171376 0.214954 -0.175745
v 3.171376 0.275543 -0.175745
v 3.214133 0.275543 -0.175745
v 3.214133 0.214954 0.333437
v 3.171376 0.214954 0.333437
v 3.171376 0.275543 0.408947
v 3.214133 0.275543 0.408947
v 1.010882 0.598724 0.377570
v 0.874565 0.598724 0.377570
v 1.010882 0.598724 -0.223437
v 0.873782 0.929712 0.377570
v 0.777391 0.833322 0.377570
v 1.057831 0.598724 -0.255224
v 0.873782 0.929712 -0.223437
v 0.542794 1.066812 0.377570
v 0.542794 0.930495 0.377570
v 1.057831 0.598724 -0.511323
v 0.907109 0.962601 -0.255224
v 0.542794 1.066812 -0.223437
v 0.907109 0.962601 -0.511323
v 0.543232 1.113324 -0.255224
v 0.936199 0.598724 -0.623697
v 0.821101 0.876594 -0.623697
v 0.543232 1.113324 -0.511323
v 0.543232 0.991691 -0.623697
v 0.862986 0.598724 -0.623697
v 0.769332 0.824824 -0.623697
v 0.543232 0.918478 -0.623697
v -0.194072 0.987464 -1.282233
v -0.475785 0.585451 -1.282233
v -0.386322 0.550764 -1.282233
v -0.182064 0.842247 -1.282233
v -0.194072 0.987464 -0.782214
v -0.475785 0.585451 -0.782214
v -0.475933 0.196265 -1.282233
v -0.386430 0.268582 -1.282233
v -0.386322 0.550764 -0.781898
v -0.182064 0.842247 -0.781898
v -0.195280 0.953857 0.577001
v -0.225316 0.915672 0.377570
v -0.232724 0.919198 -0.223437
v -0.207886 0.955389 -0.255224
v -0.211051 0.956879 -0.511323
v -0.278701 0.862976 -0.623697
v -0.318647 0.805973 -0.623697
v -0.294849 0.806967 0.377570
v -0.437025 0.580367 0.388792
v -0.475933 0.196265 -0.782214
v -0.225119 -0.000370 -1.282233
v -0.204575 0.126010 -1.282233
v -0.386430 0.268582 -0.781898
v -0.204575 0.126010 -0.781898
v -0.152205 1.120176 -0.769770
v -0.153413 1.086570 0.589445
v -0.430795 0.579550 0.577001
v -0.473867 0.359702 -0.688468
v -0.225119 -0.000370 -0.782214
v -0.151992 0.953836 0.577001
v -0.123841 1.167789 -0.767978
v -0.125049 1.134182 0.591237
v -0.195859 0.937757 0.854720
v -0.444834 0.439302 0.322401
v -0.433124 0.441168 0.643175
v -0.473929 0.195691 -0.688468
v -0.122653 1.078065 0.588383
v -0.102776 1.111431 0.589638
v -0.409243 0.576723 0.854720
v -0.784556 0.381424 0.377570
v -1.190601 0.312394 0.552261
v -0.911905 0.359774 0.377570
v -0.775297 0.344072 -0.623697
v -0.844643 0.336351 -0.623697
v -0.845400 0.336452 -0.623030
v -1.003831 0.300697 -0.688468
v -1.003831 0.189801 -0.688468
v -0.442265 0.172613 -0.366151
v -0.226309 0.000045 0.577001
v -0.122653 1.078065 0.294298
v -0.151992 0.953836 0.282916
v -0.102776 1.111431 0.295554
v -0.191714 0.904979 0.894137
v -0.372700 0.598761 0.894137
v -1.203081 0.312394 -0.366151
v -0.960902 0.332710 -0.511323
v -0.956283 0.353564 -0.255224
v -0.912356 0.360864 -0.223437
v -1.203081 0.178103 -0.366151
v -0.226879 0.004688 0.854720
v -0.427666 0.367932 0.780394
v -0.212774 0.565287 1.503754
v -0.206060 0.589061 1.444629
v -0.191714 0.851458 0.894137
v -0.372700 0.545240 0.894137
v -1.188710 0.300697 0.681725
v -1.917961 0.312394 0.281374
v -1.925798 0.312394 -0.365737
v -1.925798 0.178103 -0.365737
v -0.426899 0.172521 0.643922
v -0.222895 -0.006040 1.503754
v -0.432962 0.183960 0.854720
v -0.206060 0.535540 1.444629
v -0.436510 0.190770 0.779247
v -1.188710 0.189801 0.681725
v -1.914409 0.300697 0.410838
v -1.948873 0.353076 -0.525126
v -1.190601 0.178103 0.552261
v -1.917961 0.178103 0.281374
v -1.948873 0.137421 -0.525126
v -0.335214 0.179152 1.503754
v -0.175684 0.016163 2.551760
v -1.914409 0.189801 0.410838
v -1.942333 0.353076 0.357673
v -1.942333 0.137421 0.357673
v -1.999059 0.309248 -0.525078
v -1.999059 0.181249 -0.525078
v -0.201107 0.179152 2.707650
v -0.162830 0.391301 2.239662
v -0.252079 0.179152 2.239662
v -1.939368 0.156206 0.534290
v -1.939368 0.334291 0.534290
v -2.190861 0.353076 0.206375
v -2.195814 0.353076 -0.524894
v -2.195814 0.137421 -0.524894
v -2.190861 0.137421 0.206375
v -2.145627 0.181249 -0.524941
v -2.145627 0.309248 -0.524941
v -1.979778 0.303680 0.508283
v -1.979778 0.186818 0.508283
v -2.221687 0.312394 -0.365567
v -2.174457 0.156206 0.382991
v -2.215753 0.178103 0.170469
v -2.134048 0.186818 0.408998
v -0.127896 0.348177 2.788865
v -2.174457 0.334291 0.382991
v -2.134048 0.303680 0.408998
v -2.215753 0.312394 0.170469
v -2.221687 0.178103 -0.365567
v -2.196097 0.189801 0.299933
v -3.145370 0.312394 -0.175745
v -3.145370 0.312394 -0.365038
v -3.145370 0.178103 -0.365038
v -2.196097 0.300697 0.299933
v -3.145370 0.178103 -0.175745
v -3.075449 0.189801 -0.046281
v -3.162538 0.862630 -0.255560
v -3.162538 0.862630 -0.357389
v -3.240139 0.312394 -0.365038
v -3.240139 0.178103 -0.365038
v -3.075449 0.300697 -0.046281
v -3.240139 0.178103 -0.175745
v -3.222971 0.862630 -0.357389
v -3.240139 0.312394 -0.175745
v -3.222971 0.862630 -0.255560
v -3.214133 0.214954 -0.175745
v -3.171376 0.214954 -0.175745
v -3.171376 0.275543 -0.175745
v -3.214133 0.275543 -0.175745
v -3.214133 0.214954 0.333437
v -3.171376 0.214954 0.333437
v -3.171376 0.275543 0.408947
v -3.214133 0.275543 0.408947
v -1.010882 0.598724 0.377570
v -0.874565 0.598724 0.377570
v -1.010882 0.598724 -0.223437
v -0.873782 0.929712 0.377570
v -0.777391 0.833322 0.377570
v -1.057831 0.598724 -0.255224
v -0.873782 0.929712 -0.223437
v -0.542794 1.066812 0.377570
v -0.542794 0.930495 0.377570
v -1.057831 0.598724 -0.511323
v -0.907109 0.962601 -0.255224
v -0.542794 1.066812 -0.223437
v -0.907109 0.962601 -0.511323
v -0.543232 1.113324 -0.255224
v -0.936199 0.598724 -0.623697
v -0.821101 0.876594 -0.623697
v -0.543232 1.113324 -0.511323
v -0.543232 0.991691 -0.623697
v -0.862986 0.598724 -0.623697
v -0.769332 0.824824 -0.623697
v -0.543232 0.918478 -0.623697
vn -0.0000 -0.0000 -1.0000
vn 0.8189 0.5739 -0.0000
vn -0.8189 -0.5739 -0.0000
vn 1.0000 0.0004 -0.0000
vn -1.0000 -0.0004 -0.0000
vn 0.9538 0.3003 0.0066
vn 0.6170 -0.7870 -0.0000
vn -0.6170 0.7870 -0.0000
vn -0.0000 1.0000 -0.0000
vn -0.0000 -0.0933 0.9956
vn 0.8592 0.5114 0.0119
vn 0.8460 0.5323 0.0291
vn -0.3827 -0.9238 0.0109
vn 0.6485 -0.7612 0.0092
vn -0.0000 0.0934 -0.9956
vn -0.0207 -0.0499 0.9985
vn 0.1739 0.9840 -0.0383
vn 0.1067 0.9583 -0.2653
vn -0.0000 -0.9998 0.0212
vn -0.9732 -0.2298 -0.0000
vn -0.0000 -1.0000 0.0003
vn -0.8591 -0.5118 -0.0000
vn 0.0072 -1.0000 0.0001
vn 0.7658 0.4526 0.4569
vn 0.6497 -0.7601 0.0114
vn 0.8506 -0.0000 -0.5258
vn -0.0111 -0.9973 -0.0725
vn -0.0000 -0.0912 0.9958
vn -0.0000 -0.9999 0.0167
vn 0.6629 0.7177 0.2133
vn -0.0000 -0.0000 1.0000
vn 0.1286 -0.0000 0.9917
vn 0.0006 -0.0000 -1.0000
vn -0.0000 -0.9999 -0.0165
vn -0.0000 0.9278 0.3731
vn 0.9870 0.0596 0.1491
vn -0.9571 -0.0000 -0.2897
vn 0.9386 -0.3420 0.0448
vn 0.0338 0.9953 0.0909
vn -0.8806 0.4739 -0.0065
vn -0.0000 -1.0000 -0.0000
vn -0.9897 -0.0000 -0.1433
vn 0.3497 -0.0000 0.9369
vn 0.6733 -0.7376 0.0516
vn 0.1654 0.9862 0.0019
vn -0.8737 0.4860 0.0199
vn 0.0338 -0.9953 0.0904
vn -0.8492 -0.5280 -0.0103
vn 0.0010 -0.0000 -1.0000
vn 0.9375 -0.3446 0.0495
vn -0.0000 0.9732 0.2301
vn -0.0000 -0.6912 0.7227
vn 0.9168 0.3857 0.1036
vn -0.9802 -0.0000 0.1982
vn 0.0159 -0.9911 0.1325
vn -0.8649 -0.5004 0.0387
vn 0.0009 -0.0000 -1.0000
vn 0.9998 -0.0000 0.0187
vn 0.9625 -0.2504 0.1048
vn 0.5412 -0.0000 0.8409
vn 0.0680 0.9914 0.1118
vn 0.8336 0.5523 0.0056
vn 0.0686 -0.9919 0.1067
vn 0.8567 -0.5158 0.0095
vn -0.0000 1.0000 -0.0060
vn -0.0035 -1.0000 -0.0055
vn -0.0000 -0.4331 0.9014
vn 0.9171 0.3858 0.0999
vn 0.9871 -0.0000 -0.1603
vn 0.9432 -0.3096 0.1205
vn -0.9999 -0.0000 -0.0124
vn 0.9007 0.3986 0.1728
vn 0.9677 -0.0000 0.2521
vn 0.0376 -0.9947 0.0956
vn 0.0418 0.9928 0.1123
vn -0.9995 0.0312 -0.0000
vn 0.3663 -0.0000 0.9305
vn -0.0000 0.0139 -0.9999
vn -0.0000 0.1436 0.9896
vn 1.0000 -0.0000 -0.0000
vn 0.8799 -0.0000 0.4752
vn 0.9995 0.0312 -0.0000
vn -1.0000 -0.0000 -0.0000
vn -0.0000 -0.7800 0.6258
vn 0.5461 -0.2262 0.8066
vn 0.9239 0.3827 -0.0000
vn 0.5461 0.2262 0.8066
vn 0.3827 0.9239 -0.0000
vn 0.9239 -0.3827 -0.0000
vn 0.2270 0.5480 0.8051
vn 0.1380 0.8715 0.4706
vn 0.6533 0.2706 -0.7071
vn 0.8189 0.5738 0.0135
vn 0.1676 0.9859 -0.0000
vn 0.2706 0.6533 -0.7071
vn -0.4261 0.9047 -0.0000
vn -0.4298 0.9029 -0.0000
vn 0.9996 0.0033 0.0284
vn -0.3044 0.6464 -0.6996
vn 0.6719 -0.2344 -0.7026
vn 0.8550 -0.5186 -0.0033
vn 0.9952 0.0601 0.0778
vn 0.1640 0.9769 -0.1368
vn -0.9238 -0.3827 0.0107
vn -0.9238 0.3827 0.0107
vn 0.4459 -0.8950 0.0115
vn 0.9988 0.0341 0.0363
vn 0.8460 0.5323 0.0303
vn -0.2575 0.5469 0.7966
vn -0.0000 0.7689 0.6394
vn -0.0000 -0.0376 0.9993
vn -0.0000 -0.0701 0.9975
vn -0.0000 0.9997 0.0247
vn -0.0000 0.0376 -0.9993
vn -0.0005 0.9984 0.0572
vn -0.8189 0.5739 -0.0000
vn 0.8189 -0.5739 -0.0000
vn -1.0000 0.0004 -0.0000
vn 1.0000 -0.0004 -0.0000
vn -0.9538 0.3003 0.0066
vn -0.6170 -0.7870 -0.0000
vn 0.6170 0.7870 -0.0000
vn -0.8592 0.5114 0.0119
vn -0.8460 0.5323 0.0291
vn 0.3827 -0.9238 0.0109
vn -0.6485 -0.7612 0.0092
vn 0.0207 -0.0499 0.9985
vn -0.0680 0.9948 -0.0764
vn -0.1067 0.9583 -0.2653
vn 0.9732 -0.2298 -0.0000
vn 0.8591 -0.5118 -0.0000
vn -0.0072 -1.0000 0.0001
vn -0.7658 0.4526 0.4569
vn -0.6497 -0.7601 0.0114
vn -0.8506 -0.0000 -0.5258
vn 0.0111 -0.9973 -0.0725
vn -0.6629 0.7177 0.2133
vn -0.1286 -0.0000 0.9917
vn -0.0006 -0.0000 -1.0000
vn -0.9146 0.2900 0.2820
vn 0.9571 -0.0000 -0.2897
vn -0.9386 -0.3420 0.0448
vn -0.0338 0.9953 0.0904
vn 0.8492 0.5280 -0.0103
vn 0.9897 -0.0000 -0.1433
vn -0.3497 -0.0000 0.9369
vn -0.6733 -0.7376 0.0516
vn -0.1654 0.9862 0.0019
vn 0.8737 0.4860 0.0199
vn -0.0338 -0.9953 0.0904
vn 0.8492 -0.5280 -0.0103
vn -0.0010 -0.0000 -1.0000
vn -0.8511 -0.5162 0.0961
vn -0.9445 0.2995 0.1349
vn 0.9802 -0.0000 0.1982
vn -0.0181 -0.9958 0.0902
vn 0.8737 -0.4860 0.0199
vn -0.0009 -0.0000 -1.0000
vn -0.9998 -0.0000 0.0187
vn -0.9625 -0.2504 0.1048
vn -0.5412 -0.0000 0.8409
vn -0.0686 0.9919 0.1067
vn -0.8336 0.5523 0.0056
vn -0.0686 -0.9919 0.1067
vn -0.8336 -0.5523 0.0056
vn -0.0000 -1.0000 -0.0060
vn -0.9171 0.3858 0.0999
vn -0.9871 -0.0000 -0.1603
vn -0.9432 -0.3096 0.1205
vn 0.9999 -0.0000 -0.0124
vn -0.9432 0.3096 0.1205
vn -0.9677 -0.0000 0.2521
vn -0.0376 -0.9947 0.0956
vn -0.0376 0.9947 0.0956
vn -0.3663 -0.0000 0.9305
vn -0.8799 -0.0000 0.4752
vn -0.5461 -0.2262 0.8066
vn -0.9239 0.3827 -0.0000
vn -0.5461 0.2262 0.8066
vn -0.3827 0.9239 -0.0000
vn -0.9239 -0.3827 -0.0000
vn -0.2270 0.5480 0.8051
vn -0.1380 0.8715 0.4706
vn -0.6533 0.2706 -0.7071
vn -0.8189 0.5738 0.0135
vn -0.1676 0.9859 -0.0000
vn -0.2706 0.6533 -0.7071
vn 0.4261 0.9047 -0.0000
vn 0.4298 0.9029 -0.0000
vn -0.9998 0.0004 0.0214
vn 0.3071 0.6311 -0.7123
vn -0.6719 -0.2344 -0.7026
vn -0.6535 -0.7512 0.0929
vn -0.9952 0.0601 0.0778
vn -0.1640 0.9769 -0.1368
vn 0.9238 -0.3827 0.0107
vn 0.9455 0.3256 -0.0034
vn -0.4479 -0.8940 0.0109
vn -0.9987 0.0396 0.0332
vn -0.8417 0.5384 0.0402
vn 0.2575 0.5469 0.7966
vn -0.0000 0.9969 0.0783
vn 0.8312 0.4913 0.2603
vn -0.0000 0.8673 0.4977
vn -0.8312 0.4913 0.2603
vn -0.0086 -0.0932 0.9956
vn 0.8587 0.5075 0.0718
vn 0.6170 -0.7870 -0.0003
vn 0.6501 -0.7598 0.0098
vn 0.0680 0.9948 -0.0764
vn 0.1064 0.9581 -0.2659
vn 0.0073 -1.0000 -0.0000
vn 0.0072 -0.9991 -0.0407
vn 0.9146 0.2900 0.2820
vn 0.0338 0.9953 0.0904
vn -0.8492 0.5280 -0.0103
vn 0.6559 -0.7540 -0.0372
vn 0.1662 0.9861 0.0023
vn 0.1298 0.9885 -0.0781
vn 0.1653 0.9862 0.0019
vn -0.8649 0.5004 0.0387
vn 0.0338 -0.9953 0.0909
vn -0.8806 -0.4739 -0.0065
vn 0.8511 -0.5162 0.0961
vn 0.9445 0.2995 0.1349
vn 0.0181 -0.9958 0.0902
vn -0.8737 -0.4860 0.0199
vn 0.0686 0.9919 0.1067
vn 0.8567 0.5158 0.0095
vn 0.0680 -0.9914 0.1118
vn 0.8336 -0.5523 0.0056
vn -0.0035 1.0000 -0.0055
vn 0.9287 0.3603 0.0874
vn 0.9007 -0.3986 0.1728
vn 0.9432 0.3096 0.1205
vn 0.0418 -0.9928 0.1123
vn 0.0376 0.9947 0.0956
vn 0.1775 0.9799 0.0911
vn 0.8206 0.5711 0.0189
vn 0.1679 0.9858 0.0004
vn 0.9998 0.0004 0.0214
vn 0.9987 0.0396 0.0332
vn -0.3071 0.6311 -0.7123
vn 0.6588 -0.2400 -0.7130
vn 0.6604 -0.2305 -0.7147
vn 0.6535 -0.7512 0.0929
vn 0.9968 0.0602 0.0523
vn 0.9967 0.0480 0.0653
vn 0.9929 0.0489 0.1088
vn -0.9455 0.3256 -0.0034
vn 0.4479 -0.8940 0.0109
vn 0.8422 0.5387 0.0237
vn -0.2542 0.5339 0.8065
vn 0.0005 0.9983 0.0579
vn -0.0000 0.9983 0.0579
vn -0.0000 0.9983 0.0578
vn 0.0086 -0.0932 0.9956
vn -0.8587 0.5075 0.0718
vn -0.6170 -0.7870 -0.0003
vn -0.6501 -0.7598 0.0098
vn -0.1739 0.9840 -0.0383
vn -0.1064 0.9581 -0.2658
vn -0.0073 -1.0000 -0.0000
vn -0.0072 -0.9991 -0.0407
vn -0.9870 0.0596 0.1491
vn -0.0338 0.9953 0.0909
vn 0.8806 0.4739 -0.0065
vn -0.6559 -0.7540 -0.0372
vn -0.1662 0.9861 0.0023
vn -0.1653 0.9862 0.0019
vn -0.1298 0.9885 -0.0781
vn 0.8649 0.5004 0.0387
vn -0.0338 -0.9953 0.0909
vn 0.8806 -0.4739 -0.0065
vn -0.9375 -0.3446 0.0495
vn -0.9168 0.3857 0.1036
vn -0.0159 -0.9911 0.1325
vn 0.8649 -0.5004 0.0387
vn -0.0680 0.9914 0.1118
vn -0.8567 0.5158 0.0095
vn -0.0680 -0.9914 0.1118
vn -0.8567 -0.5158 0.0095
vn 0.0035 1.0000 -0.0055
vn 0.0035 -1.0000 -0.0055
vn -0.9287 0.3603 0.0874
vn -0.9007 -0.3986 0.1728
vn -0.9007 0.3986 0.1728
vn -0.0418 -0.9928 0.1123
vn -0.0418 0.9928 0.1123
vn -0.1775 0.9799 0.0911
vn -0.8460 0.5323 0.0303
vn -0.8206 0.5711 0.0189
vn -0.1679 0.9858 0.0004
vn -0.9987 0.0434 0.0253
vn -0.9994 0.0053 0.0331
vn 0.3044 0.6464 -0.6996
vn -0.6588 -0.2400 -0.7130
vn -0.6604 -0.2305 -0.7147
vn -0.8550 -0.5186 -0.0033
vn -0.9955 0.0540 0.0778
vn -0.9975 0.0495 0.0514
vn -0.9954 0.0620 0.0727
vn 0.9238 0.3827 0.0107
vn -0.4459 -0.8950 0.0115
vn -0.9988 0.0341 0.0363
vn -0.8461 0.5324 0.0255
vn 0.2542 0.5339 0.8065
s 0
usemtl White.002
f 2//1 4//1 1//1
f 6//2 1//2 5//2
f 2//1 8//1 3//1
f 3//3 10//3 4//3
f 155//1 4//1 158//1
f 20//4 2//4 6//4
f 7//1 22//1 8//1
f 8//5 9//5 3//5
f 163//1 10//1 23//1
f 11//6 25//6 26//6
f 29//7 7//7 20//7
f 175//1 22//1 21//1
f 22//8 23//8 8//8
f 176//9 24//9 22//9
f 26//10 30//10 11//10
f 26//11 31//11 32//11
f 33//12 27//12 11//12
f 154//13 138//13 142//13
f 20//14 48//14 49//14
f 179//15 5//15 159//15
f 32//16 37//16 26//16
f 43//17 34//17 40//17
f 43//18 44//18 46//18
f 225//19 82//19 236//19
f 30//20 50//20 51//20
f 184//9 51//9 205//9
f 183//21 49//21 203//21
f 37//22 52//22 50//22
f 78//23 48//23 59//23
f 33//24 54//24 39//24
f 70//25 60//25 49//25
f 152//1 44//1 43//1
f 55//26 47//26 46//26
f 47//27 48//27 36//27
f 205//28 50//28 204//28
f 203//29 60//29 214//29
f 39//30 63//30 62//30
f 54//31 64//31 65//31
f 66//32 74//32 75//32
f 55//9 67//9 68//9
f 55//33 69//33 59//33
f 46//1 36//1 28//1
f 214//34 71//34 225//34
f 217//35 62//35 63//35
f 39//36 81//36 72//36
f 63//37 65//37 73//37
f 143//38 57//38 56//38
f 41//39 76//39 67//39
f 68//40 84//40 77//40
f 59//41 79//41 78//41
f 68//42 80//42 69//42
f 217//1 73//1 227//1
f 75//43 76//43 66//43
f 74//44 60//44 70//44
f 55//45 57//45 42//45
f 76//46 84//46 67//46
f 78//47 83//47 75//47
f 69//48 85//48 79//48
f 80//49 86//49 87//49
f 71//50 90//50 82//50
f 62//51 243//51 89//51
f 242//52 82//52 88//52
f 81//53 89//53 90//53
f 83//54 92//54 76//54
f 70//55 75//55 74//55
f 77//9 93//9 94//9
f 83//56 85//56 91//56
f 80//41 96//41 85//41
f 80//57 97//57 95//57
f 77//57 98//57 86//57
f 86//58 100//58 87//58
f 82//59 90//59 88//59
f 92//60 100//60 99//60
f 84//61 106//61 93//61
f 93//62 101//62 94//62
f 85//63 102//63 91//63
f 96//64 109//64 103//64
f 95//57 98//57 94//57
f 87//65 104//65 97//65
f 86//66 107//66 99//66
f 242//67 105//67 259//67
f 89//68 88//68 90//68
f 106//60 99//60 107//60
f 102//60 100//60 91//60
f 109//69 94//69 101//69
f 96//70 110//70 102//70
f 104//71 98//71 97//71
f 106//60 104//60 102//60
f 93//72 114//72 108//72
f 101//9 111//9 112//9
f 101//33 113//33 109//33
f 110//73 106//73 102//73
f 109//41 115//41 103//41
f 103//74 116//74 110//74
f 108//75 121//75 111//75
f 112//76 117//76 118//76
f 112//1 120//1 113//1
f 110//77 121//77 114//77
f 113//41 122//41 115//41
f 112//78 123//78 119//78
f 111//79 125//79 117//79
f 117//9 123//9 118//9
f 124//80 120//80 119//80
f 116//81 111//81 121//81
f 122//31 127//31 115//31
f 119//82 125//82 124//82
f 111//31 129//31 124//31
f 124//31 126//31 122//31
f 111//31 127//31 128//31
f 126//41 131//41 127//41
f 128//9 133//9 129//9
f 129//80 130//80 126//80
f 128//83 131//83 132//83
f 131//84 133//84 132//84
f 137//31 135//31 134//31
f 57//85 136//85 58//85
f 136//86 137//86 134//86
f 141//31 138//31 137//31
f 42//31 135//31 40//31
f 136//87 144//87 140//87
f 140//88 141//88 137//88
f 58//89 134//89 42//89
f 143//86 144//86 139//86
f 140//90 147//90 145//90
f 66//91 35//91 61//91
f 146//92 148//92 149//92
f 146//88 147//88 144//88
f 5//93 16//93 17//93
f 42//94 40//94 35//94
f 150//95 149//95 151//95
f 148//1 153//1 149//1
f 147//96 15//96 14//96
f 141//97 13//97 12//97
f 149//1 154//1 151//1
f 28//98 6//98 34//98
f 16//1 154//1 17//1
f 151//99 15//99 150//99
f 56//100 45//100 148//100
f 60//101 81//101 71//101
f 39//102 61//102 27//102
f 56//103 46//103 45//103
f 153//104 135//104 138//104
f 152//105 40//105 135//105
f 17//106 142//106 18//106
f 34//107 27//107 35//107
f 18//108 11//108 27//108
f 14//109 145//109 147//109
f 12//31 142//31 141//31
f 207//31 64//31 53//31
f 187//110 53//110 33//110
f 183//41 21//41 29//41
f 204//111 52//111 206//111
f 192//41 52//41 38//41
f 186//112 38//112 32//112
f 185//113 32//113 31//113
f 179//114 31//114 25//114
f 158//41 10//41 164//41
f 159//9 1//9 155//9
f 30//115 187//115 11//115
f 158//1 156//1 155//1
f 155//116 160//116 159//116
f 156//1 162//1 161//1
f 164//117 157//117 158//117
f 156//118 174//118 160//118
f 161//1 176//1 175//1
f 163//119 162//119 157//119
f 165//120 179//120 159//120
f 161//121 183//121 174//121
f 177//122 176//122 162//122
f 184//10 180//10 165//10
f 180//123 185//123 179//123
f 181//124 187//124 165//124
f 308//125 292//125 307//125
f 203//126 202//126 174//126
f 191//127 186//127 180//127
f 197//128 188//128 182//128
f 200//129 198//129 197//129
f 184//130 204//130 191//130
f 191//131 206//131 192//131
f 202//132 232//132 213//132
f 208//133 187//133 193//133
f 224//134 203//134 214//134
f 198//1 306//1 197//1
f 209//135 201//135 213//135
f 202//136 201//136 190//136
f 217//137 193//137 216//137
f 208//31 218//31 207//31
f 220//138 228//138 215//138
f 209//9 221//9 195//9
f 223//139 209//139 213//139
f 190//1 200//1 182//1
f 193//140 235//140 216//140
f 217//141 219//141 208//141
f 211//142 297//142 210//142
f 195//143 230//143 220//143
f 222//144 238//144 221//144
f 233//41 213//41 232//41
f 223//145 231//145 222//145
f 230//146 229//146 220//146
f 214//147 228//147 224//147
f 196//148 211//148 209//148
f 238//149 230//149 221//149
f 237//150 232//150 229//150
f 239//151 223//151 233//151
f 234//152 240//152 231//152
f 225//153 244//153 235//153
f 235//154 243//154 216//154
f 246//155 237//155 230//155
f 224//156 229//156 232//156
f 231//9 247//9 238//9
f 237//157 239//157 233//157
f 250//41 234//41 239//41
f 251//158 234//158 249//158
f 231//158 252//158 248//158
f 254//159 240//159 241//159
f 236//160 242//160 244//160
f 246//161 254//161 245//161
f 238//162 260//162 246//162
f 255//163 247//163 248//163
f 256//164 239//164 245//164
f 250//165 263//165 249//165
f 252//158 249//158 248//158
f 258//65 241//65 251//65
f 240//166 261//166 252//166
f 242//167 243//167 244//167
f 260//161 253//161 246//161
f 254//161 256//161 245//161
f 248//168 263//168 255//168
f 264//169 250//169 256//169
f 258//170 252//170 261//170
f 258//161 260//161 256//161
f 247//171 268//171 260//171
f 255//9 265//9 262//9
f 267//139 255//139 263//139
f 264//172 260//172 268//172
f 269//41 263//41 257//41
f 270//173 257//173 264//173
f 262//174 275//174 268//174
f 266//82 271//82 265//82
f 274//1 266//1 267//1
f 275//175 264//175 268//175
f 276//41 267//41 269//41
f 277//78 266//78 273//78
f 271//79 278//79 265//79
f 277//9 271//9 272//9
f 274//83 278//83 273//83
f 265//176 270//176 275//176
f 269//31 280//31 276//31
f 279//76 273//76 278//76
f 278//31 282//31 265//31
f 280//31 278//31 276//31
f 265//31 281//31 269//31
f 285//41 280//41 281//41
f 287//9 282//9 283//9
f 284//83 283//83 280//83
f 282//80 285//80 281//80
f 287//84 285//84 286//84
f 289//31 291//31 288//31
f 211//177 290//177 293//177
f 291//178 290//178 288//178
f 292//31 295//31 291//31
f 196//31 289//31 288//31
f 298//179 290//179 294//179
f 295//180 294//180 291//180
f 212//181 288//181 290//181
f 298//178 297//178 293//178
f 301//182 294//182 299//182
f 189//183 220//183 215//183
f 300//184 302//184 297//184
f 301//180 300//180 298//180
f 169//185 168//185 159//185
f 189//186 194//186 196//186
f 304//187 303//187 300//187
f 307//1 302//1 303//1
f 169//188 301//188 168//188
f 167//189 295//189 166//189
f 308//1 303//1 305//1
f 182//190 160//190 190//190
f 170//1 308//1 305//1
f 305//191 169//191 170//191
f 302//192 199//192 210//192
f 214//193 235//193 226//193
f 193//194 215//194 226//194
f 210//195 200//195 209//195
f 307//196 289//196 306//196
f 306//197 194//197 197//197
f 171//198 296//198 308//198
f 188//199 181//199 173//199
f 181//200 166//200 172//200
f 299//201 168//201 301//201
f 296//31 166//31 295//31
f 243//202 105//202 89//202
f 2//1 3//1 4//1
f 6//2 2//2 1//2
f 2//1 7//1 8//1
f 3//3 9//3 10//3
f 155//1 1//1 4//1
f 20//4 7//4 2//4
f 7//1 21//1 22//1
f 8//5 23//5 9//5
f 23//1 24//1 178//1
f 178//1 177//1 163//1
f 163//1 164//1 10//1
f 10//1 9//1 23//1
f 23//1 178//1 163//1
f 11//6 5//6 25//6
f 29//7 21//7 7//7
f 175//1 176//1 22//1
f 22//8 24//8 23//8
f 176//9 178//9 24//9
f 26//206 37//206 30//206
f 26//11 25//11 31//11
f 33//207 39//207 27//207
f 154//13 153//13 138//13
f 49//208 29//208 20//208
f 20//14 36//14 48//14
f 48//209 70//209 49//209
f 179//15 25//15 5//15
f 32//16 38//16 37//16
f 43//210 28//210 34//210
f 46//18 28//18 43//18
f 44//211 45//211 46//211
f 225//19 71//19 82//19
f 30//20 37//20 50//20
f 184//9 30//9 51//9
f 183//21 29//21 49//21
f 37//22 38//22 52//22
f 78//212 70//212 48//212
f 33//24 53//24 54//24
f 152//1 148//1 44//1
f 55//26 59//26 47//26
f 47//213 59//213 48//213
f 205//28 51//28 50//28
f 203//29 49//29 60//29
f 39//30 54//30 63//30
f 54//31 53//31 64//31
f 66//32 61//32 74//32
f 55//9 41//9 67//9
f 55//33 68//33 69//33
f 46//1 47//1 36//1
f 214//34 60//34 71//34
f 217//35 216//35 62//35
f 39//214 62//214 81//214
f 63//37 54//37 65//37
f 143//89 139//89 57//89
f 41//215 66//215 76//215
f 68//216 67//216 84//216
f 59//41 69//41 79//41
f 68//42 77//42 80//42
f 217//1 63//1 73//1
f 75//43 83//43 76//43
f 74//217 72//217 60//217
f 42//218 41//218 55//218
f 55//219 56//219 57//219
f 57//220 58//220 42//220
f 76//221 92//221 84//221
f 78//222 79//222 83//222
f 69//223 80//223 85//223
f 80//49 77//49 86//49
f 71//224 81//224 90//224
f 62//51 216//51 243//51
f 242//52 236//52 82//52
f 81//225 62//225 89//225
f 83//54 91//54 92//54
f 70//226 78//226 75//226
f 77//9 84//9 93//9
f 83//227 79//227 85//227
f 80//41 95//41 96//41
f 80//57 87//57 97//57
f 77//57 94//57 98//57
f 86//58 99//58 100//58
f 92//60 91//60 100//60
f 84//228 92//228 106//228
f 93//229 108//229 101//229
f 85//230 96//230 102//230
f 96//231 95//231 109//231
f 95//57 97//57 98//57
f 87//232 100//232 104//232
f 86//166 98//166 107//166
f 242//67 88//67 105//67
f 89//233 105//233 88//233
f 106//60 92//60 99//60
f 102//60 104//60 100//60
f 109//69 95//69 94//69
f 96//234 103//234 110//234
f 104//71 107//71 98//71
f 106//60 107//60 104//60
f 93//235 106//235 114//235
f 101//9 108//9 111//9
f 101//33 112//33 113//33
f 110//73 114//73 106//73
f 109//41 113//41 115//41
f 103//236 115//236 116//236
f 108//237 114//237 121//237
f 112//76 111//76 117//76
f 112//1 119//1 120//1
f 110//77 116//77 121//77
f 113//41 120//41 122//41
f 112//78 118//78 123//78
f 111//79 124//79 125//79
f 117//9 125//9 123//9
f 124//80 122//80 120//80
f 116//81 115//81 111//81
f 122//31 126//31 127//31
f 119//82 123//82 125//82
f 111//31 128//31 129//31
f 124//31 129//31 126//31
f 111//31 115//31 127//31
f 126//41 130//41 131//41
f 128//9 132//9 133//9
f 129//80 133//80 130//80
f 128//83 127//83 131//83
f 131//84 130//84 133//84
f 137//31 138//31 135//31
f 57//85 139//85 136//85
f 136//86 140//86 137//86
f 141//31 142//31 138//31
f 42//31 134//31 135//31
f 136//87 139//87 144//87
f 140//88 145//88 141//88
f 58//89 136//89 134//89
f 143//86 146//86 144//86
f 140//90 144//90 147//90
f 66//238 41//238 35//238
f 146//92 143//92 148//92
f 146//88 150//88 147//88
f 11//93 12//93 13//93
f 11//93 13//93 14//93
f 18//108 19//108 6//108
f 17//239 18//239 6//239
f 5//93 11//93 14//93
f 5//93 14//93 15//93
f 17//93 6//93 5//93
f 5//93 15//93 16//93
f 35//94 41//94 42//94
f 40//240 34//240 35//240
f 150//95 146//95 149//95
f 148//1 152//1 153//1
f 147//96 150//96 15//96
f 141//97 145//97 13//97
f 149//1 153//1 154//1
f 28//241 36//241 20//241
f 6//242 19//242 34//242
f 28//241 20//241 6//241
f 16//1 151//1 154//1
f 151//243 16//243 15//243
f 148//244 143//244 56//244
f 45//245 44//245 148//245
f 60//246 72//246 81//246
f 39//247 72//247 74//247
f 61//248 35//248 27//248
f 39//249 74//249 61//249
f 56//103 55//103 46//103
f 153//104 152//104 135//104
f 152//250 43//250 40//250
f 17//251 154//251 142//251
f 34//242 19//242 27//242
f 27//108 19//108 18//108
f 18//252 12//252 11//252
f 14//253 13//253 145//253
f 12//31 18//31 142//31
f 207//31 218//31 64//31
f 187//110 207//110 53//110
f 183//41 175//41 21//41
f 204//111 50//111 52//111
f 192//41 206//41 52//41
f 186//112 192//112 38//112
f 185//113 186//113 32//113
f 179//114 185//114 31//114
f 158//41 4//41 10//41
f 159//9 5//9 1//9
f 184//254 165//254 187//254
f 187//255 33//255 11//255
f 30//256 184//256 187//256
f 158//1 157//1 156//1
f 155//116 156//116 160//116
f 156//1 157//1 162//1
f 164//117 163//117 157//117
f 156//118 161//118 174//118
f 161//1 162//1 176//1
f 163//119 177//119 162//119
f 165//120 180//120 179//120
f 161//121 175//121 183//121
f 177//122 178//122 176//122
f 184//257 191//257 180//257
f 180//123 186//123 185//123
f 181//258 193//258 187//258
f 308//125 296//125 292//125
f 174//259 183//259 203//259
f 203//260 224//260 202//260
f 202//126 190//126 174//126
f 191//127 192//127 186//127
f 197//261 194//261 188//261
f 197//129 182//129 200//129
f 200//262 199//262 198//262
f 184//130 205//130 204//130
f 191//131 204//131 206//131
f 202//263 224//263 232//263
f 208//133 207//133 187//133
f 198//1 302//1 306//1
f 209//135 200//135 201//135
f 202//264 213//264 201//264
f 217//137 208//137 193//137
f 208//31 219//31 218//31
f 220//138 229//138 228//138
f 209//9 222//9 221//9
f 223//139 222//139 209//139
f 190//1 201//1 200//1
f 193//265 226//265 235//265
f 217//141 227//141 219//141
f 211//181 293//181 297//181
f 195//266 221//266 230//266
f 222//267 231//267 238//267
f 233//41 223//41 213//41
f 223//145 234//145 231//145
f 230//146 237//146 229//146
f 214//268 226//268 228//268
f 209//269 195//269 196//269
f 196//270 212//270 211//270
f 211//271 210//271 209//271
f 238//272 246//272 230//272
f 237//273 233//273 232//273
f 239//274 234//274 223//274
f 234//152 241//152 240//152
f 225//275 236//275 244//275
f 235//276 244//276 243//276
f 246//155 245//155 237//155
f 224//277 228//277 229//277
f 231//9 248//9 247//9
f 237//278 245//278 239//278
f 250//41 249//41 234//41
f 251//158 241//158 234//158
f 231//158 240//158 252//158
f 254//159 253//159 240//159
f 246//161 253//161 254//161
f 238//279 247//279 260//279
f 255//280 262//280 247//280
f 256//281 250//281 239//281
f 250//282 257//282 263//282
f 252//158 251//158 249//158
f 258//283 254//283 241//283
f 240//284 253//284 261//284
f 242//285 259//285 243//285
f 260//161 261//161 253//161
f 254//161 258//161 256//161
f 248//168 249//168 263//168
f 264//286 257//286 250//286
f 258//170 251//170 252//170
f 258//161 261//161 260//161
f 247//287 262//287 268//287
f 255//9 266//9 265//9
f 267//139 266//139 255//139
f 264//172 256//172 260//172
f 269//41 267//41 263//41
f 270//288 269//288 257//288
f 262//289 265//289 275//289
f 266//82 272//82 271//82
f 274//1 273//1 266//1
f 275//175 270//175 264//175
f 276//41 274//41 267//41
f 277//78 272//78 266//78
f 271//79 279//79 278//79
f 277//9 279//9 271//9
f 274//83 276//83 278//83
f 265//176 269//176 270//176
f 269//31 281//31 280//31
f 279//76 277//76 273//76
f 278//31 283//31 282//31
f 280//31 283//31 278//31
f 265//31 282//31 281//31
f 285//41 284//41 280//41
f 287//9 286//9 282//9
f 284//83 287//83 283//83
f 282//80 286//80 285//80
f 287//84 284//84 285//84
f 289//31 292//31 291//31
f 211//177 212//177 290//177
f 291//178 294//178 290//178
f 292//31 296//31 295//31
f 196//31 194//31 289//31
f 298//179 293//179 290//179
f 295//180 299//180 294//180
f 212//181 196//181 288//181
f 298//178 300//178 297//178
f 301//182 298//182 294//182
f 189//290 195//290 220//290
f 300//184 303//184 302//184
f 301//180 304//180 300//180
f 160//291 173//291 172//291
f 160//292 172//292 171//292
f 167//185 166//185 165//185
f 168//185 167//185 165//185
f 159//185 160//185 171//185
f 159//185 171//185 170//185
f 168//185 165//185 159//185
f 159//185 170//185 169//185
f 196//186 195//186 189//186
f 189//293 188//293 194//293
f 304//187 305//187 303//187
f 307//1 306//1 302//1
f 169//188 304//188 301//188
f 167//189 299//189 295//189
f 308//1 307//1 303//1
f 182//294 188//294 173//294
f 160//190 174//190 190//190
f 182//295 173//295 160//295
f 170//1 171//1 308//1
f 305//296 304//296 169//296
f 210//297 297//297 302//297
f 302//298 198//298 199//298
f 214//299 225//299 235//299
f 193//300 181//300 189//300
f 215//301 228//301 226//301
f 193//302 189//302 215//302
f 210//195 199//195 200//195
f 307//196 292//196 289//196
f 306//303 289//303 194//303
f 171//304 172//304 296//304
f 188//305 189//305 181//305
f 172//291 173//291 181//291
f 181//306 165//306 166//306
f 299//307 167//307 168//307
f 296//31 172//31 166//31
f 243//202 259//202 105//202
usemtl Black.001
f 65//203 64//203 73//203
f 218//204 73//204 64//204
f 219//205 227//205 218//205
f 218//204 227//204 73//204
