# Blender 4.0.2
# www.blender.org
mtllib spaceship5.mtl
o Spaceship5_Cylinder
v 0.922894 1.869859 -2.769227
v 1.454623 1.111065 -2.769227
v 1.285764 1.045596 -2.769227
v 0.900229 1.595765 -2.769227
v 0.922894 1.869860 -1.825448
v 1.454623 1.111066 -1.825448
v 1.454903 0.376483 -2.769227
v 1.285967 0.512981 -2.769227
v 1.285764 1.045596 -1.824852
v 0.900229 1.595765 -1.824852
v 0.925174 1.806427 0.740052
v 0.984422 1.722283 0.564123
v 0.994941 1.727444 -0.137146
v 0.946197 1.798462 -0.199356
v 0.952347 1.801442 -0.700556
v 1.085111 1.617144 -0.920478
v 1.163622 1.505106 -0.920478
v 1.454903 0.376483 -1.825448
v 0.981494 0.005337 -2.769227
v 0.942718 0.243878 -2.769227
v 1.285967 0.512981 -1.824852
v 0.942718 0.243878 -1.824852
v 1.119389 1.507779 0.564123
v 1.369707 1.099928 0.740052
v 0.843870 2.120353 -1.801959
v 0.846150 2.056921 0.763541
v 1.452578 0.607471 -1.720772
v 0.981494 0.005337 -1.825448
v 1.439048 0.725631 -1.089979
v 1.384793 0.732633 0.740052
v 0.926266 1.776039 1.264244
v 0.843469 1.806389 0.740052
v 0.790334 2.210221 -1.798577
v 0.792614 2.146788 0.766923
v 1.452666 0.375842 -1.720772
v 0.983741 0.006120 0.740052
v 1.404621 0.337023 -1.720772
v 2.326581 0.576076 -0.829740
v 2.330117 0.576076 -1.089979
v 2.106726 0.613183 -0.920478
v 2.236174 0.591456 -0.920478
v 1.380792 0.733313 0.818415
v 2.305694 0.576076 0.707406
v 2.307641 0.576076 0.564123
v 2.125977 0.606628 0.564123
v 1.329026 1.094593 1.264244
v 0.788091 2.040869 0.761536
v 0.750574 2.103847 0.763905
v 1.940173 0.553183 -1.720772
v 1.940173 0.336153 -1.720772
v 1.362052 0.306275 -1.089979
v 2.459545 0.570854 -0.700557
v 2.459455 0.570606 -0.199356
v 2.371237 0.573986 -0.137146
v 2.371112 0.573639 0.564123
v 2.724222 0.560200 0.177264
v 2.739558 0.560200 -1.089168
v 1.371053 0.583109 1.054175
v 0.918443 1.714171 1.338643
v 1.260052 1.136188 1.338643
v 0.788091 2.040869 0.206455
v 0.843469 1.806389 0.184972
v 0.750574 2.103847 0.208825
v 2.330117 0.313260 -1.089979
v 1.334498 0.306163 0.822823
v 0.984818 0.014883 1.264244
v 2.739558 0.297384 -1.089168
v 2.301993 0.553183 0.960774
v 3.307016 0.560200 -0.039783
v 3.318631 0.560200 -1.088836
v 0.958193 1.073007 2.489287
v 0.945522 1.117879 2.377689
v 0.918443 1.613151 1.338643
v 1.260052 1.035168 1.338643
v 2.305694 0.313260 0.707406
v 0.879798 -0.005365 2.489287
v 2.724222 0.297384 0.177264
v 3.318631 0.297384 -1.088836
v 2.717269 0.537307 0.430632
v 5.126331 0.560200 -0.717343
v 5.126331 0.560200 -1.087800
v 1.373797 0.353258 1.264244
v 0.945522 1.016860 2.377689
v 1.334458 0.306162 0.823976
v 1.189298 0.344182 2.489287
v 2.717269 0.320277 0.430632
v 3.307016 0.297384 -0.039783
v 5.126331 0.297384 -1.087800
v 2.301993 0.336153 0.960774
v 3.268550 0.537307 0.213585
v 5.159927 1.637042 -0.873545
v 5.159927 1.637042 -1.072830
v 1.383034 0.355904 1.079916
v 0.811395 0.036543 4.544106
v 3.268550 0.320277 0.213585
v 5.126331 0.297384 -0.717343
v 5.311797 0.560200 -1.087800
v 5.311797 0.297384 -1.087800
v 4.989489 0.537307 -0.463974
v 5.278200 1.637042 -1.072830
v 5.311797 0.560200 -0.717343
v 5.278200 1.637042 -0.873545
v 0.863926 0.744611 3.878303
v 1.032382 0.344182 3.878303
v 0.748164 0.344182 4.688311
v 4.989489 0.320277 -0.463974
v 5.311797 0.297384 -0.717343
v 0.968908 0.340691 4.463064
v 0.820424 0.694402 4.474391
v 0.609980 0.593183 4.649428
v 2.573547 1.136439 0.564123
v 2.306768 1.136439 0.564123
v 2.573547 1.136439 -0.137146
v 2.305235 1.784202 0.564123
v 2.116594 1.595560 0.564123
v 2.284106 1.136439 -0.920478
v 2.305235 1.784202 -0.137146
v 1.657473 2.052514 0.564123
v 1.657473 1.785734 0.564123
v 2.100820 1.578930 -0.920478
v 2.665430 1.136439 -0.199356
v 2.370458 1.848567 -0.199356
v 1.657473 2.052514 -0.137146
v 1.658330 1.762216 -0.920478
v 2.202137 1.680246 -0.920478
v 2.427388 1.136439 -0.920478
v 2.665430 1.136439 -0.700557
v 1.658330 2.143540 -0.199356
v 2.370458 1.848567 -0.700556
v 1.658330 1.905498 -0.920478
v 1.658330 2.143540 -0.700556
v -0.922894 1.869859 -2.769227
v -1.454623 1.111065 -2.769227
v -1.285764 1.045596 -2.769227
v -0.900229 1.595765 -2.769227
v 0.000000 1.869806 -2.769227
v 0.000000 1.595726 -2.769227
v -0.922894 1.869860 -1.825448
v -1.454623 1.111066 -1.825448
v -1.454903 0.376483 -2.769227
v -1.285967 0.512981 -2.769227
v -1.285764 1.045596 -1.824852
v -0.900229 1.595765 -1.824852
v 0.000000 1.869806 -1.825448
v 0.000000 1.595726 -1.824852
v -0.925174 1.806427 0.740052
v -0.984422 1.722283 0.564123
v -0.994941 1.727444 -0.137146
v -0.946197 1.798462 -0.199356
v -0.952347 1.801442 -0.700556
v -1.085111 1.617144 -0.920478
v -1.163622 1.505106 -0.920478
v -1.454903 0.376483 -1.825448
v -0.981494 0.005337 -2.769227
v -0.942718 0.243878 -2.769227
v -1.285967 0.512981 -1.824852
v -0.942718 0.243878 -1.824852
v 0.000000 0.243715 -1.824852
v 0.000000 2.125637 -1.804929
v -1.119389 1.507779 0.564123
v -1.369706 1.099928 0.740052
v -0.843870 2.120353 -1.801959
v -0.846150 2.056921 0.763541
v -1.452578 0.607471 -1.720772
v -0.981494 0.005337 -1.825448
v 0.000000 0.005112 -2.769227
v 0.000000 0.243715 -2.769227
v -1.439048 0.725631 -1.089979
v -1.384793 0.732633 0.740052
v -0.926266 1.776039 1.264244
v -0.843469 1.806389 0.740052
v -0.790334 2.210221 -1.798577
v -0.792614 2.146788 0.766923
v -1.452666 0.375842 -1.720772
v -0.983741 0.006120 0.740052
v -1.404621 0.337023 -1.720772
v 0.000000 0.005112 -1.825448
v -2.326581 0.576076 -0.829740
v -2.330117 0.576076 -1.089979
v -2.106726 0.613183 -0.920478
v -2.236174 0.591456 -0.920478
v -1.380792 0.733313 0.818415
v -2.305694 0.576076 0.707406
v -2.307641 0.576076 0.564123
v -2.125977 0.606628 0.564123
v -1.329026 1.094593 1.264244
v -0.788091 2.040869 0.761536
v -0.750574 2.103847 0.763905
v 0.000000 2.209996 -1.798577
v 0.000000 2.146575 0.766923
v -1.940173 0.553183 -1.720772
v -1.940173 0.336153 -1.720772
v -1.362052 0.306275 -1.089979
v 0.000000 0.005906 0.740052
v 0.000000 2.167904 -1.801539
v -2.459545 0.570854 -0.700557
v -2.459455 0.570606 -0.199356
v -2.371237 0.573986 -0.137146
v -2.371112 0.573639 0.564123
v -2.724222 0.560200 0.177264
v -2.739558 0.560200 -1.089168
v -1.371052 0.583109 1.054175
v -0.918442 1.714171 1.338643
v -1.260052 1.136188 1.338643
v 0.000000 1.775831 1.264244
v -0.788091 2.040869 0.206455
v -0.843469 1.806389 0.184972
v 0.000000 2.103697 0.763905
v -0.750574 2.103847 0.208825
v -2.330117 0.313260 -1.089979
v -1.334498 0.306163 0.822823
v 0.000000 0.014675 1.264244
v -0.984818 0.014883 1.264244
v -2.739558 0.297384 -1.089168
v -2.301993 0.553183 0.960774
v -3.307016 0.560200 -0.039783
v -3.318631 0.560200 -1.088836
v -0.958193 1.073007 2.489287
v -0.945522 1.117879 2.377689
v 0.000000 1.713994 1.338643
v -0.918442 1.613151 1.338643
v -1.260052 1.035168 1.338643
v 0.000000 1.806214 0.740052
v 0.000000 1.806214 0.184972
v 0.000000 2.040719 0.206455
v 0.000000 2.103697 0.208825
v -2.305694 0.313260 0.707406
v -0.879798 -0.005365 2.489287
v 0.000000 -0.005518 2.489287
v -2.724222 0.297384 0.177264
v -3.318631 0.297384 -1.088836
v -2.717269 0.537307 0.430632
v -5.126331 0.560200 -0.717343
v -5.126331 0.560200 -1.087800
v -1.373796 0.353258 1.264244
v 0.000000 1.160535 2.377689
v -0.945522 1.016860 2.377689
v 0.000000 1.612974 1.338643
v -1.334458 0.306162 0.823976
v -1.189298 0.344182 2.489287
v 0.000000 0.036390 4.642250
v -2.717269 0.320277 0.430632
v -3.307016 0.297384 -0.039783
v -5.126331 0.297384 -1.087800
v -2.301993 0.336153 0.960774
v -3.268550 0.537307 0.213585
v -5.159927 1.637042 -0.873545
v -5.159927 1.637042 -1.072830
v -1.383034 0.355904 1.079916
v 0.000000 1.123298 2.489287
v 0.000000 1.059515 2.377689
v -0.811395 0.036543 4.544106
v -3.268550 0.320277 0.213585
v -5.126331 0.297384 -0.717343
v -5.311797 0.560200 -1.087800
v -5.311797 0.297384 -1.087800
v -4.989489 0.537307 -0.463974
v -5.278200 1.637042 -1.072830
v -5.311797 0.560200 -0.717343
v -5.278200 1.637042 -0.873545
v -0.863925 0.744611 3.878303
v -1.032381 0.344182 3.878303
v -0.748164 0.344182 4.688311
v -4.989489 0.320277 -0.463974
v -5.311797 0.297384 -0.717343
v 0.000000 0.794902 3.878303
v -0.968908 0.340691 4.463064
v 0.000000 0.346008 4.792034
v -0.820424 0.694402 4.474391
v -0.609980 0.593183 4.649428
v 0.000000 0.741202 4.521286
v 0.000000 0.643475 4.727466
v -2.573547 1.136439 0.564123
v -2.306768 1.136439 0.564123
v -2.573547 1.136439 -0.137146
v -2.305235 1.784202 0.564123
v -2.116594 1.595560 0.564123
v -2.284106 1.136439 -0.920478
v -2.305235 1.784202 -0.137146
v -1.657473 2.052514 0.564123
v -1.657473 1.785734 0.564123
v -2.100820 1.578930 -0.920478
v -2.665430 1.136439 -0.199356
v -2.370458 1.848567 -0.199356
v -1.657473 2.052514 -0.137146
v -1.658330 1.762216 -0.920478
v -2.202137 1.680246 -0.920478
v -2.427388 1.136439 -0.920478
v -2.665430 1.136439 -0.700557
v -1.658330 2.143540 -0.199356
v -2.370458 1.848567 -0.700556
v -1.658330 1.905498 -0.920478
v -1.658330 2.143540 -0.700556
vn -0.0000 -0.0000 -1.0000
vn 0.8189 0.5739 -0.0000
vn -0.8189 -0.5739 -0.0000
vn -0.0001 1.0000 -0.0000
vn -0.0000 -1.0000 -0.0000
vn 1.0000 0.0004 -0.0000
vn -1.0000 -0.0004 -0.0000
vn -0.0000 0.0934 -0.9956
vn 0.9538 0.3003 0.0066
vn 0.6170 -0.7870 -0.0000
vn -0.6170 0.7870 -0.0000
vn -0.0002 1.0000 -0.0000
vn 0.9987 0.0410 0.0295
vn 0.8460 0.5323 0.0291
vn -0.0000 -0.0933 0.9956
vn 0.8592 0.5114 0.0119
vn 0.0002 -1.0000 -0.0000
vn 0.9998 0.0004 0.0214
vn -0.0207 -0.0499 0.9985
vn -0.0003 0.9997 0.0247
vn 0.6708 -0.2442 -0.7003
vn 0.6685 -0.2345 -0.7058
vn 0.0002 -1.0000 0.0003
vn -0.0016 -0.9988 -0.0488
vn -0.0005 0.0799 -0.9968
vn 0.1088 0.9775 -0.1808
vn 0.1775 0.9799 0.0911
vn 0.1286 -0.0000 0.9917
vn 0.0385 0.9993 0.0005
vn 0.9970 0.0583 0.0508
vn 0.7658 0.4526 0.4569
vn -0.0002 0.9983 0.0578
vn -0.9732 -0.2299 -0.0000
vn -0.0000 -0.0701 0.9975
vn -0.8591 -0.5118 -0.0000
vn 0.8506 -0.0000 -0.5258
vn 0.0002 -0.9999 0.0167
vn 0.0020 -0.0000 -1.0000
vn 0.1553 0.9835 0.0931
vn -0.0000 1.0000 -0.0000
vn 0.6484 -0.7612 0.0114
vn 0.6629 0.7177 0.2133
vn -0.0002 0.7689 0.6394
vn -0.0000 -0.0000 1.0000
vn -0.0000 -0.0912 0.9958
vn -0.0000 -0.0376 0.9993
vn -0.3146 0.6254 -0.7140
vn 0.0002 -0.9999 -0.0165
vn -0.0386 -0.9993 -0.0005
vn 0.0006 -0.0000 -1.0000
vn 0.0355 0.9948 0.0953
vn 0.0487 0.9286 0.3678
vn 0.9870 0.0596 0.1491
vn -0.9571 -0.0000 -0.2897
vn 0.0025 -0.9998 0.0195
vn 0.0787 -0.9927 0.0919
vn 0.7872 -0.0000 0.6167
vn 0.0418 0.9928 0.1123
vn -0.9995 0.0312 -0.0000
vn 0.9957 0.0499 0.0778
vn 0.8496 -0.5259 0.0390
vn 0.0358 -0.9952 0.0909
vn 0.3663 -0.0000 0.9305
vn -0.0000 0.0139 -0.9999
vn -0.0000 0.1436 0.9896
vn 0.0073 -1.0000 -0.0000
vn 0.6562 -0.7543 0.0221
vn 0.0510 0.9711 0.2331
vn 0.9168 0.3857 0.1036
vn 0.0035 -0.9818 0.1901
vn 0.1100 -0.4032 0.9085
vn 0.0376 -0.9947 0.0956
vn 1.0000 -0.0000 -0.0000
vn 0.8799 -0.0000 0.4752
vn 0.9995 0.0312 -0.0000
vn 0.8941 -0.4379 0.0944
vn 0.7012 -0.1793 0.6900
vn 0.0579 0.9944 0.0880
vn 0.9170 0.3858 0.1018
vn 0.1343 0.2252 0.9650
vn 0.6901 0.2682 0.6722
vn 0.0792 0.8187 0.5687
vn 0.9410 -0.3385 -0.0000
vn -0.9463 0.3229 0.0144
vn 0.9239 0.3827 -0.0000
vn -0.9238 -0.3826 0.0141
vn 0.5594 -0.2012 0.8041
vn 0.5461 0.2262 0.8066
vn 0.3827 0.9239 -0.0000
vn 0.6164 -0.7874 0.0032
vn -0.3826 -0.9238 0.0144
vn 0.1658 0.9862 0.0011
vn 0.9397 -0.3421 -0.0000
vn 0.2270 0.5481 0.8050
vn 0.8189 0.5738 0.0135
vn 0.4589 -0.8884 0.0153
vn 0.6533 0.2706 -0.7071
vn 0.2706 0.6533 -0.7071
vn -0.2645 0.5458 0.7950
vn -0.4361 0.8999 -0.0000
vn 0.9979 0.0410 0.0506
vn 0.8460 0.5323 0.0303
vn -0.4405 0.8978 -0.0000
vn 0.7476 -0.6620 0.0532
vn -0.8189 0.5739 -0.0000
vn 0.8189 -0.5739 -0.0000
vn 0.0001 1.0000 -0.0000
vn -1.0000 0.0004 -0.0000
vn 1.0000 -0.0004 -0.0000
vn -0.0040 0.0799 -0.9968
vn -0.9538 0.3003 0.0066
vn -0.6170 -0.7870 -0.0000
vn 0.6170 0.7870 -0.0000
vn 0.0002 1.0000 -0.0000
vn -0.9992 0.0229 0.0332
vn -0.8460 0.5323 0.0291
vn -0.8592 0.5114 0.0119
vn -0.0002 -1.0000 -0.0000
vn -0.9998 0.0004 0.0214
vn 0.0207 -0.0499 0.9985
vn 0.0003 0.9997 0.0247
vn -0.6708 -0.2442 -0.7003
vn -0.6685 -0.2345 -0.7058
vn -0.0002 -1.0000 0.0003
vn 0.0016 -0.9988 -0.0488
vn -0.0017 0.0386 -0.9993
vn -0.1640 0.9769 -0.1368
vn -0.0809 0.8391 0.5379
vn -0.1029 0.1173 0.9878
vn -0.0385 0.9993 0.0005
vn -0.9970 0.0583 0.0508
vn -0.7658 0.4526 0.4569
vn 0.0002 0.9983 0.0578
vn 0.9732 -0.2299 -0.0000
vn 0.8591 -0.5118 -0.0000
vn -0.8506 -0.0000 -0.5258
vn -0.0002 -0.9999 0.0167
vn -0.0020 -0.0000 -1.0000
vn -0.1540 0.9839 0.0911
vn -0.6484 -0.7612 0.0114
vn -0.6629 0.7177 0.2133
vn 0.0002 0.7689 0.6394
vn 0.3124 0.6446 -0.6978
vn -0.0002 -0.9999 -0.0165
vn 0.0386 -0.9993 -0.0005
vn -0.0006 -0.0000 -1.0000
vn -0.0358 0.9952 0.0909
vn -0.0428 0.9477 0.3162
vn -0.9146 0.2900 0.2820
vn 0.9571 -0.0000 -0.2897
vn -0.0002 -0.9998 0.0204
vn -0.0787 -0.9927 0.0919
vn -0.7872 -0.0000 0.6167
vn -0.0376 0.9947 0.0956
vn -0.9957 0.0499 0.0778
vn -0.7460 -0.6606 0.0843
vn -0.0358 -0.9952 0.0909
vn -0.3663 -0.0000 0.9305
vn -0.0073 -1.0000 -0.0000
vn -0.6562 -0.7543 0.0221
vn -0.0510 0.9711 0.2331
vn -0.9445 0.2995 0.1349
vn -0.0181 -0.9958 0.0902
vn -0.1100 -0.4032 0.9085
vn -0.0376 -0.9947 0.0956
vn -1.0000 -0.0000 -0.0000
vn -0.8799 -0.0000 0.4752
vn -0.8941 -0.4379 0.0944
vn -0.7012 -0.1793 0.6900
vn -0.0579 0.9944 0.0880
vn -0.9170 0.3858 0.1018
vn -0.1343 0.2252 0.9650
vn -0.6901 0.2682 0.6722
vn -0.0792 0.8187 0.5687
vn -0.9410 -0.3385 -0.0000
vn 0.9470 0.3210 0.0137
vn -0.9239 0.3827 -0.0000
vn 0.9238 -0.3826 0.0141
vn -0.5493 -0.2000 0.8113
vn -0.5461 0.2262 0.8066
vn -0.3827 0.9239 -0.0000
vn -0.6267 -0.7756 -0.0755
vn 0.3826 -0.9238 0.0144
vn -0.1679 0.9858 0.0012
vn -0.9397 -0.3421 -0.0000
vn -0.2270 0.5481 0.8050
vn -0.8189 0.5738 0.0135
vn -0.4611 -0.8872 0.0143
vn -0.6533 0.2706 -0.7071
vn -0.2706 0.6533 -0.7071
vn 0.2645 0.5458 0.7950
vn 0.4361 0.8999 -0.0000
vn -0.9965 0.0451 0.0699
vn -0.8460 0.5323 0.0303
vn 0.4405 0.8978 -0.0000
vn -0.6535 -0.7512 0.0929
vn 0.8312 0.4913 0.2603
vn 0.0391 0.8671 0.4966
vn -0.8312 0.4913 0.2603
vn 0.0002 0.8826 0.4701
vn 0.0040 0.0799 -0.9968
vn 0.9992 0.0229 0.0332
vn 0.8587 0.5075 0.0718
vn -0.0086 -0.0933 0.9956
vn 0.6597 -0.2343 -0.7141
vn 0.0072 -0.9991 -0.0407
vn -0.0000 0.0702 -0.9975
vn 0.0038 0.0398 -0.9992
vn 0.1640 0.9769 -0.1368
vn 0.0809 0.8391 0.5379
vn 0.1029 0.1173 0.9878
vn 0.0387 0.9992 0.0005
vn 0.0384 0.9993 0.0005
vn 0.0386 0.9993 0.0005
vn 0.0387 0.9993 0.0005
vn 0.0388 0.9992 0.0007
vn 0.0388 0.9992 0.0005
vn -0.0002 0.9983 0.0579
vn -0.0005 0.9983 0.0579
vn -0.0000 -0.0702 0.9975
vn 0.1540 0.9839 0.0911
vn -0.0001 0.7690 0.6392
vn -0.3124 0.6446 -0.6978
vn -0.0387 -0.9992 -0.0005
vn 0.0358 0.9952 0.0909
vn 0.0428 0.9477 0.3162
vn 0.9146 0.2900 0.2820
vn 0.0002 -0.9998 0.0204
vn 0.0780 -0.9928 0.0908
vn 0.0376 0.9947 0.0956
vn 0.9968 0.0602 0.0528
vn 0.7460 -0.6606 0.0843
vn 0.0355 -0.9948 0.0953
vn 0.0072 -1.0000 0.0001
vn 0.0072 -1.0000 -0.0007
vn 0.0566 0.9716 0.2297
vn 0.9445 0.2995 0.1349
vn 0.0181 -0.9958 0.0902
vn 0.1228 -0.4322 0.8934
vn 0.0418 -0.9928 0.1123
vn 0.0615 0.9946 0.0831
vn 0.9186 0.3825 0.0993
vn 0.1411 0.2100 0.9675
vn 0.4730 0.3861 0.7919
vn 0.1282 0.8962 0.4248
vn -0.9470 0.3210 0.0137
vn 0.5493 -0.2000 0.8113
vn 0.6501 -0.7599 -0.0003
vn 0.6170 -0.7870 0.0084
vn 0.6267 -0.7756 -0.0755
vn 0.6098 -0.7925 0.0087
vn 0.1655 0.9862 0.0022
vn 0.1676 0.9859 -0.0000
vn 0.1658 0.9861 0.0023
vn 0.1655 0.9862 0.0023
vn 0.1681 0.9858 0.0022
vn 0.8335 0.5523 0.0166
vn 0.4611 -0.8872 0.0143
vn -0.2597 0.5293 0.8077
vn 0.9965 0.0451 0.0699
vn 0.8358 0.5482 0.0300
vn 0.8473 0.5305 0.0243
vn 0.6535 -0.7512 0.0929
vn -0.9987 0.0410 0.0295
vn -0.8587 0.5075 0.0718
vn 0.0086 -0.0933 0.9956
vn -0.6597 -0.2343 -0.7141
vn -0.0072 -0.9991 -0.0407
vn -0.1088 0.9775 -0.1808
vn -0.1775 0.9799 0.0911
vn -0.1286 -0.0000 0.9917
vn -0.0387 0.9992 0.0005
vn -0.0384 0.9993 0.0005
vn -0.0386 0.9993 0.0005
vn -0.0387 0.9993 0.0005
vn -0.0388 0.9992 0.0007
vn -0.0388 0.9992 0.0005
vn 0.0002 0.9983 0.0579
vn 0.0005 0.9983 0.0579
vn -0.1553 0.9835 0.0931
vn 0.0001 0.7690 0.6392
vn 0.3146 0.6254 -0.7140
vn 0.0387 -0.9992 -0.0005
vn -0.0355 0.9948 0.0953
vn -0.0487 0.9286 0.3678
vn -0.9870 0.0596 0.1491
vn -0.0025 -0.9998 0.0195
vn -0.0780 -0.9928 0.0908
vn -0.0418 0.9928 0.1123
vn -0.9968 0.0602 0.0528
vn -0.8497 -0.5259 0.0390
vn -0.0355 -0.9948 0.0953
vn -0.0072 -1.0000 0.0001
vn -0.0072 -1.0000 -0.0006
vn -0.0566 0.9716 0.2297
vn -0.9168 0.3857 0.1036
vn -0.0035 -0.9818 0.1901
vn -0.1228 -0.4322 0.8934
vn -0.0418 -0.9928 0.1123
vn -0.0615 0.9946 0.0831
vn -0.9186 0.3825 0.0993
vn -0.1411 0.2100 0.9675
vn -0.4730 0.3861 0.7919
vn -0.1282 0.8962 0.4248
vn 0.9463 0.3229 0.0144
vn -0.5594 -0.2012 0.8041
vn -0.6501 -0.7599 -0.0003
vn -0.6098 -0.7925 0.0087
vn -0.6170 -0.7870 0.0084
vn -0.6164 -0.7874 0.0032
vn -0.1655 0.9862 0.0022
vn -0.1655 0.9862 0.0023
vn -0.1676 0.9859 -0.0000
vn -0.1658 0.9861 0.0023
vn -0.8335 0.5523 0.0166
vn -0.4589 -0.8884 0.0153
vn 0.2597 0.5293 0.8077
vn -0.9979 0.0410 0.0506
vn -0.8358 0.5482 0.0300
vn -0.8473 0.5305 0.0243
vn -0.7476 -0.6620 0.0532
vn -0.0002 0.8826 0.4701
vn -0.0391 0.8671 0.4966
s 0
usemtl White.003
f 2//1 4//1 1//1
f 136//1 4//1 137//1
f 6//2 1//2 5//2
f 2//1 8//1 3//1
f 3//3 10//3 4//3
f 5//4 136//4 144//4
f 4//5 145//5 137//5
f 18//6 2//6 6//6
f 7//1 20//1 8//1
f 8//7 9//7 3//7
f 22//1 145//1 9//1
f 144//8 25//8 5//8
f 11//9 25//9 26//9
f 28//10 7//10 18//10
f 166//1 20//1 19//1
f 20//11 21//11 8//11
f 167//12 22//12 20//12
f 29//13 24//13 30//13
f 31//14 24//14 11//14
f 26//15 32//15 11//15
f 26//16 33//16 34//16
f 177//17 19//17 28//17
f 27//18 18//18 6//18
f 34//19 47//19 26//19
f 190//20 33//20 189//20
f 127//21 52//21 38//21
f 126//22 38//22 41//22
f 194//23 28//23 36//23
f 50//24 51//24 37//24
f 33//25 159//25 195//25
f 29//26 49//26 27//26
f 42//27 68//27 43//27
f 68//28 93//28 89//28
f 55//29 56//29 57//29
f 82//30 93//30 58//30
f 31//31 60//31 46//31
f 31//32 32//32 223//32
f 32//33 61//33 62//33
f 190//34 48//34 34//34
f 47//35 63//35 61//35
f 64//36 49//36 39//36
f 212//37 36//37 66//37
f 64//38 57//38 67//38
f 43//39 79//39 56//39
f 57//40 69//40 70//40
f 65//41 66//41 36//41
f 46//42 72//42 71//42
f 205//43 59//43 31//43
f 60//44 73//44 74//44
f 32//12 224//12 223//12
f 224//45 61//45 225//45
f 208//17 63//17 48//17
f 225//46 63//46 226//46
f 15//47 130//47 16//47
f 212//48 76//48 229//48
f 64//49 77//49 75//49
f 57//50 78//50 67//50
f 56//51 90//51 69//51
f 70//40 80//40 81//40
f 72//52 250//52 71//52
f 46//53 85//53 82//53
f 72//54 74//54 83//54
f 220//44 73//44 59//44
f 229//55 94//55 241//55
f 86//56 75//56 77//56
f 67//5 87//5 77//5
f 70//50 88//50 78//50
f 89//57 79//57 68//57
f 69//58 99//58 80//58
f 81//59 91//59 92//59
f 46//60 58//60 24//60
f 72//1 251//1 236//1
f 76//61 104//61 94//61
f 77//62 95//62 86//62
f 78//5 96//5 87//5
f 81//1 98//1 88//1
f 86//63 90//63 79//63
f 81//64 100//64 97//64
f 80//65 102//65 91//65
f 91//40 100//40 92//40
f 75//66 65//66 51//66
f 84//67 82//67 66//67
f 250//68 103//68 71//68
f 85//69 103//69 104//69
f 84//70 89//70 93//70
f 105//71 241//71 94//71
f 87//72 106//72 95//72
f 88//5 107//5 96//5
f 101//73 98//73 97//73
f 95//63 99//63 90//63
f 106//74 80//74 99//74
f 97//75 102//75 101//75
f 107//44 80//44 96//44
f 94//76 104//76 108//76
f 105//77 94//77 108//77
f 266//78 109//78 103//78
f 103//79 108//79 104//79
f 110//80 268//80 105//80
f 109//81 105//81 108//81
f 271//82 110//82 109//82
f 54//83 111//83 55//83
f 111//44 115//44 112//44
f 116//84 45//84 112//84
f 113//85 114//85 111//85
f 114//44 119//44 115//44
f 120//86 112//86 115//86
f 53//87 113//87 54//87
f 113//88 122//88 117//88
f 117//89 118//89 114//89
f 28//90 37//90 51//90
f 124//91 115//91 119//91
f 125//1 116//1 120//1
f 29//92 30//92 40//92
f 52//93 121//93 53//93
f 117//94 128//94 123//94
f 121//85 129//85 122//85
f 5//95 11//95 15//95
f 17//96 119//96 23//96
f 130//1 120//1 124//1
f 127//97 125//97 129//97
f 116//1 41//1 40//1
f 129//89 128//89 122//89
f 16//1 124//1 17//1
f 129//98 130//98 131//98
f 14//99 123//99 128//99
f 128//100 15//100 14//100
f 111//44 45//44 44//44
f 24//101 42//101 30//101
f 49//1 37//1 35//1
f 23//102 11//102 24//102
f 119//44 12//44 23//44
f 118//103 13//103 12//103
f 66//104 85//104 76//104
f 135//1 133//1 132//1
f 136//1 135//1 132//1
f 132//105 139//105 138//105
f 133//1 141//1 140//1
f 143//106 134//106 135//106
f 136//107 138//107 144//107
f 145//5 135//5 137//5
f 133//108 153//108 139//108
f 140//1 155//1 154//1
f 142//109 141//109 134//109
f 142//1 145//1 157//1
f 144//110 162//110 159//110
f 146//111 162//111 138//111
f 140//112 165//112 153//112
f 155//1 166//1 154//1
f 156//113 155//113 141//113
f 157//114 167//114 155//114
f 168//115 161//115 139//115
f 161//116 170//116 146//116
f 171//15 163//15 146//15
f 163//117 172//117 162//117
f 154//118 177//118 165//118
f 164//119 139//119 174//119
f 187//120 173//120 163//120
f 172//121 190//121 189//121
f 289//122 178//122 196//122
f 178//123 288//123 181//123
f 194//124 165//124 177//124
f 193//125 192//125 176//125
f 195//126 162//126 172//126
f 168//127 191//127 179//127
f 182//128 215//128 202//128
f 215//129 249//129 202//129
f 201//130 200//130 199//130
f 235//131 202//131 249//131
f 204//132 170//132 186//132
f 223//133 171//133 170//133
f 171//134 206//134 187//134
f 188//34 190//34 173//34
f 187//135 209//135 188//135
f 191//136 210//136 179//136
f 212//137 175//137 194//137
f 210//138 201//138 179//138
f 183//139 232//139 215//139
f 201//40 216//40 200//40
f 211//140 175//140 213//140
f 219//141 186//141 218//141
f 203//142 205//142 170//142
f 204//44 221//44 203//44
f 224//114 171//114 223//114
f 224//45 206//45 207//45
f 209//118 208//118 188//118
f 225//46 209//46 206//46
f 150//143 292//143 293//143
f 212//144 228//144 213//144
f 230//145 210//145 227//145
f 231//146 201//146 214//146
f 200//147 246//147 232//147
f 217//40 233//40 216//40
f 219//148 250//148 236//148
f 186//149 240//149 218//149
f 219//150 222//150 204//150
f 221//44 220//44 203//44
f 229//151 252//151 228//151
f 227//152 242//152 230//152
f 243//5 214//5 230//5
f 244//146 217//146 231//146
f 232//153 245//153 215//153
f 216//154 257//154 246//154
f 234//75 247//75 233//75
f 202//155 186//155 161//155
f 251//1 219//1 236//1
f 228//156 262//156 240//156
f 253//157 230//157 242//157
f 254//5 231//5 243//5
f 256//1 234//1 244//1
f 246//158 242//158 232//158
f 258//64 234//64 255//64
f 233//65 260//65 259//65
f 258//40 247//40 248//40
f 193//159 211//159 227//159
f 213//160 249//160 239//160
f 261//161 250//161 218//161
f 240//162 261//162 218//162
f 239//163 245//163 227//163
f 241//164 263//164 252//164
f 264//165 243//165 253//165
f 265//5 244//5 254//5
f 256//166 259//166 255//166
f 257//158 253//158 246//158
f 233//167 264//167 257//167
f 260//59 255//59 259//59
f 233//44 265//44 254//44
f 252//168 267//168 262//168
f 263//169 267//169 252//169
f 269//170 266//170 261//170
f 267//171 261//171 262//171
f 268//172 270//172 263//172
f 263//173 269//173 267//173
f 270//174 271//174 269//174
f 198//175 273//175 275//175
f 273//44 277//44 276//44
f 278//176 185//176 180//176
f 276//177 275//177 273//177
f 276//44 281//44 280//44
f 282//178 274//178 278//178
f 197//179 275//179 283//179
f 284//180 275//180 279//180
f 280//181 279//181 276//181
f 176//182 174//182 165//182
f 286//183 277//183 282//183
f 287//1 278//1 288//1
f 185//184 169//184 168//184
f 196//185 283//185 289//185
f 290//186 279//186 285//186
f 283//177 291//177 289//177
f 150//187 146//187 138//187
f 152//188 281//188 286//188
f 292//1 282//1 287//1
f 287//189 289//189 291//189
f 181//1 278//1 180//1
f 290//181 291//181 284//181
f 151//1 286//1 292//1
f 292//190 291//190 293//190
f 285//191 149//191 290//191
f 150//192 290//192 149//192
f 184//44 274//44 273//44
f 161//193 182//193 202//193
f 174//1 192//1 191//1
f 161//194 147//194 160//194
f 147//44 281//44 160//44
f 280//195 148//195 285//195
f 213//196 240//196 235//196
f 2//1 3//1 4//1
f 136//1 1//1 4//1
f 6//2 2//2 1//2
f 2//1 7//1 8//1
f 3//3 9//3 10//3
f 5//4 1//4 136//4
f 4//5 10//5 145//5
f 18//6 7//6 2//6
f 7//1 19//1 20//1
f 8//7 21//7 9//7
f 9//1 21//1 22//1
f 22//1 158//1 145//1
f 145//1 10//1 9//1
f 144//201 159//201 25//201
f 11//9 5//9 25//9
f 28//10 19//10 7//10
f 166//1 167//1 20//1
f 20//11 22//11 21//11
f 167//12 158//12 22//12
f 29//202 6//202 24//202
f 31//203 46//203 24//203
f 26//204 47//204 32//204
f 26//16 25//16 33//16
f 177//17 166//17 19//17
f 27//18 35//18 18//18
f 6//18 29//18 27//18
f 34//19 48//19 47//19
f 190//20 34//20 33//20
f 126//205 127//205 38//205
f 194//23 177//23 28//23
f 50//206 64//206 51//206
f 195//207 189//207 33//207
f 33//208 25//208 159//208
f 29//209 39//209 49//209
f 42//210 58//210 68//210
f 68//211 58//211 93//211
f 57//212 39//212 38//212
f 57//212 38//212 52//212
f 55//213 44//213 43//213
f 53//214 54//214 55//214
f 57//215 52//215 53//215
f 55//216 43//216 56//216
f 57//217 53//217 55//217
f 31//31 59//31 60//31
f 223//218 205//218 31//218
f 31//219 11//219 32//219
f 32//33 47//33 61//33
f 190//220 208//220 48//220
f 47//35 48//35 63//35
f 64//36 50//36 49//36
f 212//37 194//37 36//37
f 64//38 39//38 57//38
f 43//221 68//221 79//221
f 57//40 56//40 69//40
f 46//42 60//42 72//42
f 205//222 220//222 59//222
f 60//44 59//44 73//44
f 32//12 62//12 224//12
f 224//45 62//45 61//45
f 208//17 226//17 63//17
f 225//46 61//46 63//46
f 15//223 131//223 130//223
f 212//48 66//48 76//48
f 64//224 67//224 77//224
f 57//50 70//50 78//50
f 56//225 79//225 90//225
f 70//40 69//40 80//40
f 72//226 236//226 250//226
f 46//227 71//227 85//227
f 72//54 60//54 74//54
f 220//44 238//44 73//44
f 229//228 76//228 94//228
f 86//229 89//229 75//229
f 67//5 78//5 87//5
f 70//50 81//50 88//50
f 89//57 86//57 79//57
f 69//230 90//230 99//230
f 81//59 80//59 91//59
f 46//231 82//231 58//231
f 72//1 83//1 251//1
f 76//232 85//232 104//232
f 77//233 87//233 95//233
f 78//5 88//5 96//5
f 81//1 97//1 98//1
f 86//63 95//63 90//63
f 81//64 92//64 100//64
f 80//65 101//65 102//65
f 91//40 102//40 100//40
f 51//234 64//234 75//234
f 75//235 84//235 65//235
f 66//67 65//67 84//67
f 84//67 93//67 82//67
f 250//236 266//236 103//236
f 85//237 71//237 103//237
f 84//238 75//238 89//238
f 105//239 268//239 241//239
f 87//240 96//240 106//240
f 88//5 98//5 107//5
f 101//73 107//73 98//73
f 95//63 106//63 99//63
f 106//74 96//74 80//74
f 97//75 100//75 102//75
f 107//44 101//44 80//44
f 266//241 271//241 109//241
f 103//242 109//242 108//242
f 110//243 272//243 268//243
f 109//244 110//244 105//244
f 271//245 272//245 110//245
f 54//83 113//83 111//83
f 111//44 114//44 115//44
f 116//246 40//246 45//246
f 113//85 117//85 114//85
f 114//44 118//44 119//44
f 120//86 116//86 112//86
f 53//247 121//247 113//247
f 113//88 121//88 122//88
f 117//89 123//89 118//89
f 65//248 36//248 28//248
f 28//249 18//249 35//249
f 28//250 35//250 37//250
f 51//251 65//251 28//251
f 124//91 120//91 115//91
f 125//1 126//1 116//1
f 41//252 38//252 39//252
f 30//253 42//253 43//253
f 43//254 44//254 45//254
f 40//255 41//255 39//255
f 30//253 43//253 45//253
f 40//252 39//252 29//252
f 30//256 45//256 40//256
f 52//93 127//93 121//93
f 117//94 122//94 128//94
f 121//85 127//85 129//85
f 17//95 6//95 5//95
f 11//257 12//257 13//257
f 11//95 13//95 14//95
f 16//95 17//95 5//95
f 11//95 14//95 15//95
f 15//95 16//95 5//95
f 17//258 124//258 119//258
f 130//1 125//1 120//1
f 127//97 126//97 125//97
f 116//1 126//1 41//1
f 129//89 131//89 128//89
f 16//1 130//1 124//1
f 129//98 125//98 130//98
f 14//259 13//259 123//259
f 128//100 131//100 15//100
f 44//44 55//44 111//44
f 111//44 112//44 45//44
f 24//260 58//260 42//260
f 35//1 27//1 49//1
f 49//1 50//1 37//1
f 24//261 6//261 17//261
f 23//102 12//102 11//102
f 24//262 17//262 23//262
f 119//44 118//44 12//44
f 118//103 123//103 13//103
f 66//263 82//263 85//263
f 135//1 134//1 133//1
f 136//1 137//1 135//1
f 132//105 133//105 139//105
f 133//1 134//1 141//1
f 143//106 142//106 134//106
f 136//107 132//107 138//107
f 145//5 143//5 135//5
f 133//108 140//108 153//108
f 140//1 141//1 155//1
f 142//109 156//109 141//109
f 157//1 156//1 142//1
f 142//1 143//1 145//1
f 145//1 158//1 157//1
f 144//8 138//8 162//8
f 146//111 163//111 162//111
f 140//112 154//112 165//112
f 155//1 167//1 166//1
f 156//113 157//113 155//113
f 157//114 158//114 167//114
f 168//264 169//264 161//264
f 161//265 186//265 170//265
f 171//266 187//266 163//266
f 163//117 173//117 172//117
f 154//118 166//118 177//118
f 164//119 168//119 139//119
f 139//119 153//119 174//119
f 187//120 188//120 173//120
f 172//121 173//121 190//121
f 178//267 289//267 288//267
f 194//124 175//124 165//124
f 193//268 210//268 192//268
f 172//207 189//207 195//207
f 195//110 159//110 162//110
f 168//269 164//269 191//269
f 182//270 183//270 215//270
f 215//271 245//271 249//271
f 178//272 179//272 201//272
f 183//273 184//273 199//273
f 199//274 198//274 197//274
f 196//272 178//272 201//272
f 197//275 196//275 201//275
f 200//276 183//276 199//276
f 199//277 197//277 201//277
f 204//132 203//132 170//132
f 170//278 205//278 223//278
f 171//279 146//279 170//279
f 171//134 207//134 206//134
f 188//220 208//220 190//220
f 187//135 206//135 209//135
f 191//136 192//136 210//136
f 212//137 213//137 175//137
f 210//138 214//138 201//138
f 183//280 200//280 232//280
f 201//40 217//40 216//40
f 219//141 204//141 186//141
f 203//281 220//281 205//281
f 204//44 222//44 221//44
f 224//114 207//114 171//114
f 224//45 225//45 206//45
f 209//118 226//118 208//118
f 225//46 226//46 209//46
f 150//282 151//282 292//282
f 212//144 229//144 228//144
f 230//283 214//283 210//283
f 231//146 217//146 201//146
f 200//284 216//284 246//284
f 217//40 234//40 233//40
f 219//285 218//285 250//285
f 186//286 235//286 240//286
f 219//150 237//150 222//150
f 221//44 238//44 220//44
f 229//287 241//287 252//287
f 227//288 245//288 242//288
f 243//5 231//5 214//5
f 244//146 234//146 217//146
f 232//153 242//153 245//153
f 216//289 233//289 257//289
f 234//75 248//75 247//75
f 202//290 235//290 186//290
f 251//1 237//1 219//1
f 228//291 252//291 262//291
f 253//292 243//292 230//292
f 254//5 244//5 231//5
f 256//1 255//1 234//1
f 246//158 253//158 242//158
f 258//64 248//64 234//64
f 233//65 247//65 260//65
f 258//40 260//40 247//40
f 227//293 210//293 193//293
f 211//294 239//294 227//294
f 239//160 211//160 213//160
f 213//160 235//160 249//160
f 261//295 266//295 250//295
f 240//296 262//296 261//296
f 239//297 249//297 245//297
f 241//298 268//298 263//298
f 264//299 254//299 243//299
f 265//5 256//5 244//5
f 256//166 265//166 259//166
f 257//158 264//158 253//158
f 233//167 254//167 264//167
f 260//59 258//59 255//59
f 233//44 259//44 265//44
f 269//300 271//300 266//300
f 267//301 269//301 261//301
f 268//302 272//302 270//302
f 263//303 270//303 269//303
f 270//304 272//304 271//304
f 198//175 199//175 273//175
f 273//44 274//44 277//44
f 278//305 274//305 185//305
f 276//177 279//177 275//177
f 276//44 277//44 281//44
f 282//178 277//178 274//178
f 197//306 198//306 275//306
f 284//180 283//180 275//180
f 280//181 285//181 279//181
f 165//307 175//307 211//307
f 165//308 211//308 193//308
f 174//309 153//309 165//309
f 165//310 193//310 176//310
f 286//183 281//183 277//183
f 287//1 282//1 278//1
f 179//311 178//311 181//311
f 179//312 181//312 180//312
f 183//313 182//313 169//313
f 185//314 184//314 183//314
f 168//311 179//311 180//311
f 185//313 183//313 169//313
f 168//311 180//311 185//311
f 196//185 197//185 283//185
f 290//186 284//186 279//186
f 283//177 284//177 291//177
f 138//187 139//187 152//187
f 138//187 152//187 151//187
f 148//315 147//315 146//315
f 149//187 148//187 146//187
f 138//187 151//187 150//187
f 150//187 149//187 146//187
f 152//316 160//316 281//316
f 292//1 286//1 282//1
f 287//189 288//189 289//189
f 181//1 288//1 278//1
f 290//181 293//181 291//181
f 151//1 152//1 286//1
f 292//190 287//190 291//190
f 285//317 148//317 149//317
f 150//192 293//192 290//192
f 273//44 199//44 184//44
f 184//44 185//44 274//44
f 161//318 169//318 182//318
f 191//1 164//1 174//1
f 174//1 176//1 192//1
f 152//319 139//319 161//319
f 161//194 146//194 147//194
f 160//320 152//320 161//320
f 147//44 280//44 281//44
f 280//195 147//195 148//195
f 213//321 228//321 240//321
usemtl Black.002
f 74//197 73//197 83//197
f 73//198 251//198 83//198
f 222//199 237//199 221//199
f 221//200 251//200 238//200
f 73//322 238//322 251//322
f 221//323 237//323 251//323
